SplineFontDB: 3.0
FontName: CabinSketch-Bold
FullName: CabinSketch Bold
FamilyName: CabinSketch
Weight: Bold
Copyright: Copyright (c) 2011 by Pablo Impallari. www.impallari.com Igino Marini. www.ikern.com. All rights reserved.
Version: 1.002
ItalicAngle: 0
UnderlinePosition: -45
UnderlineWidth: 45
Ascent: 800
Descent: 200
sfntRevision: 0x00010083
LayerCount: 2
Layer: 0 1 "Back"  1
Layer: 1 1 "Fore"  0
XUID: [1021 288 713564382 14314615]
FSType: 0
OS2Version: 3
OS2_WeightWidthSlopeOnly: 0
OS2_UseTypoMetrics: 1
CreationTime: 1297251458
ModificationTime: 1313500804
PfmFamily: 17
TTFWeight: 700
TTFWidth: 5
LineGap: 0
VLineGap: 0
Panose: 2 11 8 3 5 2 2 2 0 4
OS2TypoAscent: 73
OS2TypoAOffset: 1
OS2TypoDescent: -98
OS2TypoDOffset: 1
OS2TypoLinegap: 0
OS2WinAscent: 0
OS2WinAOffset: 1
OS2WinDescent: 0
OS2WinDOffset: 1
HheadAscent: 0
HheadAOffset: 1
HheadDescent: 0
HheadDOffset: 1
OS2SubXSize: 700
OS2SubYSize: 650
OS2SubXOff: 0
OS2SubYOff: 140
OS2SupXSize: 700
OS2SupYSize: 650
OS2SupXOff: 0
OS2SupYOff: 477
OS2StrikeYSize: 50
OS2StrikeYPos: 250
OS2FamilyClass: 2050
OS2Vendor: 'PYRS'
OS2CodePages: 00000001.00000000
OS2UnicodeRanges: 8000002f.0000000a.00000000.00000000
Lookup: 258 0 0 "'kern' Horizontal Kerning in Latin lookup 0"  {"'kern' Horizontal Kerning in Latin lookup 0 subtable"  } ['kern' ('DFLT' <'dflt' > 'latn' <'dflt' > ) ]
DEI: 91125
TtTable: prep
PUSHW_1
 511
SCANCTRL
PUSHB_1
 4
SCANTYPE
EndTTInstrs
ShortTable: maxp 16
  1
  0
  223
  1435
  109
  1198
  65
  2
  0
  1
  1
  0
  64
  0
  2
  1
EndShort

StartChar: .notdef
Encoding: 65536 -1 0
Width: 216
Flags: W
LayerCount: 2
Fore
SplineSet
194 267 m 1,0,-1
 186 245 l 1,1,-1
 186 186 l 2,2,3
 186 177 186 177 177 177 c 128,-1,4
 168 177 168 177 157 181.5 c 128,-1,5
 146 186 146 186 137.5 186 c 128,-1,6
 129 186 129 186 120 184.5 c 128,-1,7
 111 183 111 183 102 181 c 0,8,9
 78 176 78 176 45 176 c 0,10,11
 29 176 29 176 22 250 c 0,12,13
 21 266 21 266 21 280.5 c 128,-1,14
 21 295 21 295 25 307.5 c 128,-1,15
 29 320 29 320 29 334 c 0,16,17
 29 345 29 345 75 345 c 0,18,19
 89 345 89 345 109 342 c 128,-1,20
 129 339 129 339 146 338 c 2,21,-1
 163 337 l 2,22,23
 167 337 167 337 177 314 c 0,24,25
 194 273 194 273 194 267 c 1,0,-1
115.5 263.5 m 128,-1,27
 105 259 105 259 97.5 259 c 128,-1,28
 90 259 90 259 86 263 c 1,29,30
 78 257 78 257 69 256 c 128,-1,31
 60 255 60 255 57.5 252.5 c 128,-1,32
 55 250 55 250 55 240 c 0,33,34
 55 225 55 225 60 207 c 1,35,36
 70 212 70 212 84 212 c 1,37,38
 84 228 84 228 112 242 c 0,39,40
 123 248 123 248 134 253.5 c 128,-1,41
 145 259 145 259 151 267 c 1,42,-1
 137 268 l 2,43,26
 126 268 126 268 115.5 263.5 c 128,-1,27
108 211 m 1,44,-1
 155 216 l 1,45,-1
 155 228 l 1,46,47
 136 216 136 216 108 211 c 1,44,-1
75 320 m 1,48,-1
 104 319 l 2,49,50
 112 319 112 319 129 323 c 1,51,52
 96 328 96 328 47 328 c 1,53,-1
 47 276 l 1,54,-1
 52 271 l 1,55,56
 58 271 58 271 94.5 287 c 128,-1,57
 131 303 131 303 134 306 c 1,58,59
 129 307 129 307 119 307.5 c 128,-1,60
 109 308 109 308 99 308 c 0,61,62
 75 310 75 310 75 320 c 1,48,-1
EndSplineSet
EndChar

StartChar: exclam
Encoding: 33 33 4
Width: 250
Flags: W
LayerCount: 2
Fore
SplineSet
128 -10 m 1,0,1
 118 -18 118 -18 102 -18 c 0,2,3
 63 -18 63 -18 61 -8 c 0,4,5
 56 17 56 17 56 27.5 c 128,-1,6
 56 38 56 38 57.5 51 c 128,-1,7
 59 64 59 64 62 77 c 0,8,9
 68 109 68 109 76 109 c 2,10,-1
 175 109 l 2,11,12
 178 109 178 109 178 104 c 1,13,14
 195 64 195 64 195 12 c 1,15,16
 195 12 195 12 194 4 c 1,17,-1
 194 -2 l 1,18,-1
 186 -10 l 1,19,-1
 128 -10 l 1,0,1
151 13 m 1,20,21
 154 20 154 20 168 20 c 1,22,23
 168 27 168 27 163 34 c 1,24,25
 149 12 149 12 102 12 c 1,26,27
 102 27 102 27 114 34.5 c 128,-1,28
 126 42 126 42 133 47 c 128,-1,29
 140 52 140 52 144 61 c 1,30,31
 135 55 135 55 123.5 52.5 c 128,-1,32
 112 50 112 50 102 46 c 0,33,34
 80 37 80 37 80 17.5 c 128,-1,35
 80 -2 80 -2 86 -2 c 2,36,-1
 156 6 l 1,37,38
 156 11 156 11 151 13 c 1,20,21
172 57 m 1,39,-1
 171 62 l 1,40,41
 160 62 160 62 145 47 c 128,-1,42
 130 32 130 32 128 29 c 1,43,44
 144 29 144 29 158 37.5 c 128,-1,45
 172 46 172 46 172 57 c 1,39,-1
116 76 m 0,46,47
 121 81 121 81 121 84.5 c 128,-1,48
 121 88 121 88 113 88 c 256,49,50
 105 88 105 88 93.5 81 c 128,-1,51
 82 74 82 74 82 60 c 2,52,-1
 82 56 l 1,53,54
 98 56 98 56 116 76 c 0,46,47
167 79 m 0,55,56
 167 85 167 85 158.5 85 c 128,-1,57
 150 85 150 85 137.5 79 c 128,-1,58
 125 73 125 73 123 65 c 1,59,-1
 128 65 l 1,60,61
 131 66 131 66 137 67.5 c 128,-1,62
 143 69 143 69 150 71 c 0,63,64
 167 76 167 76 167 79 c 0,55,56
152 166 m 2,65,-1
 110 165 l 2,66,67
 85 165 85 165 76 171 c 1,68,69
 70 194 70 194 70 222 c 1,70,-1
 72 276 l 1,71,72
 71 289 71 289 48 562 c 1,73,-1
 51 624 l 1,74,-1
 50 635 l 1,75,76
 50 649 50 649 62 649 c 1,77,-1
 159 662 l 1,78,-1
 183 661 l 1,79,80
 196 653 196 653 202 596 c 0,81,82
 203 580 203 580 203 567 c 128,-1,83
 203 554 203 554 199 532 c 128,-1,84
 195 510 195 510 190 484 c 0,85,86
 177 418 177 418 177 392 c 1,87,-1
 183 274 l 1,88,-1
 182 202 l 1,89,-1
 183 171 l 1,90,-1
 175 164 l 1,91,92
 165 166 165 166 152 166 c 2,65,-1
100 189 m 1,93,94
 103 182 103 182 124 182 c 2,95,-1
 131 182 l 2,96,97
 148 182 148 182 154.5 185 c 128,-1,98
 161 188 161 188 161 207 c 1,99,-1
 153 207 l 1,100,101
 153 212 153 212 156 212.5 c 128,-1,102
 159 213 159 213 159 220 c 256,103,104
 159 227 159 227 152 227 c 256,105,106
 145 227 145 227 144 223 c 1,107,108
 147 220 147 220 147 216.5 c 128,-1,109
 147 213 147 213 139.5 209.5 c 128,-1,110
 132 206 132 206 123.5 202 c 128,-1,111
 115 198 115 198 107.5 195 c 128,-1,112
 100 192 100 192 100 189 c 1,93,94
100 207 m 1,113,114
 115 207 115 207 120 215 c 128,-1,115
 125 223 125 223 136 231 c 1,116,-1
 131 231 l 2,117,118
 113 231 113 231 104.5 223.5 c 128,-1,119
 96 216 96 216 96 211 c 1,120,-1
 100 207 l 1,113,114
131 259 m 1,121,122
 111 239 111 239 96 235 c 1,123,-1
 96 231 l 1,124,125
 100 232 100 232 110.5 234.5 c 128,-1,126
 121 237 121 237 132 240 c 0,127,128
 160 248 160 248 160 258 c 0,129,130
 160 263 160 263 155 263 c 1,131,132
 137 259 137 259 131 254 c 1,133,-1
 131 259 l 1,121,122
100 260 m 2,134,135
 100 246 100 246 104 246 c 1,136,137
 112 258 112 258 125 262 c 128,-1,138
 138 266 138 266 147 278 c 1,139,140
 133 278 133 278 124 274 c 128,-1,141
 115 270 115 270 100 270 c 1,142,-1
 100 260 l 2,134,135
109 277 m 2,143,-1
 113 277 l 2,144,145
 131 277 131 277 145.5 289 c 128,-1,146
 160 301 160 301 160 318 c 1,147,148
 156 318 156 318 140 306 c 0,149,150
 110 285 110 285 108 278 c 0,151,152
 108 277 108 277 109 277 c 2,143,-1
96 281 m 1,153,154
 100 281 100 281 115 295 c 0,155,156
 145 321 145 321 145 327 c 1,157,158
 130 327 130 327 120 323.5 c 128,-1,159
 110 320 110 320 96 320 c 1,160,-1
 96 281 l 1,153,154
120 333 m 2,161,-1
 155 339 l 1,162,-1
 155 374 l 1,163,164
 146 374 146 374 140.5 366 c 128,-1,165
 135 358 135 358 132 354 c 128,-1,166
 129 350 129 350 123 350 c 1,167,168
 123 360 123 360 129 364 c 0,169,170
 141 372 141 372 141 378 c 1,171,172
 130 378 130 378 109 370 c 128,-1,173
 88 362 88 362 88 361 c 2,174,-1
 96 329 l 1,175,176
 103 334 103 334 104 338.5 c 128,-1,177
 105 343 105 343 113 348 c 1,178,179
 118 344 118 344 118 341 c 1,180,-1
 115 334 l 2,181,182
 115 333 115 333 120 333 c 2,161,-1
147.5 401.5 m 128,-1,184
 142 396 142 396 135.5 396 c 128,-1,185
 129 396 129 396 120 389 c 128,-1,186
 111 382 111 382 112 381 c 1,187,188
 140 381 140 381 150 389 c 128,-1,189
 160 397 160 397 160 401.5 c 128,-1,190
 160 406 160 406 159.5 408.5 c 128,-1,191
 159 411 159 411 159 412 c 1,192,183
 153 407 153 407 147.5 401.5 c 128,-1,184
92 384 m 1,193,194
 133 402 133 402 151 425 c 1,195,196
 146 422 146 422 135.5 420 c 128,-1,197
 125 418 125 418 114 416 c 0,198,199
 88 411 88 411 87.5 401 c 128,-1,200
 87 391 87 391 92 384 c 1,193,194
131 467 m 1,201,-1
 88 456 l 1,202,203
 83 447 83 447 83 424 c 1,204,205
 95 424 95 424 106.5 434 c 128,-1,206
 118 444 118 444 124.5 450 c 128,-1,207
 131 456 131 456 136 459 c 1,208,-1
 131 467 l 1,201,-1
163 472 m 1,209,210
 152 459 152 459 134.5 448.5 c 128,-1,211
 117 438 117 438 108 425 c 1,212,213
 134 425 134 425 150.5 434.5 c 128,-1,214
 167 444 167 444 167 472 c 1,215,-1
 163 472 l 1,209,210
84 472 m 2,216,217
 84 470 84 470 90.5 470 c 128,-1,218
 97 470 97 470 96.5 472 c 128,-1,219
 96 474 96 474 100 480 c 0,220,221
 105 488 105 488 117.5 489 c 128,-1,222
 130 490 130 490 134.5 492.5 c 128,-1,223
 139 495 139 495 139 503 c 1,224,225
 137 504 137 504 130 504 c 2,226,-1
 121 504 l 2,227,228
 102 504 102 504 91 498.5 c 128,-1,229
 80 493 80 493 80 492 c 2,230,-1
 84 472 l 2,216,217
163 500 m 2,231,232
 160 500 160 500 153 496 c 128,-1,233
 146 492 146 492 138 488 c 0,234,235
 123 479 123 479 116 472 c 1,236,237
 129 472 129 472 141 476.5 c 128,-1,238
 153 481 153 481 167 481 c 1,239,-1
 167 500 l 1,240,-1
 163 500 l 2,231,232
76 507 m 1,241,242
 96 507 96 507 96 518 c 0,243,244
 96 520 96 520 91 522.5 c 128,-1,245
 86 525 86 525 84 527 c 1,246,247
 82 527 82 527 77.5 524 c 128,-1,248
 73 521 73 521 72 519 c 1,249,250
 72 509 72 509 76 507 c 1,241,242
116 527 m 1,251,252
 120 524 120 524 123 515 c 1,253,-1
 163 515 l 1,254,-1
 171 507 l 1,255,-1
 175 529 l 2,256,257
 175 534 175 534 169.5 533.5 c 128,-1,258
 164 533 164 533 128 519 c 1,259,260
 127 520 127 520 127 522 c 2,261,-1
 127 527 l 2,262,263
 127 539 127 539 158 546 c 0,264,265
 165 548 165 548 167 550 c 1,266,-1
 175 542 l 1,267,-1
 175 578 l 1,268,-1
 163 578 l 2,269,270
 167 578 167 578 167 573.5 c 128,-1,271
 167 569 167 569 157.5 563 c 128,-1,272
 148 557 148 557 136.5 551 c 128,-1,273
 125 545 125 545 114 539.5 c 128,-1,274
 103 534 103 534 100 531 c 1,275,-1
 104 527 l 1,276,277
 111 534 111 534 115.5 534 c 128,-1,278
 120 534 120 534 120 532 c 128,-1,279
 120 530 120 530 116 527 c 1,251,252
76 562.5 m 128,-1,281
 72 561 72 561 72 555.5 c 128,-1,282
 72 550 72 550 80 547 c 1,283,284
 68 543 68 543 68 533 c 0,285,286
 68 532 68 532 68.5 530 c 128,-1,287
 69 528 69 528 69 527 c 1,288,289
 74 529 74 529 76.5 532 c 128,-1,290
 79 535 79 535 82.5 535 c 128,-1,291
 86 535 86 535 88 534 c 1,292,293
 92 537 92 537 102.5 542.5 c 128,-1,294
 113 548 113 548 124 554 c 0,295,296
 153 572 153 572 153 576 c 0,297,298
 153 578 153 578 142.5 582 c 128,-1,299
 132 586 132 586 128 586 c 256,300,301
 124 586 124 586 115 581 c 128,-1,302
 106 576 106 576 104 574 c 1,303,-1
 104 578 l 1,304,305
 102 572 102 572 91 568 c 128,-1,280
 80 564 80 564 76 562.5 c 128,-1,281
95 591 m 1,306,-1
 100 590 l 1,307,308
 104 591 104 591 114 599 c 0,309,310
 132 612 132 612 132 618.5 c 128,-1,311
 132 625 132 625 124 625 c 0,312,313
 96 625 96 625 79.5 619 c 128,-1,314
 63 613 63 613 63 582 c 1,315,316
 72 582 72 582 79.5 586.5 c 128,-1,317
 87 591 87 591 95 591 c 1,306,-1
79 629 m 1,318,-1
 120 634 l 1,319,320
 133 634 133 634 141.5 629.5 c 128,-1,321
 150 625 150 625 167 625 c 1,322,-1
 163 614 l 1,323,324
 155 611 155 611 141.5 603.5 c 128,-1,325
 128 596 128 596 128 594 c 1,326,-1
 144 594 l 1,327,-1
 139 590 l 1,328,-1
 173 590 l 1,329,-1
 173 625 l 1,330,-1
 178 630 l 1,331,332
 164 641 164 641 131 641 c 2,333,-1
 127 641 l 2,334,335
 93 641 93 641 84 633 c 1,336,-1
 84 638 l 1,337,338
 79 635 79 635 79 629 c 1,318,-1
EndSplineSet
EndChar

StartChar: quotedbl
Encoding: 34 34 5
Width: 399
Flags: W
LayerCount: 2
Fore
SplineSet
38 497 m 2,0,-1
 39 535 l 2,1,2
 39 567 39 567 30 603 c 128,-1,3
 21 639 21 639 21 672 c 1,4,-1
 53 674 l 1,5,-1
 87 682 l 1,6,7
 154 682 154 682 160 672 c 1,8,-1
 168 641 l 1,9,-1
 168 556 l 2,10,11
 168 554 168 554 164 543 c 128,-1,12
 160 532 160 532 159.5 523 c 128,-1,13
 159 514 159 514 158 504 c 0,14,15
 157 479 157 479 147 460 c 1,16,-1
 151 428 l 1,17,18
 151 398 151 398 143 382 c 128,-1,19
 135 366 135 366 130 366 c 1,20,-1
 116 370 l 1,21,22
 111 366 111 366 93.5 366 c 128,-1,23
 76 366 76 366 67.5 373 c 128,-1,24
 59 380 59 380 56.5 391.5 c 128,-1,25
 54 403 54 403 54 416.5 c 128,-1,26
 54 430 54 430 48 442 c 0,27,28
 38 463 38 463 38 497 c 2,0,-1
237 643 m 2,29,-1
 240 659 l 1,30,31
 245 663 245 663 271 663 c 2,32,-1
 299 663 l 2,33,34
 336 663 336 663 345 672 c 1,35,36
 356 670 356 670 359.5 654 c 128,-1,37
 363 638 363 638 363 611 c 128,-1,38
 363 584 363 584 358.5 538.5 c 128,-1,39
 354 493 354 493 354 448 c 1,40,-1
 358 410 l 1,41,42
 358 375 358 375 345 375 c 2,43,-1
 264 375 l 2,44,45
 254 375 254 375 254 406 c 1,46,-1
 255 432 l 1,47,-1
 250 551 l 1,48,-1
 238 633 l 2,49,50
 237 634 237 634 237 637 c 128,-1,51
 237 640 237 640 237 643 c 2,29,-1
99 392 m 1,52,53
 109 387 109 387 113 387 c 0,54,55
 118 387 118 387 118 401 c 1,56,57
 105 401 105 401 99 392 c 1,52,53
77 436 m 1,58,59
 77 429 77 429 80 412.5 c 128,-1,60
 83 396 83 396 91 392 c 1,61,62
 91 403 91 403 100.5 408 c 128,-1,63
 110 413 110 413 114 416.5 c 128,-1,64
 118 420 118 420 118 429 c 1,65,66
 107 429 107 429 98.5 432.5 c 128,-1,67
 90 436 90 436 77 436 c 1,58,59
332 401 m 1,68,69
 324 399 324 399 319 399 c 0,70,71
 298 399 298 399 298 420 c 0,72,73
 298 434 298 434 307.5 442 c 128,-1,74
 317 450 317 450 328 456 c 1,75,-1
 328 460 l 1,76,-1
 276 460 l 1,77,78
 276 424 276 424 281 396 c 1,79,-1
 311 395 l 2,80,81
 328 395 328 395 332 401 c 1,68,69
328 434 m 1,82,83
 322 433 322 433 317 428.5 c 128,-1,84
 312 424 312 424 312 417 c 1,85,-1
 333 417 l 1,86,87
 333 427 333 427 328 434 c 1,82,83
95 512 m 2,88,89
 115 512 115 512 115 504 c 1,90,-1
 124 504 l 1,91,92
 124 489 124 489 106 480 c 0,93,94
 84 470 84 470 78 460 c 1,95,96
 83 453 83 453 96.5 448 c 128,-1,97
 110 443 110 443 116 443 c 0,98,99
 120 443 120 443 134 486 c 1,100,-1
 133 515 l 2,101,102
 133 536 133 536 142 542 c 1,103,104
 142 547 142 547 138.5 547 c 128,-1,105
 135 547 135 547 127 542.5 c 128,-1,106
 119 538 119 538 110 532 c 0,107,108
 95 521 95 521 86 512 c 1,109,-1
 95 512 l 2,88,89
104 495 m 1,110,111
 84 500 84 500 75 500 c 128,-1,112
 66 500 66 500 65 491 c 1,113,114
 65 474 65 474 72 472 c 1,115,116
 82 479 82 479 87.5 483 c 128,-1,117
 93 487 93 487 98 490.5 c 128,-1,118
 103 494 103 494 104 495 c 1,110,111
302 478 m 1,119,120
 308 472 308 472 328 472 c 1,121,-1
 328 483 l 1,122,-1
 321 483 l 2,123,124
 302 483 302 483 302 478 c 1,119,120
276 481 m 1,125,126
 328 502 328 502 328 504 c 2,127,-1
 328 509 l 1,128,-1
 312 509 l 2,129,130
 276 509 276 509 276 504 c 2,131,-1
 276 481 l 1,125,126
121 551 m 1,132,133
 116 556 116 556 105 556 c 128,-1,134
 94 556 94 556 69 542 c 1,135,-1
 69 521 l 1,136,137
 97 534 97 534 121 551 c 1,132,133
332 542 m 1,138,139
 324 540 324 540 313 533.5 c 128,-1,140
 302 527 302 527 302 525 c 1,141,-1
 332 525 l 1,142,-1
 332 542 l 1,138,139
322 559 m 1,143,-1
 276 556 l 1,144,-1
 276 533 l 1,145,146
 290 533 290 533 307.5 540.5 c 128,-1,147
 325 548 325 548 332 559 c 1,148,-1
 322 559 l 1,143,-1
65 599 m 1,149,-1
 130 607 l 1,150,151
 143 607 143 607 143 601.5 c 128,-1,152
 143 596 143 596 134 590 c 0,153,154
 129 587 129 587 91 568 c 1,155,-1
 142 564 l 1,156,157
 149 592 149 592 149 650 c 1,158,-1
 134 650 l 1,159,-1
 142 641 l 1,160,161
 135 629 135 629 113 622.5 c 128,-1,162
 91 616 91 616 80 611.5 c 128,-1,163
 69 607 69 607 65 599 c 1,149,-1
94 594 m 0,164,165
 60 594 60 594 60 583 c 0,166,167
 60 578 60 578 65 568 c 1,168,169
 86 576 86 576 99 584.5 c 128,-1,170
 112 593 112 593 112 594 c 1,171,172
 103 594 103 594 94 594 c 0,164,165
319 611 m 1,173,-1
 308 612 l 1,174,175
 282 612 282 612 263 599 c 1,176,177
 267 577 267 577 272 568 c 1,178,179
 282 576 282 576 298.5 587.5 c 128,-1,180
 315 599 315 599 319 611 c 1,173,-1
311 577 m 1,181,182
 315 575 315 575 324 575 c 128,-1,183
 333 575 333 575 335 583.5 c 128,-1,184
 337 592 337 592 337 603 c 1,185,-1
 311 577 l 1,181,182
95 659 m 1,186,187
 83 663 83 663 75 663 c 0,188,189
 55 663 55 663 43 659 c 1,190,191
 48 648 48 648 48.5 634.5 c 128,-1,192
 49 621 49 621 57 611 c 1,193,194
 85 628 85 628 116 637 c 1,195,-1
 111 637 l 2,196,197
 110 637 110 637 104 637.5 c 128,-1,198
 98 638 98 638 87.5 633 c 128,-1,199
 77 628 77 628 70.5 628 c 128,-1,200
 64 628 64 628 61 628.5 c 128,-1,201
 58 629 58 629 57 629 c 1,202,203
 59 638 59 638 68 643 c 1,204,205
 89 652 89 652 95 659 c 1,186,187
333.5 641 m 128,-1,207
 326 642 326 642 316 642 c 0,208,209
 294 642 294 642 276 620 c 1,210,-1
 281 620 l 1,211,212
 299 622 299 622 320 626.5 c 128,-1,213
 341 631 341 631 341 633 c 0,214,206
 341 640 341 640 333.5 641 c 128,-1,207
259 650 m 2,215,216
 254 650 254 650 254 641.5 c 128,-1,217
 254 633 254 633 264 629 c 1,218,-1
 259 629 l 1,219,220
 275 633 275 633 285 646 c 1,221,-1
 259 650 l 2,215,216
108 650 m 1,222,-1
 121 655 l 1,223,-1
 108 655 l 1,224,-1
 108 650 l 1,222,-1
EndSplineSet
EndChar

StartChar: numbersign
Encoding: 35 35 6
Width: 716
Flags: W
LayerCount: 2
Fore
SplineSet
382 -31 m 1,0,-1
 383 -34 l 1,1,2
 383 -41 383 -41 373 -47 c 128,-1,3
 363 -53 363 -53 356.5 -53 c 128,-1,4
 350 -53 350 -53 338.5 -50 c 128,-1,5
 327 -47 327 -47 315 -43 c 0,6,7
 284 -32 284 -32 270 -31 c 1,8,9
 261 -26 261 -26 261 -14 c 1,10,11
 268 9 268 9 276 19 c 0,12,13
 303 51 303 51 319.5 99.5 c 128,-1,14
 336 148 336 148 356 180 c 1,15,-1
 352 185 l 1,16,17
 332 180 332 180 326 180 c 128,-1,18
 320 180 320 180 308 179.5 c 128,-1,19
 296 179 296 179 284 178 c 0,20,21
 253 177 253 177 253 171 c 1,22,23
 245 145 245 145 241 116.5 c 128,-1,24
 237 88 237 88 227 63 c 1,25,26
 213 41 213 41 203 14 c 0,27,28
 185 -35 185 -35 180 -40 c 1,29,30
 160 -38 160 -38 144 -35 c 128,-1,31
 128 -32 128 -32 107 -32 c 128,-1,32
 86 -32 86 -32 67 -40 c 1,33,34
 54 -40 54 -40 54 -25.5 c 128,-1,35
 54 -11 54 -11 61 11 c 128,-1,36
 68 33 68 33 78 56 c 128,-1,37
 88 79 88 79 98 101 c 128,-1,38
 108 123 108 123 112 134.5 c 128,-1,39
 116 146 116 146 122 156.5 c 128,-1,40
 128 167 128 167 128 174 c 256,41,42
 128 181 128 181 108 181 c 2,43,-1
 68 179 l 1,44,45
 33 179 33 179 28 193 c 1,46,47
 30 229 30 229 46 257 c 0,48,49
 77 308 77 308 95 308 c 2,50,-1
 102 308 l 2,51,52
 128 308 128 308 128 314 c 1,53,-1
 183 314 l 2,54,55
 185 314 185 314 192 333 c 0,56,57
 204 369 204 369 209 378 c 1,58,-1
 154 383 l 1,59,-1
 122 382 l 2,60,61
 108 382 108 382 104.5 383 c 128,-1,62
 101 384 101 384 101 389 c 128,-1,63
 101 394 101 394 105 403 c 128,-1,64
 109 412 109 412 115 424 c 0,65,66
 131 458 131 458 136 486 c 1,67,-1
 140 491 l 1,68,69
 144 491 144 491 178 493.5 c 128,-1,70
 212 496 212 496 270 499 c 1,71,-1
 274 503 l 1,72,73
 278 528 278 528 290 549.5 c 128,-1,74
 302 571 302 571 312 596 c 128,-1,75
 322 621 322 621 327.5 646 c 128,-1,76
 333 671 333 671 347 693 c 1,77,78
 375 688 375 688 397 688 c 1,79,-1
 445 693 l 2,80,81
 447 693 447 693 450 689.5 c 128,-1,82
 453 686 453 686 455 684 c 1,83,84
 438 655 438 655 426 608.5 c 128,-1,85
 414 562 414 562 404.5 537 c 128,-1,86
 395 512 395 512 378 491 c 1,87,-1
 399 491 l 2,88,89
 440 491 440 491 468 486 c 1,90,91
 526 582 526 582 537 680 c 1,92,93
 544 685 544 685 561 685 c 128,-1,94
 578 685 578 685 589.5 681.5 c 128,-1,95
 601 678 601 678 621 678 c 1,96,-1
 640 658 l 1,97,98
 584 562 584 562 584 508 c 0,99,100
 584 487 584 487 684 465 c 1,101,102
 684 449 684 449 678 438 c 0,103,104
 667 415 667 415 666 404 c 1,105,-1
 670 392 l 1,106,107
 670 377 670 377 577 377 c 1,108,-1
 545 378 l 1,109,110
 545 338 545 338 533 314 c 1,111,112
 555 308 555 308 577 303.5 c 128,-1,113
 599 299 599 299 616 294 c 0,114,115
 653 284 653 284 653 269 c 0,116,117
 653 258 653 258 647 253 c 128,-1,118
 641 248 641 248 632 240 c 0,119,120
 607 218 607 218 597 180 c 1,121,122
 594 179 594 179 591 179 c 2,123,-1
 582 179 l 2,124,125
 559 179 559 179 541.5 182.5 c 128,-1,126
 524 186 524 186 507 186 c 128,-1,127
 490 186 490 186 468 180 c 1,128,129
 460 164 460 164 453.5 151 c 128,-1,130
 447 138 447 138 443 128.5 c 128,-1,131
 439 119 439 119 437 115 c 1,132,133
 437 86 437 86 422 55 c 2,134,-1
 397 6 l 2,135,136
 388 -12 388 -12 382 -31 c 1,0,-1
295 -9 m 1,137,138
 300 -9 300 -9 314 -14 c 0,139,140
 338 -23 338 -23 344.5 -23 c 128,-1,141
 351 -23 351 -23 352 -22 c 2,142,-1
 369 12 l 1,143,-1
 364 12 l 2,144,145
 341 12 341 12 318 3 c 128,-1,146
 295 -6 295 -6 295 -9 c 1,137,138
158 -5 m 1,147,148
 151 -7 151 -7 138.5 -8.5 c 128,-1,149
 126 -10 126 -10 123 -18 c 1,150,-1
 153 -18 l 1,151,152
 155 -22 155 -22 161 -22 c 1,153,-1
 158 -5 l 1,147,148
175 31 m 1,154,155
 172 29 172 29 140 21 c 1,156,157
 138 24 138 24 137 24 c 2,158,-1
 126 20 l 1,159,160
 126 24 126 24 131 29 c 1,161,-1
 107 25 l 2,162,163
 103 25 103 25 102 29 c 1,164,165
 89 19 89 19 89 4 c 1,166,167
 100 12 100 12 119 12 c 1,168,169
 97 7 97 7 89 -5 c 1,170,171
 99 -10 99 -10 106.5 -10 c 128,-1,172
 114 -10 114 -10 124.5 -3.5 c 128,-1,173
 135 3 135 3 142 3 c 2,174,-1
 149 2 l 1,175,176
 162 2 162 2 170 10 c 1,177,178
 200 46 200 46 208 95 c 0,179,180
 221 171 221 171 240 176 c 1,181,182
 239 176 239 176 233.5 176.5 c 128,-1,183
 228 177 228 177 222.5 168 c 128,-1,184
 217 159 217 159 210.5 155 c 128,-1,185
 204 151 204 151 195 148.5 c 128,-1,186
 186 146 186 146 176 142 c 0,187,188
 152 134 152 134 145 124 c 1,189,190
 158 126 158 126 167.5 129.5 c 128,-1,191
 177 133 177 133 183.5 133 c 128,-1,192
 190 133 190 133 193 131.5 c 128,-1,193
 196 130 196 130 201 128 c 1,194,195
 192 105 192 105 142 86 c 0,196,197
 130 81 130 81 123 77 c 1,198,-1
 166 77 l 2,199,200
 168 77 168 77 174 72.5 c 128,-1,201
 180 68 180 68 180 66 c 0,202,203
 180 60 180 60 158 53 c 0,204,205
 114 41 114 41 110 34 c 1,206,207
 144 38 144 38 159.5 38 c 128,-1,208
 175 38 175 38 175 31 c 1,154,155
390 63 m 1,209,210
 331 55 331 55 308 30 c 0,211,212
 300 20 300 20 300 8 c 1,213,214
 317 11 317 11 352 35 c 128,-1,215
 387 59 387 59 390 63 c 1,209,210
330 16 m 1,216,217
 369 16 369 16 378 37 c 1,218,-1
 373 37 l 1,219,-1
 330 16 l 1,216,217
138 64 m 2,220,-1
 127 64 l 2,221,222
 111 64 111 64 106 46 c 1,223,-1
 145 63 l 1,224,225
 143 64 143 64 138 64 c 2,220,-1
334 55 m 1,226,-1
 390 72 l 2,227,228
 400 75 400 75 402 80 c 128,-1,229
 404 85 404 85 408 98 c 1,230,-1
 338 60 l 1,231,-1
 334 55 l 1,226,-1
338 86 m 1,232,233
 338 84 338 84 333.5 75.5 c 128,-1,234
 329 67 329 67 329 62 c 1,235,236
 340 62 340 62 360 78 c 1,237,238
 400 107 400 107 408 112 c 1,239,-1
 404 112 l 1,240,-1
 338 86 l 1,232,233
171 115 m 2,241,-1
 131 112 l 1,242,-1
 127 93 l 1,243,244
 133 93 133 93 147 101 c 0,245,246
 171 116 171 116 171 115 c 2,241,-1
427 159 m 1,247,248
 375 144 375 144 361 130 c 128,-1,249
 347 116 347 116 347 103 c 1,250,251
 365 120 365 120 386.5 132.5 c 128,-1,252
 408 145 408 145 427 159 c 1,247,248
420 141 m 1,253,254
 383 127 383 127 373 112 c 1,255,256
 412 118 412 118 420 141 c 1,253,254
160 179 m 1,257,258
 156 179 156 179 153.5 169.5 c 128,-1,259
 151 160 151 160 151 157 c 1,260,261
 165 160 165 160 194.5 178.5 c 128,-1,262
 224 197 224 197 224 199 c 1,263,-1
 160 179 l 1,257,258
399 202 m 2,264,265
 384 195 384 195 376.5 180 c 128,-1,266
 369 165 369 165 364 150 c 1,267,268
 394 162 394 162 431 190 c 0,269,270
 491 234 491 234 503 249 c 1,271,-1
 399 202 l 2,264,265
90 200 m 128,-1,273
 117 197 117 197 121 197 c 128,-1,274
 125 197 125 197 141 203 c 128,-1,275
 157 209 157 209 174 217 c 0,276,277
 216 237 216 237 218 249 c 1,278,279
 204 245 204 245 191.5 245.5 c 128,-1,280
 179 246 179 246 166 244 c 1,281,282
 146 236 146 236 122.5 223.5 c 128,-1,283
 99 211 99 211 75 211 c 1,284,285
 79 215 79 215 87 227.5 c 128,-1,286
 95 240 95 240 106 248 c 1,287,288
 110 248 110 248 127 260 c 0,289,290
 161 285 161 285 166 288 c 1,291,-1
 157 292 l 1,292,-1
 98 292 l 2,293,294
 93 292 93 292 78 252 c 128,-1,295
 63 212 63 212 63 207.5 c 128,-1,272
 63 203 63 203 90 200 c 128,-1,273
265 202 m 1,296,297
 275 197 275 197 283.5 197 c 128,-1,298
 292 197 292 197 299 199.5 c 128,-1,299
 306 202 306 202 311 206 c 128,-1,300
 316 210 316 210 321.5 214.5 c 128,-1,301
 327 219 327 219 338 223 c 1,302,303
 355 236 355 236 366 246 c 0,304,305
 383 261 383 261 404 279 c 1,306,307
 399 279 399 279 370 268 c 0,308,309
 311 246 311 246 300 232 c 1,310,-1
 308 232 l 1,311,312
 308 224 308 224 296 218 c 1,313,-1
 276 210 l 2,314,315
 269 207 269 207 265 202 c 1,296,297
507 206 m 1,316,317
 528 199 528 199 541.5 199 c 128,-1,318
 555 199 555 199 570 207 c 128,-1,319
 585 215 585 215 585 244 c 1,320,321
 557 238 557 238 533 224 c 128,-1,322
 509 210 509 210 507 206 c 1,316,317
451 253 m 2,323,324
 431 253 431 253 357 214 c 0,325,326
 341 205 341 205 338 202 c 1,327,-1
 378 202 l 1,328,329
 397 221 397 221 414.5 229.5 c 128,-1,330
 432 238 432 238 455 253 c 1,331,-1
 451 253 l 2,323,324
245 262 m 1,332,333
 257 262 257 262 257 253 c 0,334,335
 257 245 257 245 231 234 c 128,-1,336
 205 223 205 223 192 218 c 128,-1,337
 179 213 179 213 175 211 c 1,338,-1
 175 205 l 1,339,340
 192 211 192 211 211 214.5 c 128,-1,341
 230 218 230 218 246 222 c 0,342,343
 284 233 284 233 287 253 c 1,344,345
 318 266 318 266 338 284 c 1,346,-1
 326 285 l 2,347,348
 318 285 318 285 311.5 284 c 128,-1,349
 305 283 305 283 300 275 c 1,350,351
 296 283 296 283 296 293 c 128,-1,352
 296 303 296 303 300.5 316.5 c 128,-1,353
 305 330 305 330 311 345 c 0,354,355
 326 383 326 383 338 387 c 1,356,357
 336 392 336 392 326 392 c 1,358,359
 326 388 326 388 314 378.5 c 128,-1,360
 302 369 302 369 300 369 c 1,361,-1
 296 374 l 1,362,363
 289 368 289 368 279.5 365 c 128,-1,364
 270 362 270 362 260 359 c 0,365,366
 238 352 238 352 231 340 c 1,367,368
 246 340 246 340 260 344.5 c 128,-1,369
 274 349 274 349 287 349 c 128,-1,370
 300 349 300 349 300 337 c 0,371,372
 300 322 300 322 238 306 c 0,373,374
 225 302 225 302 222 302 c 128,-1,375
 219 302 219 302 216.5 300 c 128,-1,376
 214 298 214 298 210.5 296 c 128,-1,377
 207 294 207 294 205 292 c 1,378,-1
 209 292 l 1,379,380
 220 294 220 294 228 295.5 c 128,-1,381
 236 297 236 297 244 298.5 c 128,-1,382
 252 300 252 300 257 301 c 1,383,384
 266 292 266 292 266 290 c 1,385,386
 228 267 228 267 183 258 c 1,387,-1
 197 257 l 1,388,-1
 245 262 l 1,332,333
533 237 m 1,389,390
 533 227 533 227 528 227 c 1,391,392
 538 227 538 227 547 238.5 c 128,-1,393
 556 250 556 250 563.5 252.5 c 128,-1,394
 571 255 571 255 584 260 c 128,-1,395
 597 265 597 265 602 266 c 1,396,-1
 606 275 l 1,397,398
 587 277 587 277 576 288 c 1,399,400
 571 286 571 286 569.5 280.5 c 128,-1,401
 568 275 568 275 563 270 c 1,402,403
 552 262 552 262 538.5 252 c 128,-1,404
 525 242 525 242 512 233 c 0,405,406
 478 211 478 211 472 211 c 1,407,-1
 477 210 l 1,408,409
 489 210 489 210 507 220 c 128,-1,410
 525 230 525 230 533 237 c 1,389,390
468 305 m 1,411,-1
 460 306 l 1,412,413
 448 306 448 306 443.5 299 c 128,-1,414
 439 292 439 292 429 285 c 1,415,-1
 395 253 l 1,416,417
 395 250 395 250 399 250 c 1,418,-1
 451 266 l 1,419,-1
 460 262 l 1,420,421
 465 268 465 268 480.5 276 c 128,-1,422
 496 284 496 284 504 284 c 128,-1,423
 512 284 512 284 512 279 c 256,424,425
 512 274 512 274 503 262 c 1,426,427
 518 262 518 262 536 271.5 c 128,-1,428
 554 281 554 281 554 285 c 0,429,430
 554 290 554 290 529 293.5 c 128,-1,431
 504 297 504 297 489.5 299 c 128,-1,432
 475 301 475 301 468 305 c 1,411,-1
138 250 m 1,433,434
 160 250 160 250 166 259 c 1,435,436
 166 262 166 262 163.5 265.5 c 128,-1,437
 161 269 161 269 158.5 268 c 128,-1,438
 156 267 156 267 148 261 c 128,-1,439
 140 255 140 255 138 250 c 1,433,434
175 275 m 1,440,441
 177 270 177 270 184 270 c 128,-1,442
 191 270 191 270 197 275 c 1,443,444
 195 279 195 279 189 279 c 128,-1,445
 183 279 183 279 175 275 c 1,440,441
421 377 m 1,446,-1
 349 383 l 2,447,448
 346 383 346 383 340 362 c 0,449,450
 329 325 329 325 321 305 c 1,451,-1
 377 305 l 1,452,-1
 378 301 l 1,453,-1
 373 292 l 1,454,455
 385 308 385 308 399 310 c 1,456,457
 404 324 404 324 412.5 343 c 128,-1,458
 421 362 421 362 421 377 c 1,446,-1
478 331 m 2,459,460
 433 331 433 331 433 311 c 0,461,462
 433 310 433 310 433.5 308 c 128,-1,463
 434 306 434 306 434 305 c 1,464,465
 445 311 445 311 463 315.5 c 128,-1,466
 481 320 481 320 489 331 c 1,467,-1
 478 331 l 2,459,460
222 331 m 1,468,469
 220 328 220 328 216 323 c 128,-1,470
 212 318 212 318 212 314.5 c 128,-1,471
 212 311 212 311 213 310 c 1,472,-1
 218 310 l 1,473,-1
 270 331 l 1,474,475
 254 331 254 331 247 328.5 c 128,-1,476
 240 326 240 326 232 326 c 128,-1,477
 224 326 224 326 222 331 c 1,468,469
483 309 m 1,478,479
 499 309 499 309 499 315 c 0,480,481
 499 317 499 317 498 318 c 1,482,-1
 477 310 l 1,483,-1
 483 309 l 1,478,479
526 400 m 2,484,485
 498 400 498 400 498 390 c 0,486,487
 498 384 498 384 511 378 c 1,488,489
 500 365 500 365 486 358 c 128,-1,490
 472 351 472 351 460 340 c 1,491,-1
 468 339 l 1,492,493
 482 339 482 339 491 341.5 c 128,-1,494
 500 344 500 344 515 348 c 1,495,496
 517 361 517 361 522 374 c 128,-1,497
 527 387 527 387 529 393 c 128,-1,498
 531 399 531 399 533 400 c 1,499,-1
 526 400 l 2,484,485
460 405 m 2,500,501
 464 405 464 405 464 399 c 128,-1,502
 464 393 464 393 459.5 387 c 128,-1,503
 455 381 455 381 450 374 c 0,504,505
 436 352 436 352 436 347.5 c 128,-1,506
 436 343 436 343 437 343 c 0,507,508
 455 343 455 343 480 368 c 0,509,510
 486 374 486 374 486 376.5 c 128,-1,511
 486 379 486 379 479 380 c 128,-1,512
 472 381 472 381 472 383 c 0,513,514
 472 387 472 387 485 394 c 128,-1,515
 498 401 498 401 507 417 c 1,516,-1
 442 417 l 1,517,-1
 437 421 l 1,518,-1
 486 443 l 1,519,-1
 489 451 l 1,520,521
 431 433 431 433 356 404 c 1,522,-1
 373 395 l 1,523,-1
 460 405 l 2,500,501
276 387 m 1,524,525
 254 386 254 386 241 381 c 128,-1,526
 228 376 228 376 222 352 c 1,527,528
 233 352 233 352 246 360.5 c 128,-1,529
 259 369 259 369 265.5 372.5 c 128,-1,530
 272 376 272 376 282.5 380.5 c 128,-1,531
 293 385 293 385 296 387 c 1,532,-1
 276 387 l 1,524,525
240 475 m 1,533,-1
 183 473 l 2,534,535
 169 472 169 472 165 471 c 128,-1,536
 161 470 161 470 155.5 456.5 c 128,-1,537
 150 443 150 443 147 436.5 c 128,-1,538
 144 430 144 430 144 417 c 2,539,-1
 144 413 l 2,540,541
 144 411 144 411 145 409 c 1,542,543
 151 414 151 414 159 422.5 c 128,-1,544
 167 431 167 431 175 431 c 128,-1,545
 183 431 183 431 188 426 c 1,546,-1
 157 404 l 1,547,548
 162 395 162 395 177 395 c 128,-1,549
 192 395 192 395 207 397 c 128,-1,550
 222 399 222 399 238 402 c 0,551,552
 278 411 278 411 283 421 c 1,553,554
 280 420 280 420 272 419 c 128,-1,555
 264 418 264 418 256 416 c 0,556,557
 236 413 236 413 233 413 c 2,558,-1
 223 414 l 1,559,560
 223 425 223 425 257 441 c 128,-1,561
 291 457 291 457 308 464.5 c 128,-1,562
 325 472 325 472 330 477 c 1,563,564
 300 477 300 477 234 448 c 0,565,566
 216 441 216 441 205 435 c 1,567,568
 202 437 202 437 196 439 c 128,-1,569
 190 441 190 441 190 442.5 c 128,-1,570
 190 444 190 444 201 448 c 128,-1,571
 212 452 212 452 224 456 c 0,572,573
 259 469 259 469 259 473 c 0,574,575
 259 475 259 475 254 475 c 2,576,-1
 240 475 l 1,533,-1
550 400 m 1,577,-1
 580 395 l 1,578,579
 644 395 644 395 644 426 c 1,580,581
 638 421 638 421 607.5 416 c 128,-1,582
 577 411 577 411 564 408 c 128,-1,583
 551 405 551 405 550 400 c 1,577,-1
334 443 m 2,584,-1
 338 434 l 1,585,586
 334 422 334 422 316 417 c 2,587,-1
 286 408 l 2,588,589
 274 404 274 404 265 400 c 1,590,-1
 282 400 l 2,591,592
 296 400 296 400 304 402 c 128,-1,593
 312 404 312 404 317.5 409.5 c 128,-1,594
 323 415 323 415 334 422.5 c 128,-1,595
 345 430 345 430 357 438.5 c 128,-1,596
 369 447 369 447 379 454 c 2,597,-1
 388 461 l 1,598,599
 374 461 374 461 354 452.5 c 128,-1,600
 334 444 334 444 334 443 c 2,584,-1
369 434 m 1,601,-1
 366 435 l 2,602,603
 364 435 364 435 361.5 428.5 c 128,-1,604
 359 422 359 422 343 417 c 1,605,-1
 343 413 l 1,606,-1
 347 413 l 1,607,-1
 365 419 l 2,608,609
 407 433 407 433 434 445 c 128,-1,610
 461 457 461 457 463 460 c 1,611,612
 456 465 456 465 441 465 c 2,613,-1
 434 465 l 1,614,-1
 369 434 l 1,601,-1
658 447 m 1,615,616
 658 460 658 460 643.5 460 c 128,-1,617
 629 460 629 460 619.5 456 c 128,-1,618
 610 452 610 452 601 448 c 0,619,620
 576 435 576 435 563 435 c 1,621,-1
 563 439 l 1,622,-1
 541 417 l 1,623,-1
 644 439 l 1,624,625
 645 438 645 438 648.5 438 c 128,-1,626
 652 438 652 438 658 447 c 1,615,616
374 474 m 0,627,628
 358 474 358 474 316.5 455 c 128,-1,629
 275 436 275 436 261 430 c 1,630,631
 282 430 282 430 300.5 439.5 c 128,-1,632
 319 449 319 449 338 456 c 1,633,-1
 382 469 l 1,634,635
 379 474 379 474 374 474 c 0,627,628
614 465 m 1,636,-1
 580 473 l 1,637,-1
 498 434 l 1,638,639
 517 434 517 434 537 430 c 1,640,-1
 541 430 l 1,641,642
 552 441 552 441 574 450.5 c 128,-1,643
 596 460 596 460 614 460 c 1,644,-1
 614 465 l 1,636,-1
550 503 m 1,645,646
 517 492 517 492 511 482 c 1,647,-1
 523 482 l 2,648,649
 534 482 534 482 542.5 484.5 c 128,-1,650
 551 487 551 487 551 499 c 1,651,-1
 550 501 l 1,652,-1
 550 503 l 1,645,646
354 517 m 1,653,654
 347 517 347 517 333 509 c 0,655,656
 309 495 309 495 304 495 c 2,657,-1
 352 495 l 1,658,-1
 354 517 l 1,653,654
541 521 m 1,659,-1
 528 522 l 2,660,661
 517 522 517 522 510 514 c 128,-1,662
 503 506 503 506 503 495 c 1,663,664
 522 514 522 514 541 521 c 1,659,-1
341 533 m 2,665,666
 330 533 330 533 316 528 c 128,-1,667
 302 523 302 523 302 518 c 0,668,669
 302 517 302 517 302.5 515 c 128,-1,670
 303 513 303 513 303 512 c 1,671,672
 314 517 314 517 328.5 522.5 c 128,-1,673
 343 528 343 528 346 533 c 1,674,-1
 341 533 l 2,665,666
576 568 m 1,675,676
 565 558 565 558 549.5 554.5 c 128,-1,677
 534 551 534 551 524 538 c 1,678,679
 576 538 576 538 576 568 c 1,675,676
399 583 m 1,680,681
 382 581 382 581 361 569 c 128,-1,682
 340 557 340 557 330 544 c 1,683,-1
 373 544 l 2,684,685
 379 544 379 544 385 556 c 2,686,-1
 394 574 l 2,687,688
 397 580 397 580 399 583 c 1,680,681
356 590 m 1,689,690
 345 590 345 590 333 583 c 128,-1,691
 321 576 321 576 321 559 c 1,692,693
 350 572 350 572 360 585 c 1,694,-1
 356 590 l 1,689,690
554 572 m 1,695,696
 552 576 552 576 544 576 c 128,-1,697
 536 576 536 576 536 568 c 2,698,-1
 536 566 l 2,699,700
 536 565 536 565 537 564 c 1,701,-1
 554 572 l 1,695,696
567 590 m 1,702,-1
 580 585 l 1,703,704
 588 593 588 593 591 620 c 1,705,706
 577 620 577 620 550 590 c 0,707,708
 544 584 544 584 541 581 c 1,709,710
 556 590 556 590 567 590 c 1,702,-1
405 632 m 1,711,712
 388 632 388 632 378 624 c 2,713,-1
 362 610 l 2,714,715
 356 605 356 605 347 602 c 1,716,-1
 352 602 l 2,717,718
 368 602 368 602 386 606.5 c 128,-1,719
 404 611 404 611 405 632 c 1,711,712
554 667 m 1,720,721
 549 654 549 654 547.5 636 c 128,-1,722
 546 618 546 618 545 607 c 1,723,-1
 576 628 l 1,724,725
 571 630 571 630 571 635.5 c 128,-1,726
 571 641 571 641 577 643.5 c 128,-1,727
 583 646 583 646 592 648 c 0,728,729
 614 651 614 651 618 658 c 1,730,731
 610 660 610 660 599 661 c 128,-1,732
 588 662 588 662 577 664 c 128,-1,733
 566 666 566 666 554 667 c 1,720,721
352 637 m 2,734,735
 346 637 346 637 346 614 c 1,736,737
 352 614 352 614 362.5 624 c 128,-1,738
 373 634 373 634 378 637 c 1,739,-1
 352 637 l 2,734,735
426 673 m 1,740,741
 412 673 412 673 408 667 c 1,742,-1
 408 672 l 1,743,744
 399 666 399 666 386 664 c 0,745,746
 363 659 363 659 356 649 c 1,747,-1
 386 649 l 1,748,-1
 390 646 l 1,749,750
 395 659 395 659 407 659 c 2,751,-1
 412 659 l 2,752,753
 416 659 416 659 420 658 c 1,754,755
 422 662 422 662 424 665 c 128,-1,756
 426 668 426 668 426 673 c 1,740,741
EndSplineSet
EndChar

StartChar: dollar
Encoding: 36 36 7
Width: 506
Flags: W
LayerCount: 2
Fore
SplineSet
354 492 m 1,0,-1
 378 500 l 1,1,-1
 378 508 l 1,2,-1
 397 535 l 1,3,-1
 392 552 l 1,4,5
 407 552 407 552 412 548 c 1,6,-1
 417 457 l 1,7,8
 417 434 417 434 411 429.5 c 128,-1,9
 405 425 405 425 397.5 425 c 128,-1,10
 390 425 390 425 379.5 430 c 128,-1,11
 369 435 369 435 356 441 c 0,12,13
 320 457 320 457 290 459 c 1,14,-1
 290 472 l 1,15,-1
 235 472 l 1,16,17
 234 467 234 467 220 467 c 1,18,-1
 220 472 l 1,19,-1
 214 472 l 2,20,21
 196 472 196 472 196 460 c 1,22,-1
 179 465 l 1,23,24
 178 464 178 464 177 464 c 2,25,-1
 174 464 l 1,26,27
 174 412 174 412 237 396 c 0,28,29
 261 390 261 390 281 388 c 128,-1,30
 301 386 301 386 303 382 c 1,31,32
 303 386 303 386 313 386 c 128,-1,33
 323 386 323 386 341.5 379 c 128,-1,34
 360 372 360 372 376 363 c 0,35,36
 417 341 417 341 417 335 c 1,37,-1
 425 330 l 1,38,39
 435 330 435 330 450 307 c 0,40,41
 476 265 476 265 476 239 c 0,42,43
 476 209 476 209 462 172 c 0,44,45
 435 101 435 101 417 94 c 1,46,47
 410 87 410 87 390.5 82.5 c 128,-1,48
 371 78 371 78 361 78 c 128,-1,49
 351 78 351 78 327.5 68.5 c 128,-1,50
 304 59 304 59 290 54 c 1,51,52
 296 42 296 42 296.5 29 c 128,-1,53
 297 16 297 16 303 14 c 1,54,55
 298 14 298 14 298 11 c 0,56,57
 298 0 298 0 304.5 -12.5 c 128,-1,58
 311 -25 311 -25 311 -37 c 1,59,-1
 243 -37 l 1,60,-1
 239 -33 l 1,61,62
 227 -41 227 -41 219 -41 c 128,-1,63
 211 -41 211 -41 207 -29.5 c 128,-1,64
 203 -18 203 -18 200 -3 c 0,65,66
 192 29 192 29 192 39 c 0,67,68
 192 54 192 54 200 58 c 2,69,-1
 192 54 l 1,70,-1
 192 67 l 1,71,72
 191 67 191 67 191 66.5 c 128,-1,73
 191 66 191 66 190 66 c 2,74,-1
 189 66 l 1,75,76
 189 67 189 67 160 74 c 1,77,-1
 124 74 l 1,78,79
 123 79 123 79 106 79 c 2,80,-1
 96 79 l 2,81,82
 82 79 82 79 69.5 82 c 128,-1,83
 57 85 57 85 57 102 c 1,84,-1
 62 171 l 1,85,-1
 57 206 l 1,86,87
 57 215 57 215 59.5 221.5 c 128,-1,88
 62 228 62 228 69.5 228 c 128,-1,89
 77 228 77 228 77.5 226.5 c 128,-1,90
 78 225 78 225 79 225 c 128,-1,91
 80 225 80 225 85 228 c 1,92,93
 92 228 92 228 118 213.5 c 128,-1,94
 144 199 144 199 148 196 c 1,95,96
 144 193 144 193 144 192 c 256,97,98
 144 191 144 191 147.5 190 c 128,-1,99
 151 189 151 189 154 188 c 0,100,101
 164 183 164 183 164 184 c 2,102,-1
 278 172 l 1,103,-1
 282 164 l 1,104,105
 283 168 283 168 288.5 174 c 128,-1,106
 294 180 294 180 300 188 c 0,107,108
 318 208 318 208 318 222 c 128,-1,109
 318 236 318 236 310 236 c 1,110,111
 268 282 268 282 160 309 c 0,112,113
 131 316 131 316 101 326 c 1,114,115
 61 329 61 329 48 354 c 0,116,117
 42 366 42 366 39.5 380 c 128,-1,118
 37 394 37 394 34 409 c 1,119,-1
 49 460 l 2,120,121
 51 468 51 468 60.5 473.5 c 128,-1,122
 70 479 70 479 70 488 c 1,123,-1
 129 548 l 1,124,125
 134 556 134 556 142 560 c 0,126,127
 158 566 158 566 175 579 c 1,128,-1
 183 578 l 1,129,130
 196 578 196 578 196 584 c 0,131,132
 196 607 196 607 186 629 c 128,-1,133
 176 651 176 651 176 674 c 2,134,-1
 176 679 l 2,135,136
 176 687 176 687 179 690 c 1,137,138
 201 680 201 680 208 680 c 2,139,-1
 254 682 l 1,140,141
 288 682 288 682 299.5 674 c 128,-1,142
 311 666 311 666 311 640 c 2,143,-1
 311 636 l 2,144,145
 311 628 311 628 306 626 c 1,146,-1
 306 604 l 2,147,148
 306 571 306 571 298 563 c 1,149,150
 304 558 304 558 310 558 c 1,151,-1
 320 561 l 1,152,-1
 338 555 l 2,153,154
 356 549 356 549 378 548 c 1,155,156
 378 552 378 552 386 552 c 1,157,-1
 386 538 l 1,158,159
 378 538 378 538 351.5 514.5 c 128,-1,160
 325 491 325 491 322 488 c 1,161,-1
 322 480 l 2,162,163
 322 482 322 482 332 487 c 2,164,-1
 350 496 l 1,165,166
 350 492 350 492 354 492 c 1,0,-1
243 -12 m 128,-1,168
 243 -17 243 -17 247 -17 c 2,169,-1
 282 -17 l 1,170,-1
 287 -13 l 1,171,172
 287 7 287 7 282.5 17 c 128,-1,173
 278 27 278 27 275 27 c 0,174,175
 269 27 269 27 259.5 16.5 c 128,-1,176
 250 6 250 6 246.5 -0.5 c 128,-1,167
 243 -7 243 -7 243 -12 c 128,-1,168
220 22 m 1,177,178
 215 22 215 22 215 15 c 0,179,180
 215 3 215 3 235 3 c 1,181,-1
 231 6 l 1,182,183
 251 19 251 19 262 34 c 1,184,-1
 220 22 l 1,177,178
212.5 41 m 128,-1,186
 213 38 213 38 215 38 c 256,187,188
 217 38 217 38 225.5 44 c 128,-1,189
 234 50 234 50 239 58 c 1,190,191
 227 55 227 55 219 50.5 c 128,-1,192
 211 46 211 46 211.5 45 c 128,-1,185
 212 44 212 44 212.5 41 c 128,-1,186
271 50 m 0,193,194
 271 60 271 60 267 62 c 1,195,196
 257 62 257 62 247.5 54 c 128,-1,197
 238 46 238 46 235 38 c 1,198,199
 239 39 239 39 245 40 c 128,-1,200
 251 41 251 41 257 42 c 0,201,202
 271 44 271 44 271 50 c 0,193,194
231 81 m 1,203,204
 226 80 226 80 219 75.5 c 128,-1,205
 212 71 212 71 212 66 c 1,206,207
 222 69 222 69 231 81 c 1,203,204
251 79 m 1,208,209
 242 79 242 79 242 70 c 1,210,-1
 251 70 l 1,211,-1
 251 79 l 1,208,209
334 129 m 1,212,213
 321 113 321 113 310 113 c 1,214,-1
 267 89 l 1,215,-1
 298 74 l 1,216,217
 298 92 298 92 330 100 c 0,218,219
 337 102 337 102 342 102 c 1,220,221
 340 97 340 97 338.5 95.5 c 128,-1,222
 337 94 337 94 337 89 c 1,223,224
 345 92 345 92 347.5 93.5 c 128,-1,225
 350 95 350 95 358.5 97 c 128,-1,226
 367 99 367 99 372.5 103 c 128,-1,227
 378 107 378 107 381.5 110.5 c 128,-1,228
 385 114 385 114 387 117 c 128,-1,229
 389 120 389 120 395 120 c 128,-1,230
 401 120 401 120 409.5 126.5 c 128,-1,231
 418 133 418 133 425 142 c 0,232,233
 434 154 434 154 444 180 c 1,234,235
 439 166 439 166 356 138 c 0,236,237
 341 133 341 133 341 131 c 1,238,239
 341 138 341 138 365.5 149 c 128,-1,240
 390 160 390 160 401 166 c 128,-1,241
 412 172 412 172 412 177 c 2,242,-1
 412 181 l 1,243,244
 389 181 389 181 369.5 172 c 128,-1,245
 350 163 350 163 330 153 c 1,246,-1
 330 161 l 1,247,-1
 286 156 l 2,248,249
 279 156 279 156 275 157 c 1,250,-1
 228 133 l 1,251,252
 226 134 226 134 220 134 c 128,-1,253
 214 134 214 134 206.5 126.5 c 128,-1,254
 199 119 199 119 192 117 c 1,255,-1
 192 110 l 1,256,257
 203 121 203 121 235 121 c 1,258,-1
 231 117 l 1,259,260
 232 116 232 116 233 116 c 2,261,-1
 235 116 l 2,262,263
 248 116 248 116 265 128 c 0,264,265
 297 149 297 149 310 149 c 1,266,267
 305 147 305 147 297 141 c 128,-1,268
 289 135 289 135 280 128 c 1,269,270
 255 112 255 112 246 112 c 1,271,-1
 243 113 l 1,272,-1
 168 89 l 1,273,274
 184 85 184 85 193 85 c 128,-1,275
 202 85 202 85 208.5 88 c 128,-1,276
 215 91 215 91 222 95 c 0,277,278
 240 105 240 105 251 105 c 1,279,280
 238 97 238 97 238 89 c 2,281,-1
 238 87 l 2,282,283
 238 86 238 86 243.5 86 c 128,-1,284
 249 86 249 86 259.5 92 c 128,-1,285
 270 98 270 98 280 105 c 0,286,287
 307 124 307 124 320 124 c 0,288,289
 321 124 321 124 323.5 127.5 c 128,-1,290
 326 131 326 131 326 133 c 1,291,-1
 334 129 l 1,212,213
158 105 m 2,292,293
 133 105 133 105 133 92 c 1,294,295
 153 92 153 92 162 105 c 1,296,-1
 158 105 l 2,292,293
167 122 m 1,297,-1
 176 121 l 1,298,299
 183 127 183 127 189 128 c 128,-1,300
 195 129 195 129 200 136 c 1,301,-1
 204 133 l 1,302,303
 208 140 208 140 221.5 147 c 128,-1,304
 235 154 235 154 243 154 c 1,305,-1
 243 160 l 1,306,307
 230 160 230 160 214 164.5 c 128,-1,308
 198 169 198 169 187 169 c 1,309,310
 176 161 176 161 168 155 c 128,-1,311
 160 149 160 149 151.5 143 c 128,-1,312
 143 137 143 137 134 131 c 2,313,-1
 113 117 l 1,314,315
 110 117 110 117 105 111.5 c 128,-1,316
 100 106 100 106 100 103.5 c 128,-1,317
 100 101 100 101 100.5 99.5 c 128,-1,318
 101 98 101 98 101 97 c 1,319,320
 104 102 104 102 109 105 c 1,321,322
 117 105 117 105 117 97 c 1,323,324
 126 122 126 122 167 122 c 1,297,-1
92 129 m 1,325,-1
 85 133 l 1,326,327
 77 133 77 133 77 125 c 128,-1,328
 77 117 77 117 79 111 c 128,-1,329
 81 105 81 105 82 105 c 0,330,331
 89 105 89 105 96 115 c 0,332,333
 108 134 108 134 112 134 c 1,334,335
 111 134 111 134 108 131.5 c 128,-1,336
 105 129 105 129 92 129 c 1,325,-1
93 153 m 1,337,338
 81 151 81 151 81 140 c 1,339,340
 142 153 142 153 156 172 c 1,341,342
 140 188 140 188 117 188 c 1,343,-1
 93 153 l 1,337,338
105 192 m 0,344,345
 105 208 105 208 88 208 c 0,346,347
 77 208 77 208 77 204 c 2,348,-1
 81 172 l 1,349,350
 86 174 86 174 95.5 180.5 c 128,-1,351
 105 187 105 187 105 192 c 0,344,345
440 244 m 1,352,353
 444 244 444 244 444 236.5 c 128,-1,354
 444 229 444 229 428 221.5 c 128,-1,355
 412 214 412 214 392 207 c 0,356,357
 335 188 335 188 330 180 c 1,358,359
 331 176 331 176 335 176 c 2,360,-1
 340 176 l 2,361,362
 344 176 344 176 345 172 c 1,363,-1
 373 180 l 1,364,-1
 369 184 l 1,365,366
 398 184 398 184 419 192 c 0,367,368
 456 205 456 205 456 219 c 0,369,370
 456 224 456 224 452 224 c 1,371,-1
 456 227 l 1,372,373
 453 240 453 240 451 258.5 c 128,-1,374
 449 277 449 277 436 287 c 1,375,376
 436 283 436 283 408 266 c 0,377,378
 354 234 354 234 342 232 c 1,379,380
 346 227 346 227 360 227 c 128,-1,381
 374 227 374 227 392.5 231.5 c 128,-1,382
 411 236 411 236 428 236 c 1,383,-1
 440 244 l 1,352,353
405 224 m 1,384,385
 384 223 384 223 363 220 c 128,-1,386
 342 217 342 217 334 204 c 1,387,388
 334 205 334 205 339 200 c 1,389,390
 345 202 345 202 355.5 204.5 c 128,-1,391
 366 207 366 207 376 210 c 0,392,393
 403 218 403 218 405 224 c 1,384,385
321 253 m 0,394,395
 321 245 321 245 328 242 c 128,-1,396
 335 239 335 239 341 239 c 128,-1,397
 347 239 347 239 353 247 c 1,398,-1
 358 244 l 1,399,400
 358 251 358 251 376 260.5 c 128,-1,401
 394 270 394 270 409 279 c 1,402,-1
 401 279 l 2,403,404
 387 279 387 279 354 267.5 c 128,-1,405
 321 256 321 256 321 253 c 0,394,395
287 279 m 1,406,407
 290 270 290 270 311 270 c 2,408,-1
 315 270 l 2,409,410
 316 270 316 270 318 271 c 2,411,-1
 358 302 l 1,412,-1
 351 302 l 1,413,414
 351 311 351 311 362 312.5 c 128,-1,415
 373 314 373 314 381 315 c 1,416,-1
 381 307 l 1,417,-1
 326 267 l 1,418,419
 342 267 342 267 385.5 281 c 128,-1,420
 429 295 429 295 429 297 c 0,421,422
 429 308 429 308 416 315 c 128,-1,423
 403 322 403 322 388.5 329.5 c 128,-1,424
 374 337 374 337 353 350 c 1,425,426
 339 332 339 332 318.5 320 c 128,-1,427
 298 308 298 308 282 291 c 1,428,429
 294 291 294 291 303 296.5 c 128,-1,430
 312 302 312 302 323 302 c 1,431,-1
 326 295 l 1,432,433
 326 288 326 288 307.5 283.5 c 128,-1,434
 289 279 289 279 287 279 c 1,406,407
262 314.5 m 128,-1,436
 254 310 254 310 254 304 c 0,437,438
 254 294 254 294 270 294 c 0,439,440
 279 294 279 294 299 312 c 0,441,442
 338 346 338 346 342 346 c 1,443,444
 342 357 342 357 332 361.5 c 128,-1,445
 322 366 322 366 315 366 c 128,-1,446
 308 366 308 366 296 358.5 c 128,-1,447
 284 351 284 351 272 342 c 0,448,449
 242 319 242 319 235 310 c 1,450,451
 265 327 265 327 306 342 c 1,452,453
 306 335 306 335 288 327 c 128,-1,435
 270 319 270 319 262 314.5 c 128,-1,436
176 326 m 1,454,455
 200 314 200 314 220 314 c 1,456,457
 276 360 276 360 295 366 c 1,458,-1
 287 366 l 1,459,-1
 176 326 l 1,454,455
179 401 m 0,460,461
 161 401 161 401 129 369 c 1,462,463
 128 370 128 370 124 370 c 0,464,465
 118 370 118 370 113 354 c 1,466,-1
 179 377 l 1,467,468
 178 368 178 368 167.5 363.5 c 128,-1,469
 157 359 157 359 144.5 355.5 c 128,-1,470
 132 352 132 352 122 348.5 c 128,-1,471
 112 345 112 345 112 338 c 1,472,473
 116 338 116 338 160 330 c 1,474,475
 198 368 198 368 217 368 c 0,476,477
 224 368 224 368 224 383 c 1,478,479
 214 383 214 383 204.5 378.5 c 128,-1,480
 195 374 195 374 184 374 c 1,481,482
 185 376 185 376 193 379 c 0,483,484
 208 385 208 385 208 388 c 128,-1,485
 208 391 208 391 204 393.5 c 128,-1,486
 200 396 200 396 194 398 c 0,487,488
 182 401 182 401 179 401 c 0,460,461
88 392 m 1,489,490
 89 392 89 392 117 405 c 1,491,-1
 121 401 l 1,492,-1
 132 409 l 1,493,494
 130 396 130 396 103 384 c 0,495,496
 79 373 79 373 64 373 c 1,497,498
 64 363 64 363 71.5 358.5 c 128,-1,499
 79 354 79 354 79 346 c 1,500,-1
 85 346 l 1,501,-1
 105 366 l 1,502,503
 110 366 110 366 125 378 c 0,504,505
 155 401 155 401 160 401 c 1,506,-1
 159 416 l 1,507,508
 153 416 153 416 153 419 c 0,509,510
 153 424 153 424 164 425 c 1,511,-1
 152 437 l 1,512,513
 135 437 135 437 100 406 c 0,514,515
 92 399 92 399 88 392 c 1,489,490
273 378 m 2,516,-1
 259 376 l 1,517,-1
 259 382 l 1,518,519
 247 374 247 374 230 366 c 0,520,521
 202 352 202 352 200 350 c 1,522,-1
 231 350 l 1,523,-1
 235 358 l 1,524,525
 277 364 277 364 282 374 c 1,526,527
 278 378 278 378 273 378 c 2,516,-1
127 452 m 1,528,-1
 135 455 l 1,529,530
 135 438 135 438 98 434 c 0,531,532
 90 433 90 433 83.5 433 c 128,-1,533
 77 433 77 433 77 437 c 0,534,535
 77 445 77 445 87.5 451.5 c 128,-1,536
 98 458 98 458 111 464 c 128,-1,537
 124 470 124 470 136 475.5 c 128,-1,538
 148 481 148 481 152 488 c 1,539,-1
 89 467 l 1,540,-1
 89 474 l 1,541,542
 66 474 66 474 58 402 c 0,543,544
 57 388 57 388 57 384 c 2,545,-1
 57 369 l 2,546,547
 57 379 57 379 64 388.5 c 128,-1,548
 71 398 71 398 73.5 398 c 128,-1,549
 76 398 76 398 81 393 c 1,550,551
 84 405 84 405 94 412.5 c 128,-1,552
 104 420 104 420 115 426 c 128,-1,553
 126 432 126 432 135 439.5 c 128,-1,554
 144 447 144 447 144 455.5 c 128,-1,555
 144 464 144 464 151.5 466.5 c 128,-1,556
 159 469 159 469 160 476 c 1,557,-1
 124 460 l 1,558,559
 124 452 124 452 127 452 c 1,528,-1
369 450 m 2,560,561
 372 450 372 450 377 447.5 c 128,-1,562
 382 445 382 445 382 442.5 c 128,-1,563
 382 440 382 440 383 440 c 0,564,565
 386 440 386 440 392 450 c 128,-1,566
 398 460 398 460 398 470 c 0,567,568
 398 488 398 488 393 500 c 1,569,570
 382 493 382 493 361.5 486.5 c 128,-1,571
 341 480 341 480 330 476 c 1,572,573
 335 473 335 473 343 471.5 c 128,-1,574
 351 470 351 470 359 468 c 0,575,576
 378 462 378 462 381 450 c 1,577,-1
 369 450 l 2,560,561
168 555 m 1,578,579
 158 540 158 540 148 532 c 0,580,581
 145 529 145 529 138 521 c 0,582,583
 102 483 102 483 91 483 c 1,584,585
 98 483 98 483 107 494.5 c 128,-1,586
 116 506 116 506 126 520 c 128,-1,587
 136 534 136 534 145.5 545.5 c 128,-1,588
 155 557 155 557 159.5 557 c 128,-1,589
 164 557 164 557 168 555 c 1,578,579
278 503 m 1,590,591
 296 503 296 503 326 520 c 1,592,-1
 326 516 l 1,593,-1
 270 488 l 1,594,595
 285 483 285 483 302 483 c 0,596,597
 305 483 305 483 321 496 c 0,598,599
 351 522 351 522 351 528 c 1,600,601
 345 526 345 526 340.5 526 c 128,-1,602
 336 526 336 526 322 543 c 1,603,604
 309 543 309 543 284 514 c 0,605,606
 279 507 279 507 278 503 c 1,590,591
235 535 m 1,607,-1
 250 534 l 2,608,609
 263 534 263 534 270 540 c 1,610,-1
 267 532 l 1,611,-1
 192 496 l 1,612,-1
 187 492 l 1,613,614
 191 488 191 488 214 488 c 0,615,616
 250 488 250 488 298 543 c 1,617,-1
 295 544 l 1,618,-1
 279 541 l 1,619,-1
 278 544 l 2,620,621
 278 545 278 545 282 548 c 1,622,-1
 282 575 l 1,623,624
 242 555 242 555 235 535 c 1,607,-1
145 492 m 1,625,626
 150 497 150 497 155.5 497 c 128,-1,627
 161 497 161 497 166 498 c 0,628,629
 176 499 176 499 176 520 c 1,630,-1
 172 524 l 1,631,632
 172 527 172 527 176 531.5 c 128,-1,633
 180 536 180 536 180 539 c 128,-1,634
 180 542 180 542 179 543 c 1,635,636
 141 513 141 513 129 496 c 1,637,-1
 145 492 l 1,625,626
270 587 m 1,638,639
 218 580 218 580 194 542 c 0,640,641
 186 530 186 530 186 514 c 1,642,643
 203 516 203 516 270 583 c 1,644,-1
 270 587 l 1,638,639
211 617 m 1,645,646
 211 616 211 616 211.5 606 c 128,-1,647
 212 596 212 596 212 587 c 1,648,649
 217 588 217 588 236 602 c 0,650,651
 271 626 271 626 271 628.5 c 128,-1,652
 271 631 271 631 270.5 632 c 128,-1,653
 270 633 270 633 270 634 c 1,654,655
 268 632 268 632 259.5 629.5 c 128,-1,656
 251 627 251 627 242 624 c 0,657,658
 219 617 219 617 211 617 c 1,645,646
275 595 m 2,659,660
 283 595 283 595 283 609 c 0,661,662
 283 611 283 611 282.5 614.5 c 128,-1,663
 282 618 282 618 282 623 c 1,664,665
 272 616 272 616 259.5 605.5 c 128,-1,666
 247 595 247 595 243 595 c 2,667,-1
 275 595 l 2,659,660
204 658 m 2,668,-1
 203 654 l 1,669,-1
 199 654 l 1,670,671
 199 652 199 652 203 643.5 c 128,-1,672
 207 635 207 635 207 630 c 1,673,674
 221 635 221 635 243 657 c 1,675,-1
 241 657 l 2,676,677
 240 657 240 657 236.5 657.5 c 128,-1,678
 233 658 233 658 230.5 654.5 c 128,-1,679
 228 651 228 651 223 651 c 1,680,-1
 223 665 l 1,681,-1
 200 662 l 1,682,683
 204 659 204 659 204 658 c 2,668,-1
293 648 m 1,684,685
 293 657 293 657 282 657 c 128,-1,686
 271 657 271 657 270 662 c 1,687,688
 270 656 270 656 260.5 652 c 128,-1,689
 251 648 251 648 247 642 c 1,690,-1
 259 641 l 2,691,692
 269 641 269 641 275.5 644.5 c 128,-1,693
 282 648 282 648 293 648 c 1,684,685
EndSplineSet
EndChar

StartChar: percent
Encoding: 37 37 8
Width: 835
Flags: W
LayerCount: 2
Fore
SplineSet
576 694 m 1,0,-1
 599 689 l 1,1,2
 606 689 606 689 611 690 c 1,3,-1
 689 681 l 2,4,5
 690 681 690 681 692 679.5 c 128,-1,6
 694 678 694 678 692.5 674.5 c 128,-1,7
 691 671 691 671 688.5 663.5 c 128,-1,8
 686 656 686 656 668 618 c 128,-1,9
 650 580 650 580 616 509 c 128,-1,10
 582 438 582 438 543 369 c 0,11,12
 456 215 456 215 362 112 c 0,13,14
 360 109 360 109 356 100.5 c 128,-1,15
 352 92 352 92 347 82 c 0,16,17
 308 3 308 3 257 -56 c 0,18,19
 243 -73 243 -73 237.5 -73 c 128,-1,20
 232 -73 232 -73 217 -69 c 128,-1,21
 202 -65 202 -65 186 -58 c 0,22,23
 147 -40 147 -40 147 -28 c 1,24,25
 161 8 161 8 184 39.5 c 128,-1,26
 207 71 207 71 229 103 c 0,27,28
 250 135 250 135 268 173 c 128,-1,29
 286 211 286 211 302 245 c 1,30,31
 338 276 338 276 352.5 300 c 128,-1,32
 367 324 367 324 367 331.5 c 128,-1,33
 367 339 367 339 362 341 c 1,34,35
 365 346 365 346 370 347 c 128,-1,36
 375 348 375 348 380 353 c 1,37,38
 383 358 383 358 392 368.5 c 128,-1,39
 401 379 401 379 410 391 c 0,40,41
 435 422 435 422 435 428.5 c 128,-1,42
 435 435 435 435 431 435 c 1,43,44
 440 435 440 435 484 504 c 0,45,46
 493 519 493 519 502 537.5 c 128,-1,47
 511 556 511 556 529.5 593 c 128,-1,48
 548 630 548 630 552 668 c 1,49,50
 554 667 554 667 557.5 667 c 128,-1,51
 561 667 561 667 563.5 671 c 128,-1,52
 566 675 566 675 568 680 c 0,53,54
 571 694 571 694 576 694 c 1,0,-1
212 -31 m 1,55,-1
 237 -29 l 1,56,-1
 237 -43 l 1,57,58
 246 -36 246 -36 257 -22 c 128,-1,59
 268 -8 268 -8 268 5 c 1,60,-1
 246 0 l 1,61,62
 233 0 233 0 229 4 c 1,63,-1
 212 0 l 1,64,65
 203 0 203 0 203 4 c 1,66,67
 209 15 209 15 221 16.5 c 128,-1,68
 233 18 233 18 244 18 c 0,69,70
 275 18 275 18 284 26 c 1,71,72
 276 27 276 27 261.5 28.5 c 128,-1,73
 247 30 247 30 241 39 c 1,74,-1
 293 39 l 1,75,-1
 302 52 l 1,76,-1
 281 53 l 1,77,78
 246 53 246 53 224 40.5 c 128,-1,79
 202 28 202 28 191.5 15.5 c 128,-1,80
 181 3 181 3 181 -15 c 0,81,82
 181 -31 181 -31 212 -31 c 1,55,-1
780.5 257 m 128,-1,84
 785 245 785 245 785 239 c 128,-1,85
 785 233 785 233 780 228 c 1,86,87
 790 223 790 223 798 207 c 128,-1,88
 806 191 806 191 806 179.5 c 128,-1,89
 806 168 806 168 802.5 152 c 128,-1,90
 799 136 799 136 796 113 c 128,-1,91
 793 90 793 90 786 63 c 128,-1,92
 779 36 779 36 765 16 c 0,93,94
 734 -26 734 -26 669 -26 c 0,95,96
 577 -26 577 -26 546 24 c 1,97,98
 520 63 520 63 518 86 c 128,-1,99
 516 109 516 109 509 125 c 1,100,-1
 508 157 l 1,101,-1
 508 172 l 2,102,103
 508 202 508 202 511.5 233 c 128,-1,104
 515 264 515 264 535 289 c 1,105,106
 616 341 616 341 698 341 c 1,107,108
 698 333 698 333 705.5 330.5 c 128,-1,109
 713 328 713 328 717 327 c 128,-1,110
 721 326 721 326 724 323 c 2,111,-1
 776 271 l 1,112,83
 776 269 776 269 780.5 257 c 128,-1,84
646 0 m 1,113,-1
 682 -4 l 1,114,115
 707 -4 707 -4 723 9 c 128,-1,116
 739 22 739 22 754 39 c 1,117,118
 733 39 733 39 707 26 c 1,119,-1
 731 26 l 1,120,121
 731 7 731 7 666 2 c 0,122,123
 652 1 652 1 646 0 c 1,113,-1
694 21 m 1,124,-1
 683 22 l 1,125,126
 655 22 655 22 655 17 c 2,127,-1
 655 13 l 1,128,-1
 689 17 l 1,129,-1
 694 21 l 1,124,-1
582 30 m 1,130,-1
 595 17 l 1,131,132
 610 24 610 24 625 24 c 128,-1,133
 640 24 640 24 646 30 c 1,134,-1
 642 35 l 1,135,-1
 626 35 l 2,136,137
 602 35 602 35 582 30 c 1,130,-1
728 47 m 1,138,139
 714 46 714 46 699.5 40.5 c 128,-1,140
 685 35 685 35 669 35 c 1,141,-1
 686 33 l 1,142,143
 699 33 699 33 724 43 c 1,144,-1
 728 47 l 1,138,139
601 56 m 1,145,-1
 569 43 l 1,146,147
 569 39 569 39 573 39 c 2,148,-1
 612 45 l 1,149,150
 612 56 612 56 601 56 c 1,145,-1
229 56 m 1,151,152
 231 55 231 55 232 55 c 2,153,-1
 235 55 l 2,154,155
 244 55 244 55 261 59 c 128,-1,156
 278 63 278 63 286.5 65 c 128,-1,157
 295 67 295 67 297 69 c 1,158,159
 279 69 279 69 265.5 70.5 c 128,-1,160
 252 72 252 72 239 73 c 1,161,-1
 229 56 l 1,151,152
578 73 m 1,162,163
 555 73 555 73 555 62 c 0,164,165
 555 55 555 55 563 55 c 0,166,167
 583 55 583 55 595 69 c 1,168,-1
 578 69 l 1,169,-1
 578 73 l 1,162,163
713.5 192.5 m 128,-1,171
 711 213 711 213 708 216 c 128,-1,172
 705 219 705 219 702 222 c 0,173,174
 694 232 694 232 694 242 c 1,175,-1
 655 259 l 2,176,177
 653 260 653 260 645 260 c 128,-1,178
 637 260 637 260 629.5 247 c 128,-1,179
 622 234 622 234 617 217 c 0,180,181
 607 183 607 183 607 166.5 c 128,-1,182
 607 150 607 150 609.5 132.5 c 128,-1,183
 612 115 612 115 618 98 c 0,184,185
 633 56 633 56 660 56 c 0,186,187
 682 56 682 56 700 90 c 0,188,189
 716 119 716 119 716 145.5 c 128,-1,170
 716 172 716 172 713.5 192.5 c 128,-1,171
768 79 m 1,190,191
 765 79 765 79 756 75 c 2,192,-1
 742 68 l 2,193,194
 736 66 736 66 733 65 c 0,195,196
 733 64 733 64 735 64 c 2,197,-1
 741 64 l 2,198,199
 768 64 768 64 768 79 c 1,190,191
293 82 m 1,200,-1
 314 73 l 1,201,202
 322 86 322 86 322 87 c 1,203,-1
 321 87 l 1,204,-1
 319 88 l 1,205,-1
 316 88 l 2,206,207
 311 88 311 88 304 85 c 128,-1,208
 297 82 297 82 293 82 c 1,200,-1
587 87 m 0,209,210
 569 87 569 87 564 78 c 1,211,-1
 595 82 l 1,212,213
 593 87 593 87 587 87 c 0,209,210
266 108 m 0,214,215
 261 108 261 108 256.5 101 c 128,-1,216
 252 94 252 94 250 91 c 1,217,-1
 256 91 l 2,218,219
 280 91 280 91 293 94 c 128,-1,220
 306 97 306 97 306 99 c 0,221,222
 306 108 306 108 266 108 c 0,214,215
547 90 m 1,223,224
 573 90 573 90 578 99 c 1,225,-1
 547 99 l 1,226,-1
 547 90 l 1,223,224
780 117 m 1,227,228
 762 117 762 117 746 106 c 128,-1,229
 730 95 730 95 728 91 c 1,230,231
 735 93 735 93 744 93.5 c 128,-1,232
 753 94 753 94 761 96 c 0,233,234
 780 99 780 99 780 117 c 1,227,228
307 124 m 1,235,-1
 302 129 l 1,236,237
 291 129 291 129 267 117 c 1,238,-1
 297 117 l 1,239,240
 297 112 297 112 304 112 c 0,241,242
 323 112 323 112 335 118.5 c 128,-1,243
 347 125 347 125 347 130 c 1,244,-1
 307 124 l 1,235,-1
578 129 m 1,245,246
 568 127 568 127 558 122.5 c 128,-1,247
 548 118 548 118 547 117 c 1,248,-1
 582 117 l 1,249,-1
 578 129 l 1,245,246
750 120 m 1,250,251
 748 126 748 126 744 126 c 128,-1,252
 740 126 740 126 740 125.5 c 128,-1,253
 740 125 740 125 739 125 c 2,254,-1
 737 125 l 1,255,-1
 737 117 l 1,256,-1
 750 120 l 1,250,251
573 143 m 1,257,258
 567 146 567 146 552.5 146 c 128,-1,259
 538 146 538 146 538 143 c 2,260,-1
 538 128 l 1,261,262
 553 128 553 128 573 143 c 1,257,258
324 145 m 1,263,-1
 308 151 l 1,264,265
 294 151 294 151 284 145.5 c 128,-1,266
 274 140 274 140 274 138 c 128,-1,267
 274 136 274 136 276 134 c 1,268,269
 279 135 279 135 287 135.5 c 128,-1,270
 295 136 295 136 304 137 c 0,271,272
 324 139 324 139 324 145 c 1,263,-1
776 156 m 1,273,274
 764 156 764 156 750.5 150.5 c 128,-1,275
 737 145 737 145 737 143 c 2,276,-1
 737 138 l 1,277,278
 754 142 754 142 772 149 c 1,279,280
 772 143 772 143 767 143 c 2,281,-1
 776 143 l 1,282,-1
 776 156 l 1,273,274
561 160 m 2,283,284
 543 160 543 160 538 151 c 1,285,286
 544 153 544 153 551.5 154.5 c 128,-1,287
 559 156 559 156 564 160 c 1,288,-1
 561 160 l 2,283,284
345 160 m 1,289,290
 350 155 350 155 356 155 c 0,291,292
 375 155 375 155 375 169 c 1,293,-1
 345 160 l 1,289,290
776 172 m 1,294,295
 761 177 761 177 754 177 c 128,-1,296
 747 177 747 177 741 175.5 c 128,-1,297
 735 174 735 174 735 168 c 0,298,299
 735 157 735 157 737 155 c 1,300,-1
 776 172 l 1,294,295
302 181 m 2,301,302
 297 181 297 181 289 160 c 1,303,-1
 375 181 l 1,304,-1
 302 181 l 2,301,302
573 181 m 1,305,306
 567 190 567 190 548 190 c 2,307,-1
 538 190 l 1,308,-1
 538 171 l 1,309,310
 555 171 555 171 573 181 c 1,305,306
392 186 m 1,311,312
 405 195 405 195 420.5 220.5 c 128,-1,313
 436 246 436 246 436 249.5 c 128,-1,314
 436 253 436 253 435 254 c 1,315,316
 417 250 417 250 398.5 248 c 128,-1,317
 380 246 380 246 362 242 c 1,318,319
 369 241 369 241 379 240.5 c 128,-1,320
 389 240 389 240 398 239 c 0,321,322
 418 237 418 237 418 229 c 128,-1,323
 418 221 418 221 401 216 c 128,-1,324
 384 211 384 211 364 207 c 128,-1,325
 344 203 344 203 327 201 c 128,-1,326
 310 199 310 199 310 198 c 2,327,-1
 310 194 l 1,328,-1
 388 194 l 1,329,-1
 392 198 l 1,330,-1
 392 186 l 1,311,312
748 186 m 1,331,-1
 773 190 l 1,332,333
 773 200 773 200 767 202 c 1,334,335
 753 194 753 194 737 190 c 1,336,337
 741 186 741 186 748 186 c 1,331,-1
558 197 m 2,338,-1
 582 198 l 1,339,-1
 590 216 l 1,340,341
 577 214 577 214 563.5 212 c 128,-1,342
 550 210 550 210 538 202 c 1,343,344
 542 197 542 197 558 197 c 2,338,-1
737 202 m 1,345,-1
 763 216 l 1,346,-1
 737 216 l 1,347,-1
 737 202 l 1,345,-1
314 211 m 1,348,349
 347 211 347 211 388 228 c 1,350,-1
 328 228 l 1,351,-1
 314 211 l 1,348,349
547 220 m 1,352,353
 550 220 550 220 565.5 224.5 c 128,-1,354
 581 229 581 229 590 229 c 1,355,-1
 590 233 l 1,356,-1
 561 233 l 1,357,358
 559 237 559 237 551 237 c 2,359,-1
 547 237 l 1,360,-1
 547 220 l 1,352,353
751 251 m 0,361,362
 737 251 737 251 724 242 c 1,363,364
 724 224 724 224 760 224 c 1,365,366
 760 251 760 251 751 251 c 0,361,362
590 242 m 2,367,368
 593 242 593 242 596.5 247 c 128,-1,369
 600 252 600 252 600 255 c 1,370,371
 584 255 584 255 564 250 c 1,372,-1
 590 242 l 2,367,368
745 263 m 1,373,374
 723 263 723 263 707 259 c 1,375,376
 707 254 707 254 715 250 c 1,377,378
 719 250 719 250 731 255.5 c 128,-1,379
 743 261 743 261 745 263 c 1,373,374
362 271 m 2,380,381
 352 271 352 271 345 254 c 1,382,-1
 354 254 l 1,383,384
 358 255 358 255 367.5 256 c 128,-1,385
 377 257 377 257 388 258.5 c 128,-1,386
 399 260 399 260 408.5 261 c 128,-1,387
 418 262 418 262 422 263 c 1,388,-1
 366 271 l 1,389,-1
 362 271 l 2,380,381
595 271 m 1,390,-1
 582 273 l 1,391,392
 573 273 573 273 559.5 269.5 c 128,-1,393
 546 266 546 266 546 258 c 1,394,395
 579 258 579 258 599 268 c 1,396,-1
 595 271 l 1,390,-1
470 306 m 2,397,-1
 444 297 l 1,398,399
 432 297 432 297 412 293 c 128,-1,400
 392 289 392 289 382 287 c 2,401,-1
 371 285 l 1,402,-1
 366 280 l 1,403,404
 386 276 386 276 405 276 c 0,405,406
 471 276 471 276 471 303 c 0,407,408
 471 304 471 304 470.5 304.5 c 128,-1,409
 470 305 470 305 470 306 c 2,397,-1
735.5 284 m 128,-1,411
 732 285 732 285 724 285 c 0,412,413
 710 285 710 285 694 276 c 1,414,-1
 741 276 l 1,415,410
 739 283 739 283 735.5 284 c 128,-1,411
194 297 m 1,416,-1
 179 296 l 1,417,418
 151 296 151 296 130 305.5 c 128,-1,419
 109 315 109 315 88 328.5 c 128,-1,420
 67 342 67 342 56.5 361 c 128,-1,421
 46 380 46 380 40 402 c 0,422,423
 30 440 30 440 30 490 c 2,424,-1
 30 504 l 2,425,426
 30 526 30 526 42.5 549.5 c 128,-1,427
 55 573 55 573 74 599.5 c 128,-1,428
 93 626 93 626 116 646 c 0,429,430
 167 690 167 690 235 690 c 0,431,432
 269 690 269 690 289.5 667.5 c 128,-1,433
 310 645 310 645 320 614 c 0,434,435
 337 564 337 564 337 504 c 128,-1,436
 337 444 337 444 321 405 c 128,-1,437
 305 366 305 366 267 336 c 1,438,-1
 194 297 l 1,416,-1
401 332 m 1,439,440
 383 308 383 308 380 297 c 1,441,442
 411 297 411 297 434.5 305.5 c 128,-1,443
 458 314 458 314 465 319 c 1,444,445
 465 328 465 328 446 329 c 0,446,447
 416 332 416 332 401 332 c 1,439,440
647 309 m 1,448,449
 642 309 642 309 623 304 c 0,450,451
 589 294 589 294 582 287 c 1,452,453
 589 287 589 287 601 288 c 0,454,455
 631 290 631 290 655 292 c 1,456,-1
 659 305 l 1,457,-1
 647 309 l 1,448,449
689 297 m 1,458,-1
 703 296 l 2,459,460
 714 296 714 296 715 302 c 1,461,462
 713 309 713 309 699 312 c 128,-1,463
 685 315 685 315 683 315 c 0,464,465
 677 315 677 315 677 310 c 1,466,467
 691 310 691 310 694 302 c 1,468,-1
 689 297 l 1,458,-1
206 353 m 2,469,470
 202 352 202 352 202 343.5 c 128,-1,471
 202 335 202 335 202.5 332 c 128,-1,472
 203 329 203 329 203 327 c 1,473,474
 206 329 206 329 213.5 333 c 128,-1,475
 221 337 221 337 229 342 c 0,476,477
 250 353 250 353 250 362 c 1,478,-1
 206 353 l 2,469,470
422 341 m 1,479,480
 462 336 462 336 479 336 c 1,481,-1
 478 331 l 2,482,483
 478 329 478 329 483 327 c 1,484,-1
 479 327 l 1,485,486
 488 328 488 328 496 349 c 1,487,488
 451 349 451 349 422 341 c 1,479,480
173 349 m 1,489,490
 169 359 169 359 133 359 c 0,491,492
 126 359 126 359 116.5 358.5 c 128,-1,493
 107 358 107 358 99 358 c 1,494,495
 102 353 102 353 112 346.5 c 128,-1,496
 122 340 122 340 127 340 c 1,497,-1
 147 349 l 1,498,-1
 142 341 l 1,499,500
 162 341 162 341 173 349 c 1,489,490
512 440 m 1,501,502
 530 440 530 440 530 426 c 0,503,504
 530 422 530 422 492.5 409 c 128,-1,505
 455 396 455 396 444 393 c 1,506,507
 439 386 439 386 434 380 c 0,508,509
 423 365 423 365 413 353 c 1,510,511
 427 353 427 353 448 356.5 c 128,-1,512
 469 360 469 360 483 362 c 1,513,-1
 435 371 l 1,514,-1
 435 375 l 1,515,-1
 509 375 l 1,516,517
 512 379 512 379 517.5 390.5 c 128,-1,518
 523 402 523 402 530 414 c 0,519,520
 546 444 546 444 549 444 c 1,521,522
 540 443 540 443 534 442.5 c 128,-1,523
 528 442 528 442 521.5 441 c 128,-1,524
 515 440 515 440 512 440 c 1,501,502
173 371 m 1,525,526
 173 366 173 366 181.5 366 c 128,-1,527
 190 366 190 366 215 371 c 1,528,-1
 215 375 l 1,529,-1
 173 371 l 1,525,526
127 405 m 0,530,531
 99 405 99 405 95 379 c 1,532,533
 90 382 90 382 89 385 c 128,-1,534
 88 388 88 388 86 390 c 0,535,536
 83 395 83 395 72 395 c 1,537,538
 72 381 72 381 82 377.5 c 128,-1,539
 92 374 92 374 105 374 c 2,540,-1
 109 374 l 2,541,542
 121 374 121 374 132 375 c 128,-1,543
 143 376 143 376 151 384 c 1,544,545
 145 386 145 386 138.5 395.5 c 128,-1,546
 132 405 132 405 127 405 c 0,530,531
276 384 m 0,547,548
 288 384 288 384 293 409 c 1,549,550
 261 409 261 409 241 401 c 128,-1,551
 221 393 221 393 220 388 c 1,552,553
 252 388 252 388 260 386 c 128,-1,554
 268 384 268 384 276 384 c 0,547,548
138 469 m 0,555,556
 138 460 138 460 143.5 455.5 c 128,-1,557
 149 451 149 451 150.5 445.5 c 128,-1,558
 152 440 152 440 154 432 c 128,-1,559
 156 424 156 424 159 416 c 0,560,561
 167 397 167 397 179.5 397 c 128,-1,562
 192 397 192 397 203 409.5 c 128,-1,563
 214 422 214 422 222 438 c 0,564,565
 241 474 241 474 241 498 c 0,566,567
 241 501 241 501 236 505.5 c 128,-1,568
 231 510 231 510 231 514.5 c 128,-1,569
 231 519 231 519 236.5 522 c 128,-1,570
 242 525 242 525 242 532 c 0,571,572
 242 571 242 571 219 597 c 0,573,574
 211 606 211 606 199 606 c 0,575,576
 198 606 198 606 194 598.5 c 128,-1,577
 190 591 190 591 181 591 c 1,578,579
 160 558 160 558 149 532 c 128,-1,580
 138 506 138 506 138 469 c 0,555,556
469 426 m 2,581,582
 465 426 465 426 465 427 c 1,583,584
 463 427 463 427 453 405 c 1,585,586
 466 405 466 405 483 415 c 128,-1,587
 500 425 500 425 500 426 c 1,588,-1
 469 426 l 2,581,582
95 409 m 1,589,-1
 99 409 l 1,590,591
 100 410 100 410 109 411 c 0,592,593
 125 413 125 413 125 423 c 1,594,-1
 95 409 l 1,589,-1
254 423 m 2,595,596
 236 423 236 423 236 409 c 1,597,-1
 241 409 l 1,598,599
 246 412 246 412 272 418 c 1,600,601
 266 423 266 423 258 423 c 2,602,-1
 254 423 l 2,595,596
58 431 m 1,603,604
 58 413 58 413 69 413 c 1,605,606
 79 417 79 417 86 420 c 0,607,608
 106 426 106 426 116 431 c 1,609,-1
 58 431 l 1,603,604
304 431 m 1,610,611
 304 436 304 436 293 440 c 1,612,613
 296 441 296 441 302 442.5 c 128,-1,614
 308 444 308 444 310 449 c 1,615,616
 289 446 289 446 255 435 c 1,617,618
 277 431 277 431 304 431 c 1,610,611
113 443 m 1,619,620
 113 458 113 458 104 458 c 0,621,622
 83 458 83 458 60 444 c 1,623,-1
 77 443 l 1,624,625
 95 443 95 443 98 446 c 128,-1,626
 101 449 101 449 103 449 c 256,627,628
 105 449 105 449 106 446 c 128,-1,629
 107 443 107 443 113 443 c 1,619,620
258 461 m 1,630,631
 256 455 256 455 256 448 c 1,632,633
 262 451 262 451 265.5 452 c 128,-1,634
 269 453 269 453 272 454 c 0,635,636
 282 458 282 458 293 461 c 1,637,-1
 258 461 l 1,630,631
500 487 m 1,638,639
 499 486 499 486 491.5 471.5 c 128,-1,640
 484 457 484 457 474 449 c 1,641,642
 506 449 506 449 528 454.5 c 128,-1,643
 550 460 550 460 552 461 c 1,644,645
 547 467 547 467 530 473 c 128,-1,646
 513 479 513 479 500 487 c 1,638,639
56 478 m 2,647,648
 56 465 56 465 66 465 c 0,649,650
 107 465 107 465 107 478 c 1,651,-1
 56 483 l 1,652,-1
 56 478 l 2,647,648
509 496 m 1,653,654
 515 485 515 485 532 479.5 c 128,-1,655
 549 474 549 474 561 474 c 2,656,-1
 563 474 l 2,657,658
 564 474 564 474 564 475 c 2,659,-1
 590 525 l 1,660,661
 568 518 568 518 561 513 c 1,662,663
 555 511 555 511 547 510.5 c 128,-1,664
 539 510 539 510 532 508 c 0,665,666
 512 505 512 505 509 496 c 1,653,654
310 488 m 1,667,668
 305 488 305 488 297.5 484 c 128,-1,669
 290 480 290 480 284 478 c 1,670,-1
 310 478 l 1,671,-1
 310 488 l 1,667,668
65 496 m 1,672,673
 83 491 83 491 102 491 c 2,674,-1
 105 491 l 2,675,676
 106 491 106 491 107 492 c 2,677,-1
 116 517 l 1,678,679
 112 514 112 514 96 510 c 0,680,681
 69 503 69 503 65 496 c 1,672,673
107 530 m 1,682,683
 91 533 91 533 69 543 c 1,684,685
 60 536 60 536 60 508 c 1,686,687
 74 518 74 518 89 521 c 128,-1,688
 104 524 104 524 107 530 c 1,682,683
306 536 m 1,689,690
 296 536 296 536 282 530.5 c 128,-1,691
 268 525 268 525 268 512 c 1,692,693
 280 512 280 512 286 518 c 0,694,695
 297 529 297 529 306 529 c 1,696,-1
 306 536 l 1,689,690
297 517 m 256,697,698
 296 517 296 517 292.5 515.5 c 128,-1,699
 289 514 289 514 289 513 c 1,700,-1
 302 513 l 1,701,702
 302 514 302 514 300 515.5 c 128,-1,703
 298 517 298 517 297 517 c 256,697,698
521 513 m 1,704,-1
 552 525 l 1,705,-1
 552 526 l 2,706,707
 552 527 552 527 552.5 527 c 128,-1,708
 553 527 553 527 553 529.5 c 128,-1,709
 553 532 553 532 542.5 535 c 128,-1,710
 532 538 532 538 530 539 c 1,711,-1
 521 513 l 1,704,-1
151 574 m 1,712,713
 131 561 131 561 118 555 c 128,-1,714
 105 549 105 549 103 548 c 1,715,716
 108 548 108 548 112.5 544 c 128,-1,717
 117 540 117 540 119.5 540 c 128,-1,718
 122 540 122 540 127 544.5 c 128,-1,719
 132 549 132 549 138 555 c 0,720,721
 151 570 151 570 151 574 c 1,712,713
651 633 m 1,722,723
 609 647 609 647 578 647 c 0,724,725
 574 647 574 647 566 626 c 0,726,727
 548 573 548 573 538 556 c 1,728,-1
 538 548 l 1,729,730
 564 553 564 553 587.5 560.5 c 128,-1,731
 611 568 611 568 611 569 c 0,732,733
 597 576 597 576 580.5 580.5 c 128,-1,734
 564 585 564 585 564 595 c 128,-1,735
 564 605 564 605 573 607 c 2,736,-1
 646 629 l 1,737,-1
 651 633 l 1,722,723
74 551 m 1,738,739
 82 551 82 551 103 560 c 1,740,-1
 103 566 l 1,741,742
 90 565 90 565 84 564 c 128,-1,743
 78 563 78 563 74 551 c 1,738,739
300 574 m 0,744,745
 287 574 287 574 275 568 c 128,-1,746
 263 562 263 562 263 560 c 2,747,-1
 263 556 l 1,748,-1
 293 556 l 1,749,-1
 289 560 l 1,750,-1
 302 560 l 1,751,-1
 302 555 l 1,752,753
 307 555 307 555 310 560 c 1,754,755
 308 563 308 563 305 568.5 c 128,-1,756
 302 574 302 574 300 574 c 0,744,745
578 595 m 1,757,758
 596 582 596 582 610 582 c 0,759,760
 631 582 631 582 642 612 c 1,761,-1
 639 612 l 2,762,763
 638 612 638 612 637 612.5 c 128,-1,764
 636 613 636 613 629 611 c 128,-1,765
 622 609 622 609 613 606 c 128,-1,766
 604 603 604 603 594 600 c 128,-1,767
 584 597 584 597 578 595 c 1,757,758
121 612 m 1,768,769
 106 601 106 601 99 586 c 1,770,-1
 147 599 l 1,771,-1
 142 599 l 2,772,773
 131 599 131 599 125 602 c 128,-1,774
 119 605 119 605 119 606.5 c 128,-1,775
 119 608 119 608 121 612 c 1,768,769
289 607 m 1,776,777
 287 607 287 607 282 605 c 128,-1,778
 277 603 277 603 272 601 c 128,-1,779
 267 599 267 599 258 595 c 1,780,-1
 298 595 l 1,781,782
 298 598 298 598 294 601.5 c 128,-1,783
 290 605 290 605 289 607 c 1,776,777
238 618 m 2,784,-1
 255 619 l 1,785,-1
 255 611 l 1,786,787
 259 612 259 612 262.5 614 c 128,-1,788
 266 616 266 616 269.5 617.5 c 128,-1,789
 273 619 273 619 276 621 c 1,790,791
 258 621 258 621 247 626 c 128,-1,792
 236 631 236 631 236 636 c 0,793,794
 236 637 236 637 250 651 c 1,795,-1
 241 651 l 2,796,797
 234 651 234 651 222 646 c 128,-1,798
 210 641 210 641 210 633 c 0,799,800
 210 632 210 632 210.5 631 c 128,-1,801
 211 630 211 630 211 629 c 2,802,-1
 224 638 l 1,803,804
 222 634 222 634 222 629 c 0,805,806
 222 618 222 618 238 618 c 2,784,-1
203 664 m 1,807,808
 170 664 170 664 141 642 c 0,809,810
 133 636 133 636 133 629 c 1,811,812
 149 633 149 633 154.5 639.5 c 128,-1,813
 160 646 160 646 166 649.5 c 128,-1,814
 172 653 172 653 177.5 653.5 c 128,-1,815
 183 654 183 654 188 654 c 0,816,817
 201 656 201 656 203 664 c 1,807,808
276 643 m 1,818,819
 264 643 264 643 263 638 c 1,820,-1
 276 638 l 1,821,-1
 276 643 l 1,818,819
590 668 m 1,822,823
 585 673 585 673 582 673 c 0,824,825
 578 673 578 673 578.5 668.5 c 128,-1,826
 579 664 579 664 584.5 662.5 c 128,-1,827
 590 661 590 661 596 660 c 0,828,829
 612 659 612 659 612 654 c 0,830,831
 612 652 612 652 611 651 c 1,832,833
 631 647 631 647 642 647 c 0,834,835
 664 647 664 647 664 662 c 1,836,837
 648 662 648 662 642 668 c 1,838,-1
 590 668 l 1,822,823
EndSplineSet
EndChar

StartChar: ampersand
Encoding: 38 38 9
Width: 580
Flags: W
LayerCount: 2
Fore
SplineSet
577 10 m 0,0,1
 565 -2 565 -2 492 -2 c 0,2,3
 463 -2 463 -2 430 3 c 1,4,5
 426 5 426 5 420.5 13 c 128,-1,6
 415 21 415 21 414 22 c 1,7,8
 390 -2 390 -2 344 -9 c 0,9,10
 324 -12 324 -12 303 -13.5 c 128,-1,11
 282 -15 282 -15 261 -18 c 1,12,-1
 248 -18 l 1,13,14
 242 -12 242 -12 107 22 c 1,15,16
 47 59 47 59 32 133 c 1,17,18
 27 144 27 144 27 166 c 128,-1,19
 27 188 27 188 40.5 226.5 c 128,-1,20
 54 265 54 265 79 291 c 0,21,22
 82 294 82 294 89.5 297 c 128,-1,23
 97 300 97 300 104 303 c 0,24,25
 123 310 123 310 123 321 c 0,26,27
 123 336 123 336 98 369 c 0,28,29
 94 375 94 375 94 382 c 128,-1,30
 94 389 94 389 87 399 c 128,-1,31
 80 409 80 409 80 420 c 128,-1,32
 80 431 80 431 73.5 439 c 128,-1,33
 67 447 67 447 67 460 c 1,34,-1
 71 483 l 1,35,36
 71 492 71 492 68.5 497.5 c 128,-1,37
 66 503 66 503 66 514 c 128,-1,38
 66 525 66 525 68.5 536.5 c 128,-1,39
 71 548 71 548 76 562 c 0,40,41
 87 597 87 597 98 603 c 0,42,43
 132 620 132 620 176.5 638.5 c 128,-1,44
 221 657 221 657 276 657 c 0,45,46
 305 657 305 657 352 617 c 1,47,48
 395 578 395 578 395 522 c 0,49,50
 395 426 395 426 359 393 c 1,51,-1
 355 393 l 1,52,53
 355 386 355 386 345.5 379 c 128,-1,54
 336 372 336 372 324 365 c 0,55,56
 293 346 293 346 292 338 c 0,57,58
 292 331 292 331 301 323.5 c 128,-1,59
 310 316 310 316 312 310 c 1,60,61
 316 308 316 308 323.5 304.5 c 128,-1,62
 331 301 331 301 338 296 c 1,63,64
 358 285 358 285 358 274 c 1,65,66
 373 274 373 274 380 266 c 2,67,-1
 392 252 l 2,68,69
 396 248 396 248 403 247 c 1,70,71
 405 261 405 261 404 279 c 128,-1,72
 403 297 403 297 411 310 c 1,73,-1
 391 330 l 1,74,75
 392 335 392 335 414 335 c 128,-1,76
 436 335 436 335 464.5 330.5 c 128,-1,77
 493 326 493 326 529 326 c 1,78,-1
 533 318 l 1,79,80
 518 318 518 318 495 310 c 0,81,82
 450 295 450 295 450 283 c 1,83,84
 478 304 478 304 505 304 c 1,85,-1
 505 296 l 1,86,87
 509 296 509 296 510 298 c 0,88,89
 514 306 514 306 516 308 c 128,-1,90
 518 310 518 310 523 310 c 2,91,-1
 527 310 l 2,92,93
 532 310 532 310 533 306 c 1,94,-1
 529 302 l 1,95,-1
 530 285 l 1,96,97
 530 225 530 225 505 187 c 1,98,99
 488 167 488 167 488 150 c 128,-1,100
 488 133 488 133 494 120 c 1,101,-1
 572 18 l 2,102,103
 573 16 573 16 575 13.5 c 128,-1,104
 577 11 577 11 577 10 c 0,0,1
253 6 m 1,105,106
 260 -1 260 -1 280.5 -1 c 128,-1,107
 301 -1 301 -1 304 -2 c 1,108,-1
 300 -2 l 1,109,-1
 316 6 l 2,110,111
 320 8 320 8 328 17 c 0,112,113
 343 34 343 34 346 34 c 1,114,115
 361 46 361 46 373 60 c 128,-1,116
 385 74 385 74 398 85 c 1,117,-1
 395 89 l 1,118,119
 393 88 393 88 383 82 c 128,-1,120
 373 76 373 76 362 70 c 0,121,122
 331 54 331 54 328 54 c 1,123,-1
 323 57 l 1,124,-1
 320 50 l 1,125,126
 300 36 300 36 280.5 21 c 128,-1,127
 261 6 261 6 253 6 c 1,105,106
217 10 m 1,128,-1
 233 6 l 2,129,130
 235 6 235 6 244.5 18 c 128,-1,131
 254 30 254 30 259 36 c 128,-1,132
 264 42 264 42 264 45 c 1,133,-1
 296 78 l 1,134,135
 285 78 285 78 259 60 c 0,136,137
 208 27 208 27 203.5 26.5 c 128,-1,138
 199 26 199 26 193 29 c 128,-1,139
 187 32 187 32 186 34 c 1,140,141
 189 42 189 42 203 51 c 128,-1,142
 217 60 217 60 225 65 c 1,143,-1
 225 70 l 1,144,-1
 221 70 l 2,145,146
 212 70 212 70 192 58 c 0,147,148
 159 39 159 39 154 29 c 1,149,-1
 217 10 l 1,128,-1
419 49 m 0,150,151
 405 49 405 49 405 57 c 0,152,153
 405 64 405 64 416 68 c 0,154,155
 438 77 438 77 440 81 c 1,156,157
 432 81 432 81 417.5 76.5 c 128,-1,158
 403 72 403 72 396 66 c 128,-1,159
 389 60 389 60 381 52 c 0,160,161
 364 35 364 35 347 18 c 1,162,-1
 347 14 l 1,163,-1
 398 42 l 1,164,165
 404 33 404 33 408.5 33 c 128,-1,166
 413 33 413 33 418.5 36 c 128,-1,167
 424 39 424 39 430 44 c 0,168,169
 443 55 443 55 443 59.5 c 128,-1,170
 443 64 443 64 442 65 c 1,171,172
 441 59 441 59 432.5 54 c 128,-1,173
 424 49 424 49 419 49 c 0,150,151
502 18 m 0,174,175
 502 22 502 22 482 22 c 0,176,177
 480 22 480 22 473.5 19 c 128,-1,178
 467 16 467 16 467 14 c 0,179,180
 467 10 467 10 469 10 c 128,-1,181
 471 10 471 10 476 11 c 128,-1,182
 481 12 481 12 487 13.5 c 128,-1,183
 493 15 493 15 497.5 16 c 128,-1,184
 502 17 502 17 502 18 c 0,174,175
462 18 m 1,185,186
 463 22 463 22 467 26 c 128,-1,187
 471 30 471 30 471 34 c 1,188,-1
 453 22 l 1,189,-1
 462 18 l 1,185,186
518 26 m 1,190,-1
 517 20 l 2,191,192
 517 18 517 18 521.5 18 c 128,-1,193
 526 18 526 18 531 21 c 128,-1,194
 536 24 536 24 541 26 c 1,195,-1
 517 50 l 1,196,-1
 517 55 l 1,197,198
 507 55 507 55 494 46 c 128,-1,199
 481 37 481 37 481 35 c 1,200,201
 518 35 518 35 518 26 c 1,190,-1
502 65 m 1,202,203
 498 74 498 74 488.5 74 c 128,-1,204
 479 74 479 74 478.5 68.5 c 128,-1,205
 478 63 478 63 473.5 63 c 128,-1,206
 469 63 469 63 466 65 c 1,207,-1
 442 42 l 1,208,-1
 444 26 l 1,209,-1
 451 33 l 1,210,211
 466 39 466 39 477 48 c 128,-1,212
 488 57 488 57 502 65 c 1,202,203
367 97 m 2,213,-1
 356 98 l 2,214,215
 351 98 351 98 326 82 c 0,216,217
 278 53 278 53 273 37 c 1,218,-1
 372 89 l 1,219,-1
 372 84 l 1,220,221
 376 84 376 84 377.5 88.5 c 128,-1,222
 379 93 379 93 383 93 c 1,223,-1
 434 117 l 1,224,-1
 442 112 l 1,225,226
 446 120 446 120 446 125 c 1,227,228
 429 123 429 123 411.5 116.5 c 128,-1,229
 394 110 394 110 379 105 c 1,230,231
 377 97 377 97 367 97 c 2,213,-1
103 46 m 1,232,-1
 121 41 l 2,233,234
 122 41 122 41 127.5 45.5 c 128,-1,235
 133 50 133 50 141.5 56 c 128,-1,236
 150 62 150 62 159.5 69 c 128,-1,237
 169 76 169 76 178 81 c 1,238,-1
 178 85 l 1,239,-1
 170 85 l 1,240,-1
 103 50 l 1,241,-1
 103 46 l 1,232,-1
198 81 m 0,242,243
 193 81 193 81 177.5 68.5 c 128,-1,244
 162 56 162 56 162 54 c 1,245,246
 175 56 175 56 185.5 63.5 c 128,-1,247
 196 71 196 71 209 73 c 1,248,249
 208 75 208 75 203.5 78 c 128,-1,250
 199 81 199 81 198 81 c 0,242,243
150 112 m 1,251,-1
 142 113 l 1,252,253
 125 113 125 113 112 103 c 128,-1,254
 99 93 99 93 87 93 c 128,-1,255
 75 93 75 93 75 97.5 c 128,-1,256
 75 102 75 102 83 109.5 c 128,-1,257
 91 117 91 117 95 117 c 1,258,-1
 126 153 l 1,259,-1
 131 145 l 1,260,261
 131 149 131 149 132.5 156.5 c 128,-1,262
 134 164 134 164 134 168 c 1,263,-1
 118 161 l 1,264,-1
 115 164 l 1,265,266
 108 154 108 154 98.5 151 c 128,-1,267
 89 148 89 148 80 145.5 c 128,-1,268
 71 143 71 143 65 138 c 128,-1,269
 59 133 59 133 59 117 c 128,-1,270
 59 101 59 101 70.5 87 c 128,-1,271
 82 73 82 73 87 57 c 1,272,273
 104 62 104 62 120 80 c 128,-1,274
 136 98 136 98 150 112 c 1,251,-1
165 97 m 1,275,276
 165 100 165 100 160.5 101 c 128,-1,277
 156 102 156 102 149.5 96 c 128,-1,278
 143 90 143 90 142 85 c 1,279,280
 147 85 147 85 154 90 c 128,-1,281
 161 95 161 95 165 97 c 1,275,276
481 85 m 1,282,-1
 487 85 l 1,283,284
 487 91 487 91 481 93 c 1,285,-1
 481 85 l 1,282,-1
466 117 m 1,286,287
 457 117 457 117 445.5 106 c 128,-1,288
 434 95 434 95 434 89 c 1,289,290
 437 90 437 90 443.5 90.5 c 128,-1,291
 450 91 450 91 456 92 c 0,292,293
 474 93 474 93 474 101 c 0,294,295
 474 103 474 103 471 109 c 128,-1,296
 468 115 468 115 466 117 c 1,286,287
157 211 m 0,297,298
 157 155 157 155 168 140.5 c 128,-1,299
 179 126 179 126 181 116 c 128,-1,300
 183 106 183 106 194 106 c 256,301,302
 205 106 205 106 217.5 99.5 c 128,-1,303
 230 93 230 93 250 93 c 0,304,305
 314 93 314 93 344 117 c 1,306,307
 339 124 339 124 331 127.5 c 128,-1,308
 323 131 323 131 310 141 c 0,309,310
 289 156 289 156 261 192 c 1,311,312
 256 192 256 192 244.5 203.5 c 128,-1,313
 233 215 233 215 233 219 c 1,314,315
 228 222 228 222 224 224 c 128,-1,316
 220 226 220 226 216 230 c 1,317,318
 203 239 203 239 190 255 c 1,319,320
 175 255 175 255 166 239 c 128,-1,321
 157 223 157 223 157 211 c 0,297,298
95 105 m 1,322,323
 98 107 98 107 106.5 109.5 c 128,-1,324
 115 112 115 112 124 116 c 0,325,326
 147 124 147 124 147 132 c 0,327,328
 147 137 147 137 145.5 140 c 128,-1,329
 144 143 144 143 142 148 c 1,330,-1
 95 109 l 1,331,-1
 95 105 l 1,322,323
486 200 m 1,332,333
 473 193 473 193 457 177 c 0,334,335
 430 150 430 150 418 147.5 c 128,-1,336
 406 145 406 145 396.5 135.5 c 128,-1,337
 387 126 387 126 379 117 c 1,338,339
 431 122 431 122 450 133 c 0,340,341
 486 155 486 155 486 200 c 1,332,333
414 164 m 1,342,-1
 359 135 l 1,343,344
 359 128 359 128 369 128 c 0,345,346
 376 128 376 128 389 139 c 0,347,348
 414 159 414 159 414 164 c 1,342,-1
320 164 m 1,349,350
 320 158 320 158 329.5 153 c 128,-1,351
 339 148 339 148 341.5 148 c 128,-1,352
 344 148 344 148 352.5 154 c 128,-1,353
 361 160 361 160 370 168 c 0,354,355
 395 187 395 187 395 191 c 128,-1,356
 395 195 395 195 391 195 c 1,357,-1
 375 187 l 1,358,-1
 320 164 l 1,349,350
143 181 m 1,359,360
 143 204 143 204 137.5 204 c 128,-1,361
 132 204 132 204 122.5 197.5 c 128,-1,362
 113 191 113 191 103 182 c 0,363,364
 78 161 78 161 71 156 c 1,365,-1
 75 153 l 1,366,367
 79 153 79 153 100 163.5 c 128,-1,368
 121 174 121 174 123 176 c 1,369,370
 123 172 123 172 126.5 172 c 128,-1,371
 130 172 130 172 133.5 176.5 c 128,-1,372
 137 181 137 181 143 181 c 1,359,360
131 219 m 1,373,374
 127 219 127 219 105 209 c 0,375,376
 68 192 68 192 63 187 c 1,377,378
 59 176 59 176 59 173.5 c 128,-1,379
 59 171 59 171 59.5 168.5 c 128,-1,380
 60 166 60 166 60 161 c 1,381,382
 70 166 70 166 99 190.5 c 128,-1,383
 128 215 128 215 131 219 c 1,373,374
426 199 m 1,384,-1
 419 200 l 1,385,386
 416 187 416 187 406 180.5 c 128,-1,387
 396 174 396 174 389.5 170.5 c 128,-1,388
 383 167 383 167 379 161 c 1,389,-1
 383 161 l 2,390,391
 387 161 387 161 395.5 164.5 c 128,-1,392
 404 168 404 168 408.5 169.5 c 128,-1,393
 413 171 413 171 414 172 c 1,394,395
 422 172 422 172 422 168 c 1,396,397
 423 178 423 178 437.5 185 c 128,-1,398
 452 192 452 192 459.5 196.5 c 128,-1,399
 467 201 467 201 470 208 c 1,400,401
 456 208 456 208 447 203.5 c 128,-1,402
 438 199 438 199 426 199 c 1,384,-1
289 192 m 1,403,404
 289 187 289 187 292.5 183 c 128,-1,405
 296 179 296 179 301.5 179 c 128,-1,406
 307 179 307 179 314 183 c 128,-1,407
 321 187 321 187 328 192.5 c 128,-1,408
 335 198 335 198 341 203 c 128,-1,409
 347 208 347 208 351 211 c 1,410,411
 340 211 340 211 316 203 c 2,412,-1
 292 195 l 1,413,-1
 289 192 l 1,403,404
395 209 m 0,414,415
 395 219 395 219 388.5 219 c 128,-1,416
 382 219 382 219 375 215.5 c 128,-1,417
 368 212 368 212 361 207 c 0,418,419
 346 196 346 196 339 187 c 1,420,421
 365 187 365 187 389 203 c 0,422,423
 395 207 395 207 395 209 c 0,414,415
276 208 m 1,424,425
 292 219 292 219 307.5 228.5 c 128,-1,426
 323 238 323 238 339 251 c 1,427,428
 338 250 338 250 334 250 c 0,429,430
 325 250 325 250 323 255 c 1,431,-1
 339 263 l 1,432,-1
 344 259 l 1,433,434
 344 269 344 269 334.5 276 c 128,-1,435
 325 283 325 283 310.5 283 c 128,-1,436
 296 283 296 283 277.5 268 c 128,-1,437
 259 253 259 253 233 239 c 1,438,439
 257 239 257 239 269 242.5 c 128,-1,440
 281 246 281 246 300 251 c 1,441,-1
 300 243 l 1,442,443
 272 243 272 243 256 227 c 1,444,-1
 276 208 l 1,424,425
491 219 m 1,445,446
 477 219 477 219 477 211 c 1,447,-1
 478 208 l 1,448,449
 481 211 481 211 485 213 c 128,-1,450
 489 215 489 215 491 219 c 1,445,446
192 274 m 1,451,-1
 198 275 l 1,452,453
 213 284 213 284 224 290 c 0,454,455
 253 307 253 307 253 310 c 1,456,457
 250 310 250 310 240.5 306 c 128,-1,458
 231 302 231 302 229 302 c 1,459,-1
 233 310 l 1,460,-1
 264 326 l 1,461,-1
 261 330 l 1,462,463
 255 330 255 330 237 324.5 c 128,-1,464
 219 319 219 319 206 310 c 1,465,-1
 206 314 l 1,466,467
 189 306 189 306 189 300 c 1,468,469
 199 300 199 300 201 294 c 1,470,471
 190 287 190 287 176 284 c 128,-1,472
 162 281 162 281 154 270 c 1,473,474
 142 257 142 257 124 246 c 0,475,476
 88 224 88 224 79 211 c 1,477,478
 92 211 92 211 103 219.5 c 128,-1,479
 114 228 114 228 123 228 c 128,-1,480
 132 228 132 228 134 227 c 1,481,482
 150 241 150 241 161.5 257 c 128,-1,483
 173 273 173 273 178 275 c 1,484,-1
 192 274 l 1,451,-1
355 263 m 1,485,486
 355 242 355 242 338 242 c 0,487,488
 330 242 330 242 324.5 236 c 128,-1,489
 319 230 319 230 314.5 225 c 128,-1,490
 310 220 310 220 303 211 c 1,491,492
 319 211 319 211 349 223 c 128,-1,493
 379 235 379 235 379 236 c 0,494,495
 379 240 379 240 367.5 251.5 c 128,-1,496
 356 263 356 263 355 263 c 1,485,486
430 211 m 1,497,-1
 470 239 l 1,498,-1
 470 243 l 1,499,-1
 426 219 l 1,500,-1
 430 211 l 1,497,-1
123 255 m 1,501,502
 85 255 85 255 75 239 c 1,503,504
 67 236 67 236 67 219 c 1,505,506
 72 223 72 223 80.5 227.5 c 128,-1,507
 89 232 89 232 98 236 c 1,508,509
 117 247 117 247 123 255 c 1,501,502
498 244 m 1,510,511
 493 244 493 244 483 237.5 c 128,-1,512
 473 231 473 231 473 226 c 0,513,514
 473 225 473 225 473.5 224.5 c 128,-1,515
 474 224 474 224 474 223 c 1,516,517
 484 228 484 228 491 228.5 c 128,-1,518
 498 229 498 229 498 244 c 1,510,511
426 239 m 1,519,-1
 482 288 l 1,520,-1
 481 291 l 1,521,522
 465 291 465 291 451 280 c 0,523,524
 425 260 425 260 425 245 c 0,525,526
 425 241 425 241 426 239 c 1,519,-1
517 278 m 1,527,528
 513 266 513 266 513 243 c 2,529,-1
 513 239 l 1,530,531
 518 244 518 244 518 251.5 c 128,-1,532
 518 259 518 259 517.5 266 c 128,-1,533
 517 273 517 273 517 278 c 1,527,528
225 268 m 1,534,-1
 217 259 l 1,535,536
 223 247 223 247 225 247 c 0,537,538
 232 251 232 251 241 256.5 c 128,-1,539
 250 262 250 262 258 266 c 1,540,541
 276 278 276 278 276 278 c 1,542,-1
 264 279 l 2,543,544
 254 279 254 279 248.5 276 c 128,-1,545
 243 273 243 273 233 270 c 1,546,-1
 233 275 l 2,547,548
 233 280 233 280 254 285 c 0,549,550
 296 295 296 295 300 298 c 1,551,-1
 289 310 l 1,552,553
 276 301 276 301 262 296 c 0,554,555
 236 288 236 288 217 275 c 1,556,-1
 223 275 l 1,557,-1
 225 268 l 1,534,-1
486 278 m 1,558,-1
 464 256 l 2,559,560
 460 252 460 252 460 251 c 1,561,562
 468 251 468 251 478 259 c 128,-1,563
 488 267 488 267 493 267 c 0,564,565
 502 267 502 267 502 263 c 1,566,567
 506 273 506 273 506 287 c 1,568,569
 500 287 500 287 496.5 282.5 c 128,-1,570
 493 278 493 278 486 278 c 1,558,-1
150 298 m 1,571,572
 145 294 145 294 134 289.5 c 128,-1,573
 123 285 123 285 112 280 c 0,574,575
 84 267 84 267 83 259 c 1,576,-1
 87 259 l 1,577,578
 123 269 123 269 138 275 c 1,579,580
 137 276 137 276 137 280 c 128,-1,581
 137 284 137 284 142.5 288.5 c 128,-1,582
 148 293 148 293 150 298 c 1,571,572
430 275 m 1,583,584
 430 283 430 283 444.5 294.5 c 128,-1,585
 459 306 459 306 462 306 c 2,586,-1
 438 314 l 1,587,588
 438 309 438 309 436 308 c 128,-1,589
 434 307 434 307 432 306 c 0,590,591
 426 304 426 304 426 296.5 c 128,-1,592
 426 289 426 289 430 275 c 1,583,584
138 302 m 1,593,-1
 155 307 l 1,594,595
 161 307 161 307 165 298 c 1,596,597
 181 306 181 306 195 316 c 128,-1,598
 209 326 209 326 229 334 c 1,599,-1
 170 329 l 1,600,601
 154 329 154 329 154 334.5 c 128,-1,602
 154 340 154 340 160 345 c 128,-1,603
 166 350 166 350 173.5 355.5 c 128,-1,604
 181 361 181 361 188.5 365.5 c 128,-1,605
 196 370 196 370 198 373 c 1,606,-1
 193 374 l 1,607,608
 193 374 193 374 158 361 c 1,609,-1
 158 366 l 1,610,611
 155 363 155 363 146.5 358 c 128,-1,612
 138 353 138 353 138 346 c 1,613,-1
 142 322 l 1,614,-1
 138 302 l 1,593,-1
221 377 m 1,615,616
 178 350 178 350 165 334 c 1,617,618
 182 338 182 338 198.5 340.5 c 128,-1,619
 215 343 215 343 230 346 c 0,620,621
 265 353 265 353 292 369 c 1,622,-1
 296 369 l 1,623,-1
 320 393 l 1,624,625
 297 393 297 393 275.5 384.5 c 128,-1,626
 254 376 254 376 239 376 c 128,-1,627
 224 376 224 376 221 377 c 1,615,616
106 404 m 1,628,629
 108 391 108 391 113 385.5 c 128,-1,630
 118 380 118 380 126 369 c 1,631,-1
 131 369 l 1,632,633
 145 379 145 379 154 385.5 c 128,-1,634
 163 392 163 392 172.5 398.5 c 128,-1,635
 182 405 182 405 186 409 c 1,636,637
 182 409 182 409 182 413 c 1,638,639
 163 413 163 413 144.5 408.5 c 128,-1,640
 126 404 126 404 106 404 c 1,628,629
206 394 m 1,641,642
 189 394 189 394 178.5 389 c 128,-1,643
 168 384 168 384 154 373 c 1,644,645
 163 373 163 373 177.5 382.5 c 128,-1,646
 192 392 192 392 206 394 c 1,641,642
266 393 m 1,647,-1
 300 405 l 2,648,649
 320 412 320 412 333.5 416 c 128,-1,650
 347 420 347 420 356 430 c 0,651,652
 372 448 372 448 372 508 c 1,653,654
 357 508 357 508 343.5 496.5 c 128,-1,655
 330 485 330 485 316 480 c 1,656,-1
 316 475 l 1,657,658
 327 475 327 475 335.5 479 c 128,-1,659
 344 483 344 483 351 483 c 128,-1,660
 358 483 358 483 363 480 c 128,-1,661
 368 477 368 477 368 474.5 c 128,-1,662
 368 472 368 472 348.5 460 c 128,-1,663
 329 448 329 448 305 434 c 0,664,665
 253 404 253 404 237 393 c 1,666,667
 251 397 251 397 256 397 c 1,668,-1
 266 393 l 1,647,-1
237 401 m 1,669,670
 244 408 244 408 257 416 c 0,671,672
 282 431 282 431 289 436 c 2,673,-1
 331 460 l 1,674,-1
 331 468 l 1,675,676
 326 464 326 464 320 464 c 256,677,678
 314 464 314 464 312 468 c 1,679,-1
 308 460 l 2,680,681
 307 459 307 459 297 456.5 c 128,-1,682
 287 454 287 454 282.5 452.5 c 128,-1,683
 278 451 278 451 269.5 445.5 c 128,-1,684
 261 440 261 440 253 432 c 0,685,686
 232 413 232 413 232 407 c 128,-1,687
 232 401 232 401 237 401 c 1,669,670
193 459 m 1,688,-1
 198 444 l 1,689,-1
 217 409 l 1,690,691
 225 420 225 420 235 432 c 128,-1,692
 245 444 245 444 254 457 c 0,693,694
 273 487 273 487 273 512 c 0,695,696
 273 517 273 517 268.5 519.5 c 128,-1,697
 264 522 264 522 264 527.5 c 128,-1,698
 264 533 264 533 268 535 c 1,699,700
 268 540 268 540 256 540 c 0,701,702
 221 540 221 540 207 515 c 128,-1,703
 193 490 193 490 193 459 c 1,688,-1
91 492 m 1,704,705
 95 492 95 492 103 496 c 0,706,707
 105 496 105 496 105.5 494.5 c 128,-1,708
 106 493 106 493 106.5 492 c 128,-1,709
 107 491 107 491 103 483 c 1,710,711
 115 493 115 493 142 500 c 1,712,-1
 90 463 l 2,713,714
 87 460 87 460 87 451.5 c 128,-1,715
 87 443 87 443 92 430.5 c 128,-1,716
 97 418 97 418 103 413 c 1,717,-1
 158 456 l 1,718,-1
 158 460 l 1,719,720
 143 456 143 456 140 456 c 256,721,722
 137 456 137 456 134 457 c 128,-1,723
 131 458 131 458 123 460 c 1,724,-1
 170 472 l 1,725,-1
 170 468 l 1,726,727
 178 475 178 475 178 496 c 1,728,729
 172 487 172 487 163 483 c 128,-1,730
 154 479 154 479 144.5 475 c 128,-1,731
 135 471 135 471 126.5 466.5 c 128,-1,732
 118 462 118 462 115 452 c 1,733,734
 112 454 112 454 108.5 454 c 128,-1,735
 105 454 105 454 99 452 c 1,736,-1
 99 460 l 1,737,738
 122 470 122 470 154 492 c 1,739,-1
 142 492 l 1,740,741
 147 499 147 499 161.5 502.5 c 128,-1,742
 176 506 176 506 180.5 507 c 128,-1,743
 185 508 185 508 187.5 513.5 c 128,-1,744
 190 519 190 519 193 526 c 0,745,746
 202 544 202 544 209 547 c 2,747,-1
 245 563 l 2,748,749
 256 568 256 568 265.5 577 c 128,-1,750
 275 586 275 586 289 594 c 1,751,752
 281 592 281 592 271.5 587 c 128,-1,753
 262 582 262 582 252 578 c 0,754,755
 226 566 226 566 213 566 c 2,756,-1
 209 566 l 1,757,-1
 225 574 l 1,758,-1
 209 574 l 1,759,760
 222 589 222 589 237 600.5 c 128,-1,761
 252 612 252 612 264 626 c 1,762,763
 248 622 248 622 234 609 c 2,764,-1
 214 590 l 2,765,766
 207 584 207 584 198 581 c 1,767,768
 187 581 187 581 165.5 564 c 128,-1,769
 144 547 144 547 134 539 c 128,-1,770
 124 531 124 531 117 531 c 128,-1,771
 110 531 110 531 110 535 c 0,772,773
 110 542 110 542 118 546 c 128,-1,774
 126 550 126 550 131 555 c 1,775,776
 103 545 103 545 98 536 c 0,777,778
 91 524 91 524 91 492 c 1,704,705
131 421 m 1,779,780
 135 417 135 417 144 417 c 0,781,782
 178 417 178 417 178 433 c 1,783,784
 177 435 177 435 174.5 442.5 c 128,-1,785
 172 450 172 450 170 452 c 1,786,787
 161 441 161 441 150 436.5 c 128,-1,788
 139 432 139 432 131 421 c 1,779,780
328 503 m 1,789,790
 324 500 324 500 317 497.5 c 128,-1,791
 310 495 310 495 302 492 c 0,792,793
 284 485 284 485 284 475 c 1,794,-1
 289 475 l 1,795,-1
 331 500 l 1,796,-1
 328 503 l 1,789,790
113 510 m 1,797,798
 118 510 118 510 140 532 c 1,799,800
 140 520 140 520 130.5 514 c 128,-1,801
 121 508 121 508 113 504 c 1,802,-1
 113 510 l 1,797,798
206 555 m 1,803,804
 205 554 205 554 201 547.5 c 128,-1,805
 197 541 197 541 193.5 539 c 128,-1,806
 190 537 190 537 183.5 533 c 128,-1,807
 177 529 177 529 170 525 c 0,808,809
 157 518 157 518 146 511 c 1,810,811
 146 525 146 525 158 536 c 0,812,813
 180 555 180 555 196 555 c 2,814,-1
 206 555 l 1,803,804
300 511 m 1,815,-1
 331 539 l 1,816,-1
 328 543 l 1,817,818
 323 540 323 540 313 535 c 0,819,820
 296 527 296 527 296 521 c 0,821,822
 296 514 296 514 300 511 c 1,815,-1
300 574 m 1,823,824
 300 586 300 586 331 586 c 0,825,826
 338 586 338 586 344 583 c 1,827,-1
 312 551 l 1,828,-1
 312 547 l 1,829,-1
 359 558 l 1,830,831
 364 558 364 558 364 551 c 1,832,833
 361 543 361 543 347 533 c 0,834,835
 321 516 321 516 320 511 c 1,836,837
 326 514 326 514 334.5 516 c 128,-1,838
 343 518 343 518 352 520 c 0,839,840
 372 525 372 525 372 531 c 0,841,842
 372 563 372 563 343 594 c 0,843,844
 336 602 336 602 331 602 c 2,845,-1
 323 602 l 1,846,847
 284 574 284 574 279 571 c 1,848,849
 288 571 288 571 296 579 c 1,850,-1
 300 574 l 1,823,824
276 555 m 1,851,852
 282 552 282 552 288 550 c 1,853,854
 292 554 292 554 297 558 c 128,-1,855
 302 562 302 562 302 563 c 1,856,857
 281 563 281 563 276 555 c 1,851,852
249 640 m 1,858,859
 203 640 203 640 182 622 c 0,860,861
 174 615 174 615 162 608.5 c 128,-1,862
 150 602 150 602 138 594 c 0,863,864
 110 576 110 576 110 558 c 1,865,866
 122 566 122 566 143 575 c 128,-1,867
 164 584 164 584 186 594 c 0,868,869
 240 619 240 619 249 640 c 1,858,859
286 634 m 0,870,871
 281 634 281 634 281 622 c 1,872,873
 278 618 278 618 271.5 613.5 c 128,-1,874
 265 609 265 609 258 604 c 0,875,876
 240 591 240 591 240 586 c 1,877,-1
 312 618 l 1,878,879
 304 620 304 620 299 627 c 128,-1,880
 294 634 294 634 286 634 c 0,870,871
EndSplineSet
EndChar

StartChar: quotesingle
Encoding: 39 39 10
Width: 193
Flags: W
LayerCount: 2
Fore
SplineSet
150 492 m 1,0,1
 150 370 150 370 128 370 c 0,2,3
 91 370 91 370 64 386 c 0,4,5
 55 391 55 391 55 396 c 0,6,7
 52 419 52 419 47 447 c 128,-1,8
 42 475 42 475 38 504 c 0,9,10
 28 576 28 576 28 603.5 c 128,-1,11
 28 631 28 631 24 639 c 128,-1,12
 20 647 20 647 20 659 c 0,13,14
 20 663 20 663 60 671 c 0,15,16
 130 685 130 685 147 685 c 0,17,18
 154 685 154 685 154 676 c 0,19,20
 154 652 154 652 149.5 627 c 128,-1,21
 145 602 145 602 145 577 c 1,22,-1
 150 492 l 1,0,1
89 417 m 1,23,-1
 115 417 l 1,24,-1
 115 426 l 1,25,-1
 89 417 l 1,23,-1
77 448 m 1,26,27
 76 441 76 441 76 437 c 128,-1,28
 76 433 76 433 75 430.5 c 128,-1,29
 74 428 74 428 74 427 c 1,30,31
 90 437 90 437 115 443 c 1,32,-1
 111 448 l 1,33,-1
 77 448 l 1,26,27
94 465 m 1,34,35
 96 463 96 463 99.5 462.5 c 128,-1,36
 103 462 103 462 108 461 c 256,37,38
 113 460 113 460 119 460 c 1,39,-1
 119 475 l 1,40,41
 107 475 107 475 94 465 c 1,34,35
119 495 m 1,42,-1
 104 496 l 1,43,44
 96 495 96 495 83.5 494.5 c 128,-1,45
 71 494 71 494 71 486 c 0,46,47
 71 473 71 473 78 473 c 0,48,49
 88 473 88 473 103 484 c 2,50,-1
 119 495 l 1,42,-1
119 508 m 1,51,-1
 119 521 l 1,52,-1
 102 512 l 1,53,-1
 119 508 l 1,51,-1
72 542 m 2,54,55
 68 542 68 542 68 548.5 c 128,-1,56
 68 555 68 555 72 560 c 128,-1,57
 76 565 76 565 82 570 c 0,58,59
 95 580 95 580 98 582 c 1,60,61
 73 582 73 582 59 573 c 1,62,63
 64 571 64 571 64 564.5 c 128,-1,64
 64 558 64 558 61.5 555.5 c 128,-1,65
 59 553 59 553 59 544 c 0,66,67
 59 520 59 520 72 512 c 1,68,69
 75 515 75 515 82.5 518 c 128,-1,70
 90 521 90 521 98 524 c 0,71,72
 116 533 116 533 116 536 c 0,73,74
 116 538 116 538 114 540 c 128,-1,75
 112 542 112 542 111 542 c 2,76,-1
 72 542 l 2,54,55
102 564 m 1,77,78
 108 559 108 559 119 559 c 1,79,-1
 119 573 l 1,80,-1
 102 564 l 1,77,78
94 655 m 1,81,82
 46 655 46 655 46 633 c 0,83,84
 46 622 46 622 50.5 608 c 128,-1,85
 55 594 55 594 55 582 c 1,86,87
 62 601 62 601 108 622 c 0,88,89
 118 626 118 626 124 629 c 1,90,91
 110 629 110 629 97 624.5 c 128,-1,92
 84 620 84 620 74.5 620 c 128,-1,93
 65 620 65 620 63 624 c 1,94,-1
 94 655 l 1,81,82
104 599 m 2,95,96
 125 599 125 599 125 607 c 0,97,98
 125 608 125 608 124.5 609.5 c 128,-1,99
 124 611 124 611 124 612 c 2,100,-1
 98 599 l 1,101,-1
 104 599 l 2,95,96
129 656 m 1,102,103
 115 656 115 656 94 638 c 1,104,105
 119 638 119 638 128 641 c 1,106,-1
 129 656 l 1,102,103
EndSplineSet
EndChar

StartChar: parenleft
Encoding: 40 40 11
Width: 289
Flags: W
LayerCount: 2
Fore
SplineSet
263 -143 m 1,0,1
 259 -154 259 -154 255 -156 c 1,2,3
 231 -156 231 -156 211.5 -160.5 c 128,-1,4
 192 -165 192 -165 172 -165 c 128,-1,5
 152 -165 152 -165 135 -151.5 c 128,-1,6
 118 -138 118 -138 113 -121 c 2,7,-1
 65 29 l 2,8,9
 51 71 51 71 51 250 c 2,10,-1
 51 297 l 2,11,12
 51 435 51 435 98 618 c 0,13,14
 111 671 111 671 119 690 c 128,-1,15
 127 709 127 709 127 713 c 2,16,-1
 125 728 l 1,17,18
 125 740 125 740 152 740 c 128,-1,19
 179 740 179 740 195.5 735.5 c 128,-1,20
 212 731 212 731 226 731 c 128,-1,21
 240 731 240 731 243 734 c 128,-1,22
 246 737 246 737 254 737 c 0,23,24
 277 737 277 737 277 722 c 0,25,26
 277 714 277 714 266 705.5 c 128,-1,27
 255 697 255 697 248 684 c 128,-1,28
 241 671 241 671 235 652 c 128,-1,29
 229 633 229 633 224 614 c 0,30,31
 211 566 211 566 195 542 c 1,32,33
 194 520 194 520 186 498 c 0,34,35
 173 458 173 458 173 426 c 128,-1,36
 173 394 173 394 167 359 c 128,-1,37
 161 324 161 324 161 271 c 0,38,39
 161 168 161 168 199 4 c 0,40,41
 203 -14 203 -14 220 -56 c 0,42,43
 252 -132 252 -132 263 -143 c 1,0,1
142 -113 m 1,44,45
 142 -119 142 -119 150 -128 c 0,46,47
 163 -144 163 -144 168 -144 c 1,48,49
 177 -135 177 -135 183.5 -127 c 128,-1,50
 190 -119 190 -119 204 -104 c 1,51,52
 189 -105 189 -105 173 -109 c 128,-1,53
 157 -113 157 -113 142 -113 c 1,44,45
191 -139 m 2,54,-1
 196 -139 l 2,55,56
 207 -139 207 -139 210 -135.5 c 128,-1,57
 213 -132 213 -132 227 -132 c 1,58,59
 227 -122 227 -122 216 -117 c 1,60,-1
 190 -138 l 2,61,62
 190 -139 190 -139 191 -139 c 2,54,-1
138 -100 m 1,63,64
 196 -92 196 -92 196 -89 c 1,65,66
 192 -81 192 -81 191 -75 c 128,-1,67
 190 -69 190 -69 184 -69 c 128,-1,68
 178 -69 178 -69 178 -70 c 2,69,-1
 134 -95 l 1,70,-1
 138 -100 l 1,63,64
160 60 m 1,71,-1
 87 47 l 1,72,73
 87 0 87 0 105 -18 c 1,74,-1
 108 -22 l 1,75,76
 110 -30 110 -30 112.5 -40.5 c 128,-1,77
 115 -51 115 -51 118 -60 c 0,78,79
 125 -82 125 -82 129 -82 c 0,80,81
 134 -82 134 -82 152 -70 c 128,-1,82
 170 -58 170 -58 182 -48 c 1,83,-1
 130 -52 l 1,84,-1
 130 -30 l 1,85,-1
 169 8 l 1,86,-1
 160 9 l 1,87,88
 148 9 148 9 138.5 6 c 128,-1,89
 129 3 129 3 114 3 c 128,-1,90
 99 3 99 3 99 9.5 c 128,-1,91
 99 16 99 16 107.5 22.5 c 128,-1,92
 116 29 116 29 128 36 c 0,93,94
 160 54 160 54 164 60 c 1,95,-1
 160 60 l 1,71,-1
134 -39 m 1,96,-1
 141 -40 l 1,97,98
 162 -40 162 -40 170 -35.5 c 128,-1,99
 178 -31 178 -31 178 -28 c 0,100,101
 178 -23 178 -23 173 -13 c 1,102,103
 157 -16 157 -16 134 -39 c 1,96,-1
169 26 m 0,104,105
 169 50 169 50 137 30 c 0,106,107
 124 21 124 21 117 12 c 1,108,109
 135 12 135 12 152 18 c 128,-1,110
 169 24 169 24 169 26 c 0,104,105
90 108 m 1,111,-1
 91 111 l 2,112,113
 91 113 91 113 88 114 c 0,114,115
 83 115 83 115 93 125 c 0,116,117
 104 136 104 136 118 144 c 0,118,119
 134 153 134 153 134 154 c 1,120,-1
 69 154 l 1,121,122
 71 126 71 126 75.5 95 c 128,-1,123
 80 64 80 64 82 64 c 0,124,125
 87 64 87 64 119 87 c 128,-1,126
 151 110 151 110 152 112 c 1,127,-1
 90 108 l 1,111,-1
117 63 m 1,128,129
 161 63 161 63 161 86 c 0,130,131
 161 87 161 87 160.5 90 c 128,-1,132
 160 93 160 93 160 95 c 1,133,134
 153 92 153 92 143.5 88 c 128,-1,135
 134 84 134 84 126 80 c 0,136,137
 105 69 105 69 105 64 c 1,138,-1
 117 63 l 1,128,129
108 120 m 1,139,140
 130 120 130 120 152 128 c 1,141,142
 152 135 152 135 149.5 136 c 128,-1,143
 147 137 147 137 144 137 c 0,144,145
 122 137 122 137 108 120 c 1,139,140
147 194 m 1,146,147
 134 194 134 194 113 185 c 128,-1,148
 92 176 92 176 82 168 c 1,149,-1
 147 168 l 1,150,-1
 147 194 l 1,146,147
70 176 m 1,151,152
 116 193 116 193 138 215 c 1,153,-1
 70 215 l 1,154,-1
 70 176 l 1,151,152
70 224 m 1,155,-1
 74 232 l 1,156,157
 79 236 79 236 89 243 c 128,-1,158
 99 250 99 250 109 257 c 0,159,160
 134 274 134 274 134 276 c 1,161,162
 106 276 106 276 70 267 c 1,163,-1
 74 262 l 1,164,-1
 70 258 l 1,165,-1
 70 224 l 1,155,-1
96 227 m 2,166,167
 113 227 113 227 138 232 c 1,168,-1
 138 253 l 1,169,-1
 126 253 l 2,170,171
 123 253 123 253 108 241 c 128,-1,172
 93 229 93 229 91 227 c 1,173,-1
 96 227 l 2,166,167
87 284 m 1,174,-1
 130 288 l 1,175,-1
 130 310 l 1,176,-1
 126 310 l 1,177,178
 124 309 124 309 117.5 306.5 c 128,-1,179
 111 304 111 304 104 300 c 0,180,181
 87 292 87 292 87 288 c 2,182,-1
 87 284 l 1,174,-1
82 335 m 1,183,184
 74 332 74 332 74 308 c 2,185,-1
 74 297 l 1,186,-1
 126 327 l 1,187,188
 120 328 120 328 113 328.5 c 128,-1,189
 106 329 106 329 99 330 c 0,190,191
 83 331 83 331 82 335 c 1,183,184
130 370 m 0,192,193
 113 370 113 370 99 352 c 0,194,195
 95 347 95 347 95 343 c 1,196,-1
 100 343 l 2,197,198
 116 343 116 343 125 346 c 128,-1,199
 134 349 134 349 134 367 c 0,200,201
 134 370 134 370 130 370 c 0,192,193
133 405 m 2,202,203
 112 405 112 405 95 401 c 128,-1,204
 78 397 78 397 78 374 c 0,205,206
 78 366 78 366 78.5 361.5 c 128,-1,207
 79 357 79 357 79 349 c 1,208,209
 83 354 83 354 93 361 c 128,-1,210
 103 368 103 368 114 376 c 0,211,212
 140 394 140 394 140 405 c 1,213,-1
 133 405 l 2,202,203
134 439 m 1,214,215
 96 417 96 417 96 413 c 1,216,-1
 108 413 l 2,217,218
 120 413 120 413 130 417 c 128,-1,219
 140 421 140 421 140 439 c 1,220,-1
 134 439 l 1,214,215
105 465 m 2,221,222
 95 465 95 465 95 440 c 2,223,-1
 95 434 l 1,224,225
 108 434 108 434 120 440 c 0,226,227
 143 453 143 453 143 465 c 1,228,-1
 105 465 l 2,221,222
152 508 m 1,229,230
 128 504 128 504 118 494 c 128,-1,231
 108 484 108 484 108 478 c 1,232,233
 127 478 127 478 139 483 c 128,-1,234
 151 488 151 488 152 508 c 1,229,230
152 530 m 2,235,236
 140 530 140 530 127 528 c 2,237,-1
 113 525 l 1,238,-1
 113 503 l 1,239,240
 122 503 122 503 136 512.5 c 128,-1,241
 150 522 150 522 156 530 c 1,242,-1
 152 530 l 2,235,236
126 538 m 1,243,244
 135 539 135 539 143 539.5 c 128,-1,245
 151 540 151 540 158 542 c 0,246,247
 173 546 173 546 178 564 c 1,248,249
 163 560 163 560 149.5 553.5 c 128,-1,250
 136 547 136 547 121 542 c 1,251,-1
 126 538 l 1,243,244
117 573 m 1,252,253
 113 569 113 569 113 557 c 2,254,-1
 113 547 l 1,255,256
 116 552 116 552 139 561 c 0,257,258
 182 578 182 578 182 582 c 2,259,-1
 182 586 l 1,260,-1
 176 586 l 2,261,262
 138 586 138 586 129.5 580.5 c 128,-1,263
 121 575 121 575 121 568 c 1,264,-1
 117 573 l 1,252,253
204 642 m 1,265,266
 162 642 162 642 130 633 c 1,267,268
 128 628 128 628 126 619.5 c 128,-1,269
 124 611 124 611 122 604 c 0,270,271
 117 585 117 585 117 585 c 1,272,273
 132 602 132 602 154 612.5 c 128,-1,274
 176 623 176 623 187 628 c 128,-1,275
 198 633 198 633 204 637 c 1,276,-1
 204 642 l 1,265,266
195 599 m 2,277,278
 197 599 197 599 199 605 c 128,-1,279
 201 611 201 611 201 616 c 1,280,281
 180 616 180 616 156 601 c 1,282,-1
 195 599 l 2,277,278
169 649 m 1,283,284
 217 649 217 649 217 676 c 0,285,286
 217 677 217 677 216.5 678.5 c 128,-1,287
 216 680 216 680 216 681 c 1,288,289
 192 674 192 674 147 650 c 1,290,-1
 169 649 l 1,283,284
182 698 m 1,291,292
 177 698 177 698 173 694.5 c 128,-1,293
 169 691 169 691 159 687.5 c 128,-1,294
 149 684 149 684 141.5 679.5 c 128,-1,295
 134 675 134 675 134 655 c 1,296,297
 151 662 151 662 171.5 670.5 c 128,-1,298
 192 679 192 679 204 693 c 1,299,-1
 182 693 l 1,300,-1
 182 698 l 1,291,292
186 715 m 1,301,-1
 175 719 l 1,302,303
 152 719 152 719 152 707 c 1,304,-1
 186 715 l 1,301,-1
EndSplineSet
EndChar

StartChar: parenright
Encoding: 41 41 12
Width: 289
Flags: W
LayerCount: 2
Fore
SplineSet
65 718 m 1,0,1
 69 729 69 729 73 731 c 1,2,3
 97 731 97 731 116.5 735.5 c 128,-1,4
 136 740 136 740 156 740 c 128,-1,5
 176 740 176 740 193 726.5 c 128,-1,6
 210 713 210 713 215 696 c 2,7,-1
 263 546 l 2,8,9
 273 513 273 513 274 448.5 c 128,-1,10
 275 384 275 384 276 357.5 c 128,-1,11
 277 331 277 331 277 310 c 2,12,-1
 277 278 l 2,13,14
 277 140 277 140 230 -43 c 0,15,16
 217 -96 217 -96 209 -115 c 128,-1,17
 201 -134 201 -134 201 -138 c 2,18,-1
 203 -153 l 1,19,20
 203 -165 203 -165 176 -165 c 128,-1,21
 149 -165 149 -165 132.5 -160.5 c 128,-1,22
 116 -156 116 -156 102 -156 c 128,-1,23
 88 -156 88 -156 85 -159 c 128,-1,24
 82 -162 82 -162 74 -162 c 0,25,26
 51 -162 51 -162 51 -147 c 0,27,28
 51 -139 51 -139 62 -130.5 c 128,-1,29
 73 -122 73 -122 80 -109 c 128,-1,30
 87 -96 87 -96 93 -77 c 128,-1,31
 99 -58 99 -58 104 -39 c 0,32,33
 116 7 116 7 133 33 c 1,34,35
 134 55 134 55 142 77 c 0,36,37
 155 117 155 117 155 149 c 128,-1,38
 155 181 155 181 161 216 c 128,-1,39
 167 251 167 251 167 304 c 0,40,41
 167 407 167 407 129 571 c 0,42,43
 125 589 125 589 108 631 c 0,44,45
 76 707 76 707 65 718 c 1,0,1
186 688 m 1,46,47
 186 694 186 694 178 703 c 0,48,49
 165 719 165 719 160 719 c 1,50,51
 150 709 150 709 124 679 c 1,52,53
 139 680 139 680 155 684 c 128,-1,54
 171 688 171 688 186 688 c 1,46,47
138 713 m 1,55,-1
 135 713 l 2,56,57
 134 713 134 713 127.5 713.5 c 128,-1,58
 121 714 121 714 118 710.5 c 128,-1,59
 115 707 115 707 101 707 c 1,60,61
 101 698 101 698 112 692 c 1,62,-1
 138 713 l 1,55,-1
190 675 m 1,63,64
 132 667 132 667 132 664 c 1,65,66
 136 656 136 656 137 650 c 128,-1,67
 138 644 138 644 144 644 c 128,-1,68
 150 644 150 644 150 645 c 2,69,-1
 194 670 l 1,70,-1
 190 675 l 1,63,64
168 515 m 1,71,-1
 241 528 l 1,72,73
 241 575 241 575 223 593 c 1,74,-1
 220 597 l 1,75,76
 218 605 218 605 215.5 615.5 c 128,-1,77
 213 626 213 626 210 635 c 0,78,79
 203 657 203 657 199 656 c 0,80,81
 184 655 184 655 146 623 c 1,82,-1
 198 627 l 1,83,-1
 198 605 l 1,84,-1
 159 567 l 1,85,-1
 168 566 l 1,86,87
 180 566 180 566 189.5 569 c 128,-1,88
 199 572 199 572 214 572 c 128,-1,89
 229 572 229 572 229 565.5 c 128,-1,90
 229 559 229 559 220 552.5 c 128,-1,91
 211 546 211 546 200 539.5 c 128,-1,92
 189 533 189 533 178.5 527 c 128,-1,93
 168 521 168 521 164 515 c 1,94,-1
 168 515 l 1,71,-1
194 614 m 1,95,-1
 187 615 l 1,96,97
 166 615 166 615 158 610.5 c 128,-1,98
 150 606 150 606 150 603 c 0,99,100
 150 598 150 598 155 588 c 1,101,102
 171 591 171 591 194 614 c 1,95,-1
159 549 m 0,103,104
 159 525 159 525 191 546 c 0,105,106
 204 554 204 554 211 563 c 1,107,108
 193 563 193 563 176 557 c 128,-1,109
 159 551 159 551 159 549 c 0,103,104
238 467 m 1,110,-1
 237 464 l 2,111,112
 237 462 237 462 240 462 c 0,113,114
 246 460 246 460 235.5 449.5 c 128,-1,115
 225 439 225 439 211 432 c 1,116,117
 194 422 194 422 194 421 c 1,118,-1
 259 421 l 1,119,120
 257 451 257 451 252.5 481 c 128,-1,121
 248 511 248 511 246 511 c 0,122,123
 241 511 241 511 209 488 c 128,-1,124
 177 465 177 465 176 463 c 1,125,-1
 238 467 l 1,110,-1
211 512 m 1,126,127
 167 512 167 512 167 489 c 0,128,129
 167 488 167 488 167.5 485 c 128,-1,130
 168 482 168 482 168 480 c 1,131,132
 175 483 175 483 184.5 487 c 128,-1,133
 194 491 194 491 202 496 c 1,134,135
 223 506 223 506 223 511 c 1,136,-1
 211 512 l 1,126,127
220 455 m 1,137,138
 198 455 198 455 176 447 c 1,139,140
 176 440 176 440 178.5 439 c 128,-1,141
 181 438 181 438 188 438 c 0,142,143
 207 438 207 438 220 455 c 1,137,138
181 381 m 1,144,145
 194 381 194 381 215 390 c 128,-1,146
 236 399 236 399 246 407 c 1,147,-1
 181 407 l 1,148,-1
 181 381 l 1,144,145
258 399 m 1,149,150
 212 382 212 382 190 360 c 1,151,-1
 258 360 l 1,152,-1
 258 399 l 1,149,150
258 351 m 1,153,-1
 254 343 l 1,154,155
 249 339 249 339 239 332 c 128,-1,156
 229 325 229 325 219 318 c 0,157,158
 194 300 194 300 194 299 c 1,159,160
 222 299 222 299 258 308 c 1,161,-1
 254 313 l 1,162,-1
 258 317 l 1,163,-1
 258 351 l 1,153,-1
202 322 m 2,164,165
 205 322 205 322 220 334 c 128,-1,166
 235 346 235 346 237 348 c 1,167,-1
 232 348 l 2,168,169
 228 348 228 348 221.5 347 c 128,-1,170
 215 346 215 346 208 345 c 2,171,-1
 190 343 l 1,172,-1
 190 322 l 1,173,-1
 202 322 l 2,164,165
241 291 m 1,174,-1
 198 287 l 1,175,-1
 198 265 l 1,176,-1
 202 265 l 1,177,178
 204 266 204 266 210.5 268.5 c 128,-1,179
 217 271 217 271 224 274 c 0,180,181
 241 284 241 284 241 287 c 2,182,-1
 241 291 l 1,174,-1
246 240 m 1,183,184
 254 243 254 243 254 267 c 2,185,-1
 254 278 l 1,186,-1
 202 248 l 1,187,188
 208 247 208 247 215 246.5 c 128,-1,189
 222 246 222 246 229 246 c 0,190,191
 245 244 245 244 246 240 c 1,183,184
198 205 m 0,192,193
 215 205 215 205 229 223 c 0,194,195
 233 228 233 228 233 232 c 1,196,-1
 228 232 l 2,197,198
 212 232 212 232 203 229 c 128,-1,199
 194 226 194 226 194 208 c 0,200,201
 194 205 194 205 198 205 c 0,192,193
195 170 m 2,202,203
 216 170 216 170 233 174 c 128,-1,204
 250 178 250 178 250 201 c 0,205,206
 250 209 250 209 249.5 213.5 c 128,-1,207
 249 218 249 218 249 226 c 1,208,209
 245 221 245 221 235 214 c 128,-1,210
 225 207 225 207 214 200 c 0,211,212
 188 181 188 181 188 170 c 1,213,-1
 195 170 l 2,202,203
194 136 m 1,214,215
 232 158 232 158 232 162 c 1,216,-1
 220 162 l 2,217,218
 208 162 208 162 198 158 c 128,-1,219
 188 154 188 154 188 136 c 1,220,-1
 194 136 l 1,214,215
223 110 m 2,221,222
 233 110 233 110 233 134 c 2,223,-1
 233 141 l 1,224,225
 220 141 220 141 208 134 c 0,226,227
 185 122 185 122 185 110 c 1,228,-1
 223 110 l 2,221,222
176 67 m 1,229,230
 200 71 200 71 210 81 c 128,-1,231
 220 91 220 91 220 97 c 1,232,233
 201 97 201 97 189 92 c 128,-1,234
 177 87 177 87 176 67 c 1,229,230
176 45 m 2,235,236
 188 45 188 45 201 48 c 1,237,-1
 215 50 l 1,238,-1
 215 72 l 1,239,240
 206 72 206 72 192 62.5 c 128,-1,241
 178 53 178 53 172 45 c 1,242,-1
 176 45 l 2,235,236
202 37 m 1,243,244
 193 35 193 35 185 35 c 128,-1,245
 177 35 177 35 170 33 c 0,246,247
 155 29 155 29 150 11 c 1,248,249
 165 15 165 15 178.5 21.5 c 128,-1,250
 192 28 192 28 207 33 c 1,251,-1
 202 37 l 1,243,244
211 2 m 1,252,253
 215 6 215 6 215 18 c 2,254,-1
 215 28 l 1,255,256
 212 23 212 23 189 14 c 0,257,258
 146 -3 146 -3 146 -7 c 2,259,-1
 146 -11 l 1,260,-1
 152 -11 l 2,261,262
 190 -11 190 -11 198.5 -5.5 c 128,-1,263
 207 0 207 0 207 7 c 1,264,-1
 211 2 l 1,252,253
124 -67 m 1,265,266
 166 -67 166 -67 198 -58 c 1,267,268
 199 -53 199 -53 201.5 -44.5 c 128,-1,269
 204 -36 204 -36 206 -28 c 0,270,271
 211 -10 211 -10 211 -10 c 1,272,273
 198 -26 198 -26 175 -37 c 128,-1,274
 152 -48 152 -48 141 -53 c 128,-1,275
 130 -58 130 -58 124 -62 c 1,276,-1
 124 -67 l 1,265,266
133 -24 m 2,277,278
 131 -24 131 -24 129 -30 c 128,-1,279
 127 -36 127 -36 127 -41 c 1,280,281
 148 -41 148 -41 172 -26 c 1,282,-1
 133 -24 l 2,277,278
159 -74 m 1,283,284
 111 -74 111 -74 111 -101 c 0,285,286
 111 -102 111 -102 111.5 -103.5 c 128,-1,287
 112 -105 112 -105 112 -106 c 1,288,289
 136 -99 136 -99 181 -75 c 1,290,-1
 159 -74 l 1,283,284
146 -123 m 1,291,292
 151 -123 151 -123 155 -119.5 c 128,-1,293
 159 -116 159 -116 169 -112.5 c 128,-1,294
 179 -109 179 -109 186.5 -104.5 c 128,-1,295
 194 -100 194 -100 194 -80 c 1,296,297
 177 -87 177 -87 156.5 -95.5 c 128,-1,298
 136 -104 136 -104 124 -118 c 1,299,-1
 146 -118 l 1,300,-1
 146 -123 l 1,291,292
142 -140 m 1,301,-1
 153 -144 l 1,302,303
 176 -144 176 -144 176 -132 c 1,304,-1
 142 -140 l 1,301,-1
EndSplineSet
EndChar

StartChar: asterisk
Encoding: 42 42 13
Width: 423
Flags: W
LayerCount: 2
Fore
SplineSet
273 405 m 2,0,-1
 275 413 l 1,1,-1
 269 413 l 2,2,3
 268 413 268 413 261 420.5 c 128,-1,4
 254 428 254 428 251 431 c 128,-1,5
 248 434 248 434 244.5 439.5 c 128,-1,6
 241 445 241 445 236 452 c 0,7,8
 225 468 225 468 223 468 c 1,9,-1
 216 454 l 1,10,11
 175 381 175 381 158 377 c 0,12,13
 152 376 152 376 148 372.5 c 128,-1,14
 144 369 144 369 140 369 c 128,-1,15
 136 369 136 369 125 376.5 c 128,-1,16
 114 384 114 384 102 394 c 0,17,18
 73 421 73 421 73 429 c 1,19,-1
 80 429 l 1,20,-1
 80 423 l 1,21,-1
 119 420 l 2,22,23
 128 420 128 420 136 424.5 c 128,-1,24
 144 429 144 429 151 429 c 128,-1,25
 158 429 158 429 162 423.5 c 128,-1,26
 166 418 166 418 166 413 c 1,27,-1
 174 433 l 1,28,29
 169 433 169 433 162 429 c 1,30,-1
 162 435 l 1,31,-1
 135 436 l 1,32,-1
 119 433 l 2,33,34
 116 433 116 433 115.5 435 c 128,-1,35
 115 437 115 437 109 437 c 128,-1,36
 103 437 103 437 95 433 c 1,37,38
 95 446 95 446 154 496 c 0,39,40
 168 508 168 508 174 516 c 1,41,42
 170 522 170 522 167 521.5 c 128,-1,43
 164 521 164 521 164 528 c 1,44,45
 141 528 141 528 103 533 c 0,46,47
 32 543 32 543 32 553 c 0,48,49
 32 561 32 561 50 588 c 0,50,51
 82 639 82 639 87 639 c 1,52,-1
 89 638 l 1,53,-1
 91 638 l 1,54,55
 108 627 108 627 125.5 612 c 128,-1,56
 143 597 143 597 162 591 c 1,57,58
 166 603 166 603 166 653 c 2,59,-1
 166 682 l 1,60,61
 182 693 182 693 236 693 c 2,62,-1
 246 693 l 2,63,64
 253 693 253 693 257.5 691.5 c 128,-1,65
 262 690 262 690 262 675 c 128,-1,66
 262 660 262 660 253.5 634 c 128,-1,67
 245 608 245 608 245 579 c 1,68,69
 251 582 251 582 261 589.5 c 128,-1,70
 271 597 271 597 277 601 c 128,-1,71
 283 605 283 605 289.5 609.5 c 128,-1,72
 296 614 296 614 312.5 626 c 128,-1,73
 329 638 329 638 343 638 c 0,74,75
 347 638 347 638 363 621 c 0,76,77
 392 588 392 588 392 573 c 0,78,79
 392 568 392 568 391.5 564 c 128,-1,80
 391 560 391 560 391 555 c 1,81,82
 388 556 388 556 384 556 c 128,-1,83
 380 556 380 556 370.5 551.5 c 128,-1,84
 361 547 361 547 348 542 c 0,85,86
 308 525 308 525 285 524 c 1,87,-1
 292 512 l 2,88,89
 297 502 297 502 307 494 c 128,-1,90
 317 486 317 486 327 478 c 0,91,92
 352 460 352 460 352 449.5 c 128,-1,93
 352 439 352 439 346 432 c 128,-1,94
 340 425 340 425 331.5 419 c 128,-1,95
 323 413 323 413 314 408.5 c 128,-1,96
 305 404 305 404 300 401 c 1,97,-1
 289 389 l 1,98,99
 287 389 287 389 281.5 391 c 128,-1,100
 276 393 276 393 276 394.5 c 128,-1,101
 276 396 276 396 277 398 c 0,102,103
 280 401 280 401 281 401 c 1,104,105
 273 401 273 401 273 405 c 2,0,-1
134 401 m 1,106,107
 138 393 138 393 143 393 c 0,108,109
 153 393 153 393 153 406 c 1,110,111
 140 406 140 406 134 401 c 1,106,107
279 417 m 1,112,113
 289 417 289 417 289 405 c 1,114,-1
 316 425 l 1,115,-1
 320 425 l 1,116,-1
 340 444 l 1,117,118
 330 445 330 445 328 457 c 1,119,120
 328 454 328 454 320 449 c 2,121,-1
 304 438 l 2,122,123
 279 421 279 421 279 417 c 1,112,113
275 468 m 2,124,-1
 284 467 l 1,125,126
 284 462 284 462 278.5 459.5 c 128,-1,127
 273 457 273 457 270.5 455.5 c 128,-1,128
 268 454 268 454 268 450 c 0,129,130
 269 444 269 444 274 444 c 128,-1,131
 279 444 279 444 285.5 451.5 c 128,-1,132
 292 459 292 459 292 464 c 2,133,-1
 289 484 l 1,134,135
 278 484 278 484 271 478 c 128,-1,136
 264 472 264 472 264 464 c 1,137,138
 273 468 273 468 275 468 c 2,124,-1
320 457 m 1,139,140
 319 460 319 460 313.5 460 c 128,-1,141
 308 460 308 460 300.5 452.5 c 128,-1,142
 293 445 293 445 293 443 c 1,143,144
 302 443 302 443 320 457 c 1,139,140
142 458 m 1,145,146
 148 453 148 453 169 453 c 0,147,148
 177 453 177 453 186 455 c 128,-1,149
 195 457 195 457 195 468 c 1,150,151
 178 467 178 467 161 467 c 128,-1,152
 144 467 144 467 142 458 c 1,145,146
241 480 m 1,153,154
 249 472 249 472 249 471 c 1,155,156
 257 471 257 471 269 488 c 1,157,-1
 241 480 l 1,153,154
177 492 m 1,158,159
 183 488 183 488 187 488 c 128,-1,160
 191 488 191 488 197 484 c 1,161,162
 200 495 200 495 208.5 497.5 c 128,-1,163
 217 500 217 500 222.5 501.5 c 128,-1,164
 228 503 228 503 233 508 c 1,165,-1
 224 508 l 2,166,167
 183 508 183 508 177 492 c 1,158,159
269 500 m 1,168,169
 269 512 269 512 261 512 c 0,170,171
 254 512 254 512 248 505 c 0,172,173
 238 492 238 492 230 492 c 1,174,-1
 238 488 l 1,175,-1
 269 500 l 1,168,169
265 553 m 1,176,177
 240 541 240 541 233 529 c 1,178,179
 249 529 249 529 257 538 c 128,-1,180
 265 547 265 547 265 553 c 1,176,177
208 542 m 0,181,182
 208 540 208 540 211 537 c 128,-1,183
 214 534 214 534 217 534 c 0,184,185
 221 534 221 534 240 553 c 1,186,187
 210 550 210 550 208 542 c 0,181,182
175 530 m 1,188,189
 177 530 177 530 188 538 c 1,190,191
 206 554 206 554 206 557 c 1,192,-1
 198 559 l 1,193,-1
 175 534 l 1,194,-1
 175 530 l 1,188,189
277 540 m 1,195,196
 301 540 301 540 301 553 c 2,197,-1
 301 556 l 2,198,199
 301 558 301 558 300 559 c 1,200,201
 293 554 293 554 285 546.5 c 128,-1,202
 277 539 277 539 277 540 c 1,195,196
142 543 m 1,203,-1
 181 557 l 1,204,-1
 170 567 l 1,205,-1
 142 543 l 1,203,-1
129 553 m 1,206,207
 122 553 122 553 118 544 c 1,208,-1
 139 551 l 1,209,-1
 147 556 l 1,210,-1
 129 553 l 1,206,207
328 571 m 1,211,212
 326 565 326 565 320.5 561 c 128,-1,213
 315 557 315 557 315 550 c 1,214,215
 317 551 317 551 326.5 553.5 c 128,-1,216
 336 556 336 556 346 559 c 0,217,218
 373 567 373 567 373 571 c 0,219,220
 373 579 373 579 367 583.5 c 128,-1,221
 361 588 361 588 353 588 c 256,222,223
 345 588 345 588 338.5 583 c 128,-1,224
 332 578 332 578 332 567 c 1,225,-1
 328 571 l 1,211,212
91 587 m 1,226,227
 93 590 93 590 111 599 c 1,228,229
 110 605 110 605 103 609.5 c 128,-1,230
 96 614 96 614 92 614.5 c 128,-1,231
 88 615 88 615 84 610.5 c 128,-1,232
 80 606 80 606 76.5 600.5 c 128,-1,233
 73 595 73 595 67 583 c 1,234,235
 72 574 72 574 75 578.5 c 128,-1,236
 78 583 78 583 83 583 c 1,237,238
 80 577 80 577 75.5 576 c 128,-1,239
 71 575 71 575 66 574 c 0,240,241
 52 569 52 569 48 555 c 1,242,-1
 83 555 l 1,243,-1
 107 567 l 1,244,245
 111 567 111 567 119 559 c 1,246,-1
 134 567 l 1,247,-1
 139 563 l 1,248,249
 141 563 141 563 144 566 c 128,-1,250
 147 569 147 569 147 571 c 256,251,252
 147 573 147 573 144 577.5 c 128,-1,253
 141 582 141 582 139 583 c 1,254,255
 131 572 131 572 115 572 c 1,256,-1
 115 579 l 1,257,-1
 119 579 l 1,258,-1
 119 587 l 1,259,-1
 91 587 l 1,226,227
322 607 m 1,260,261
 307 607 307 607 299 594 c 0,262,263
 285 574 285 574 285 559 c 1,264,265
 297 569 297 569 304 582.5 c 128,-1,266
 311 596 311 596 322 607 c 1,260,261
190 571 m 1,267,-1
 194 567 l 1,268,269
 201 572 201 572 206.5 573 c 128,-1,270
 212 574 212 574 216 576 c 0,271,272
 222 580 222 580 222 590 c 0,273,274
 222 608 222 608 217 618 c 1,275,276
 203 608 203 608 196.5 603.5 c 128,-1,277
 190 599 190 599 190 581 c 2,278,-1
 190 571 l 1,267,-1
344 607 m 1,279,280
 334 600 334 600 332 587 c 1,281,-1
 347 602 l 1,282,-1
 344 607 l 1,279,280
217 637 m 1,283,284
 210 637 210 637 190 622 c 0,285,286
 190 621 190 621 193 619.5 c 128,-1,287
 196 618 196 618 197 618 c 128,-1,288
 198 618 198 618 201 620.5 c 128,-1,289
 204 623 204 623 208 626 c 0,290,291
 217 636 217 636 217 637 c 1,283,284
233 670 m 1,292,293
 225 674 225 674 219.5 674 c 128,-1,294
 214 674 214 674 202 672.5 c 128,-1,295
 190 671 190 671 190 670 c 2,296,-1
 190 642 l 1,297,298
 209 659 209 659 233 670 c 1,292,293
222 646 m 1,299,-1
 230 646 l 1,300,-1
 230 654 l 1,301,-1
 222 646 l 1,299,-1
EndSplineSet
EndChar

StartChar: plus
Encoding: 43 43 14
Width: 472
Flags: W
LayerCount: 2
Fore
SplineSet
293 81 m 1,0,1
 293 65 293 65 302 51 c 1,2,3
 299 34 299 34 203 34 c 0,4,5
 183 34 183 34 180 62 c 0,6,7
 172 163 172 163 172 189 c 1,8,-1
 47 189 l 2,9,10
 34 189 34 189 34 242 c 2,11,-1
 34 258 l 2,12,13
 34 288 34 288 47 297 c 1,14,15
 127 302 127 302 162 302 c 2,16,-1
 168 302 l 2,17,18
 182 302 182 302 189 297 c 1,19,20
 189 357 189 357 183 367.5 c 128,-1,21
 177 378 177 378 177 383 c 1,22,23
 177 383 177 383 185 409 c 1,24,-1
 215 404 l 1,25,-1
 253 409 l 1,26,27
 265 409 265 409 270.5 399.5 c 128,-1,28
 276 390 276 390 279 376.5 c 128,-1,29
 282 363 282 363 283.5 349 c 128,-1,30
 285 335 285 335 288 327 c 1,31,-1
 288 299 l 2,32,33
 288 292 288 292 301.5 289.5 c 128,-1,34
 315 287 315 287 323 284 c 1,35,-1
 409 284 l 2,36,37
 425 284 425 284 430.5 277 c 128,-1,38
 436 270 436 270 436 262 c 1,39,-1
 431 224 l 2,40,41
 431 217 431 217 435.5 215.5 c 128,-1,42
 440 214 440 214 440 206 c 128,-1,43
 440 198 440 198 429.5 194.5 c 128,-1,44
 419 191 419 191 404 188 c 0,45,46
 377 184 377 184 346 184 c 0,47,48
 335 184 335 184 330.5 182 c 128,-1,49
 326 180 326 180 320 180 c 128,-1,50
 314 180 314 180 297 185 c 1,51,52
 284 185 284 185 284 156 c 0,53,54
 284 145 284 145 284.5 137.5 c 128,-1,55
 285 130 285 130 285.5 122.5 c 128,-1,56
 286 115 286 115 288 105.5 c 128,-1,57
 290 96 290 96 293 81 c 1,0,1
204 98 m 1,58,59
 204 54 204 54 219 54 c 1,60,61
 219 70 219 70 230.5 80 c 128,-1,62
 242 90 242 90 254 98 c 1,63,-1
 204 98 l 1,58,59
240 69 m 1,64,-1
 273 63 l 1,65,66
 273 90 273 90 267 90 c 1,67,68
 262 87 262 87 251 82 c 128,-1,69
 240 77 240 77 240 69 c 1,64,-1
236 133 m 1,70,-1
 226 133 l 2,71,72
 217 133 217 133 210.5 131 c 128,-1,73
 204 129 204 129 204 122.5 c 128,-1,74
 204 116 204 116 205 112.5 c 128,-1,75
 206 109 206 109 206 107 c 1,76,77
 220 123 220 123 236 133 c 1,70,-1
254 133 m 1,78,79
 254 124 254 124 230 112 c 1,80,81
 237 112 237 112 248 113 c 128,-1,82
 259 114 259 114 259 122 c 0,83,84
 259 132 259 132 254 133 c 1,78,79
232 146 m 2,85,86
 254 146 254 146 258 150 c 1,87,-1
 258 164 l 1,88,89
 246 164 246 164 228 146 c 1,90,-1
 232 146 l 2,85,86
133 211 m 1,91,-1
 178 215 l 1,92,93
 194 215 194 215 198 188 c 0,94,95
 199 178 199 178 200 167 c 128,-1,96
 201 156 201 156 206 150 c 1,97,98
 217 154 217 154 231.5 163 c 128,-1,99
 246 172 246 172 254 176 c 1,100,-1
 216 171 l 1,101,102
 206 171 206 171 206 176 c 0,103,104
 206 203 206 203 263 222 c 0,105,106
 276 227 276 227 284 227 c 1,107,108
 284 231 284 231 278.5 231.5 c 128,-1,109
 273 232 273 232 272 232 c 0,110,111
 269 234 269 234 262 227 c 1,112,113
 236 212 236 212 198 212 c 1,114,-1
 198 219 l 1,115,116
 202 222 202 222 211.5 228 c 128,-1,117
 221 234 221 234 232 241 c 0,118,119
 258 257 258 257 267 262 c 1,120,-1
 271 267 l 1,121,122
 263 267 263 267 220 250 c 0,123,124
 141 219 141 219 133 211 c 1,91,-1
254 202 m 1,125,126
 244 198 244 198 241 194 c 1,127,-1
 254 194 l 1,128,-1
 254 202 l 1,125,126
271 215 m 1,129,130
 275 210 275 210 283 206 c 128,-1,131
 291 202 291 202 294 202 c 1,132,133
 309 211 309 211 320 218 c 0,134,135
 338 229 338 229 366 245 c 1,136,-1
 353 245 l 1,137,-1
 271 215 l 1,129,130
418 227 m 1,138,-1
 405 232 l 1,139,-1
 349 211 l 1,140,-1
 344 206 l 1,141,-1
 359 206 l 2,142,143
 418 206 418 206 418 227 c 1,138,-1
64 224 m 1,144,145
 64 211 64 211 69 211 c 2,146,-1
 99 211 l 2,147,148
 112 211 112 211 135 232 c 0,149,150
 179 272 179 272 189 276 c 1,151,-1
 189 282 l 1,152,153
 162 282 162 282 122 258 c 0,154,155
 111 252 111 252 107 245 c 1,156,157
 134 252 134 252 138 252 c 1,158,159
 138 248 138 248 101.5 237.5 c 128,-1,160
 65 227 65 227 64 224 c 1,144,145
189 258 m 1,161,162
 186 256 186 256 179 253 c 128,-1,163
 172 250 172 250 164 246 c 0,164,165
 145 237 145 237 145 231 c 1,166,167
 152 231 152 231 168.5 240 c 128,-1,168
 185 249 185 249 185 250 c 2,169,-1
 189 258 l 1,161,162
392 262 m 1,170,171
 382 247 382 247 366 232 c 1,172,173
 374 237 374 237 385 242.5 c 128,-1,174
 396 248 396 248 401 253 c 1,175,176
 401 257 401 257 398 259.5 c 128,-1,177
 395 262 395 262 392 262 c 1,170,171
297 262 m 1,178,179
 291 258 291 258 258 250 c 1,180,181
 254 239 254 239 250 236 c 1,182,183
 292 236 292 236 314.5 245 c 128,-1,184
 337 254 337 254 344 262 c 1,185,-1
 297 262 l 1,178,179
64 276 m 2,186,187
 58 276 58 276 58 241 c 1,188,189
 79 241 79 241 97.5 252 c 128,-1,190
 116 263 116 263 116 267 c 2,191,-1
 116 271 l 1,192,193
 108 266 108 266 94.5 263 c 128,-1,194
 81 260 81 260 77 258 c 1,195,196
 77 270 77 270 99 274 c 0,197,198
 104 275 104 275 107 276 c 1,199,-1
 64 276 l 2,186,187
262 311 m 1,200,201
 216 311 216 311 206 276 c 1,202,-1
 215 276 l 1,203,-1
 262 302 l 1,204,-1
 262 311 l 1,200,201
265 285 m 1,205,206
 255 285 255 285 250 276 c 1,207,208
 265 276 265 276 265 285 c 1,205,206
263 329 m 1,209,210
 260 335 260 335 256 335 c 0,211,212
 248 335 248 335 232 323 c 1,213,-1
 237 323 l 2,214,215
 263 323 263 323 263 329 c 1,209,210
258 349 m 1,216,217
 250 352 250 352 244 352 c 0,218,219
 220 352 220 352 211 349 c 1,220,-1
 215 331 l 1,221,-1
 258 349 l 1,216,217
236 370 m 1,222,223
 238 365 238 365 243 365 c 128,-1,224
 248 365 248 365 250.5 365.5 c 128,-1,225
 253 366 253 366 254 366 c 2,226,-1
 250 378 l 1,227,-1
 236 370 l 1,222,223
232 383 m 1,228,-1
 224 383 l 1,229,230
 206 378 206 378 206 378 c 1,231,-1
 206 369 l 1,232,233
 211 369 211 369 232 383 c 1,228,-1
EndSplineSet
EndChar

StartChar: comma
Encoding: 44 44 15
Width: 221
Flags: W
LayerCount: 2
Fore
SplineSet
180 44 m 1,0,-1
 178 9 l 2,1,2
 178 -2 178 -2 181 -12 c 1,3,4
 181 -38 181 -38 176 -48 c 128,-1,5
 171 -58 171 -58 167 -59 c 1,6,-1
 162 -55 l 1,7,-1
 162 -67 l 1,8,9
 106 -127 106 -127 97 -136 c 2,10,-1
 87 -146 l 1,11,12
 84 -146 84 -146 72.5 -140 c 128,-1,13
 61 -134 61 -134 53 -130 c 1,14,-1
 49 -122 l 1,15,16
 49 -106 49 -106 57.5 -89 c 128,-1,17
 66 -72 66 -72 66 -56.5 c 128,-1,18
 66 -41 66 -41 58 -37.5 c 128,-1,19
 50 -34 50 -34 50 -31 c 2,20,-1
 50 44 l 1,21,22
 44 44 44 44 44 51 c 2,23,-1
 45 66 l 2,24,25
 45 77 45 77 37 79 c 1,26,27
 47 91 47 91 57 91 c 1,28,-1
 76 86 l 1,29,30
 90 86 90 86 106.5 88.5 c 128,-1,31
 123 91 123 91 164 91 c 1,32,33
 180 78 180 78 180 44 c 1,0,-1
117 -71 m 1,34,35
 113 -84 113 -84 98 -84 c 0,36,37
 94 -84 94 -84 93 -83 c 1,38,39
 88 -89 88 -89 79.5 -93.5 c 128,-1,40
 71 -98 71 -98 69 -106 c 1,41,42
 69 -123 69 -123 81 -123 c 2,43,-1
 83 -123 l 1,44,-1
 120 -79 l 1,45,-1
 117 -71 l 1,34,35
77 -71 m 1,46,47
 84 -76 84 -76 84 -83 c 1,48,49
 84 -76 84 -76 94 -72.5 c 128,-1,50
 104 -69 104 -69 116.5 -65.5 c 128,-1,51
 129 -62 129 -62 139 -57 c 128,-1,52
 149 -52 149 -52 149 -41 c 2,53,-1
 149 -39 l 2,54,55
 149 -38 149 -38 148.5 -37.5 c 128,-1,56
 148 -37 148 -37 148 -36 c 2,57,-1
 136 -44 l 1,58,-1
 132 -39 l 1,59,60
 126 -48 126 -48 118.5 -53.5 c 128,-1,61
 111 -59 111 -59 109.5 -59 c 128,-1,62
 108 -59 108 -59 106 -57.5 c 128,-1,63
 104 -56 104 -56 104 -55 c 1,64,65
 101 -61 101 -61 94 -63 c 0,66,67
 80 -67 80 -67 77 -71 c 1,46,47
90 -26 m 1,68,69
 90 -34 90 -34 85 -41 c 128,-1,70
 80 -48 80 -48 80 -56 c 1,71,72
 83 -56 83 -56 91 -51 c 128,-1,73
 99 -46 99 -46 104 -44 c 1,74,75
 97 -44 97 -44 95.5 -35 c 128,-1,76
 94 -26 94 -26 90 -26 c 1,68,69
119 -26 m 1,77,78
 134 -26 134 -26 136 -31 c 1,79,80
 153 -17 153 -17 153 -11 c 1,81,82
 119 -11 119 -11 119 -26 c 1,77,78
65 -20 m 2,83,-1
 71 -21 l 1,84,85
 78 -21 78 -21 87.5 -15 c 128,-1,86
 97 -9 97 -9 101 -4 c 1,87,88
 97 -4 97 -4 92 -6 c 128,-1,89
 87 -8 87 -8 84 -8 c 1,90,91
 140 20 140 20 140 24 c 1,92,-1
 132 24 l 1,93,94
 129 23 129 23 122 22 c 128,-1,95
 115 21 115 21 106 20 c 0,96,97
 87 16 87 16 81 16 c 1,98,-1
 77 20 l 1,99,100
 74 17 74 17 73 10.5 c 128,-1,101
 72 4 72 4 71 -2 c 0,102,103
 68 -20 68 -20 65 -20 c 2,83,-1
128 4 m 128,-1,105
 122 4 122 4 120 8 c 1,106,-1
 120 4 l 2,107,108
 120 -5 120 -5 123.5 -5 c 128,-1,109
 127 -5 127 -5 128 -4 c 2,110,-1
 152 8 l 1,111,-1
 152 16 l 1,112,104
 134 4 134 4 128 4 c 128,-1,105
95.5 42 m 128,-1,114
 95 48 95 48 81.5 48 c 128,-1,115
 68 48 68 48 68 37 c 2,116,-1
 68 34 l 2,117,118
 68 31 68 31 69 31 c 0,119,120
 70 33 70 33 74 36 c 128,-1,121
 78 39 78 39 79.5 39 c 128,-1,122
 81 39 81 39 81 36 c 1,123,-1
 84 28 l 1,124,125
 104 28 104 28 122.5 32.5 c 128,-1,126
 141 37 141 37 161 37 c 1,127,128
 161 42 161 42 158.5 48 c 128,-1,129
 156 54 156 54 156 59 c 1,130,-1
 117 39 l 1,131,-1
 112 40 l 1,132,-1
 104 36 l 1,133,113
 96 36 96 36 95.5 42 c 128,-1,114
112 55 m 1,134,135
 117 63 117 63 124 63 c 128,-1,136
 131 63 131 63 132 59 c 1,137,138
 134 61 134 61 138 64 c 128,-1,139
 142 67 142 67 142 71 c 1,140,-1
 89 71 l 1,141,142
 82 67 82 67 75.5 67 c 128,-1,143
 69 67 69 67 69 75 c 2,144,-1
 69 55 l 1,145,-1
 112 55 l 1,134,135
EndSplineSet
EndChar

StartChar: hyphen
Encoding: 45 45 16
Width: 444
Flags: W
LayerCount: 2
Fore
SplineSet
232 216 m 2,0,-1
 152 220 l 1,1,2
 107 220 107 220 87 215.5 c 128,-1,3
 67 211 67 211 66 207 c 1,4,5
 62 211 62 211 55 213 c 128,-1,6
 48 215 48 215 48 220 c 0,7,8
 48 233 48 233 81 236.5 c 128,-1,9
 114 240 114 240 165 242 c 0,10,11
 167 242 167 242 179 257 c 0,12,13
 200 285 200 285 207 292 c 128,-1,14
 214 299 214 299 214 301 c 256,15,16
 214 303 214 303 210.5 303 c 128,-1,17
 207 303 207 303 198 295 c 128,-1,18
 189 287 189 287 178 278 c 0,19,20
 148 252 148 252 126 252 c 1,21,-1
 126 259 l 2,22,23
 126 268 126 268 136 277 c 0,24,25
 156 294 156 294 156 302 c 1,26,27
 129 290 129 290 114.5 277.5 c 128,-1,28
 100 265 100 265 93 260 c 0,29,30
 77 247 77 247 69 247 c 0,31,32
 48 247 48 247 48 259 c 0,33,34
 48 283 48 283 53.5 298 c 128,-1,35
 59 313 59 313 59 334 c 1,36,-1
 119 333 l 1,37,-1
 239 337 l 1,38,-1
 273 336 l 2,39,40
 280 335 280 335 299.5 333.5 c 128,-1,41
 319 332 319 332 340 330 c 0,42,43
 393 325 393 325 393 319 c 2,44,-1
 393 237 l 1,45,-1
 389 233 l 1,46,47
 366 233 366 233 322 227 c 0,48,49
 240 216 240 216 232 216 c 2,0,-1
241 274 m 1,50,-1
 237 277 l 1,51,-1
 230 271 l 1,52,-1
 234 268 l 1,53,54
 228 260 228 260 219 255 c 128,-1,55
 210 250 210 250 204 242 c 1,56,-1
 242 237 l 1,57,58
 251 237 251 237 282 288 c 0,59,60
 288 299 288 299 290 302 c 1,61,62
 279 295 279 295 268 284.5 c 128,-1,63
 257 274 257 274 241 274 c 1,50,-1
363 293 m 1,64,65
 355 283 355 283 329 263 c 1,66,67
 320 260 320 260 313.5 255 c 128,-1,68
 307 250 307 250 299 245 c 1,69,-1
 333 245 l 1,70,71
 339 256 339 256 351 267.5 c 128,-1,72
 363 279 363 279 363 293 c 1,64,65
273 250 m 1,73,74
 322 267 322 267 363 302 c 1,75,-1
 367 302 l 1,76,-1
 367 310 l 1,77,-1
 320 315 l 1,78,-1
 316 315 l 1,79,80
 301 280 301 280 273 250 c 1,73,74
282 315 m 1,81,82
 266 319 266 319 257 319 c 128,-1,83
 248 319 248 319 240 313.5 c 128,-1,84
 232 308 232 308 226 300 c 128,-1,85
 220 292 220 292 214.5 283 c 128,-1,86
 209 274 209 274 204 268 c 1,87,-1
 208 268 l 2,88,89
 210 268 210 268 233 282 c 0,90,91
 275 308 275 308 282 315 c 1,81,82
89.5 319 m 128,-1,93
 69 319 69 319 69 307 c 0,94,95
 69 301 69 301 75 280 c 1,96,97
 77 282 77 282 83 286 c 128,-1,98
 89 290 89 290 95 295 c 0,99,100
 110 308 110 308 110 313.5 c 128,-1,92
 110 319 110 319 89.5 319 c 128,-1,93
148 315 m 2,101,102
 119 315 119 315 104 293 c 1,103,104
 112 293 112 293 131 302 c 2,105,-1
 156 315 l 1,106,-1
 148 315 l 2,101,102
177 315 m 1,107,108
 175 314 175 314 170.5 307 c 128,-1,109
 166 300 166 300 164 293 c 1,110,111
 176 293 176 293 189 301.5 c 128,-1,112
 202 310 202 310 216 315 c 1,113,-1
 177 315 l 1,107,108
EndSplineSet
EndChar

StartChar: period
Encoding: 46 46 17
Width: 242
Flags: W
LayerCount: 2
Fore
SplineSet
200 91 m 1,0,-1
 201 42 l 2,1,2
 201 25 201 25 198 16 c 128,-1,3
 195 7 195 7 184 3 c 128,-1,4
 173 -1 173 -1 152.5 -3 c 128,-1,5
 132 -5 132 -5 96 -9 c 1,6,7
 94 -4 94 -4 90 -4 c 128,-1,8
 86 -4 86 -4 75.5 -8.5 c 128,-1,9
 65 -13 65 -13 62 -13 c 128,-1,10
 59 -13 59 -13 56.5 -11 c 128,-1,11
 54 -9 54 -9 49 -9 c 1,12,13
 43 16 43 16 43 62 c 0,14,15
 43 82 43 82 47.5 93 c 128,-1,16
 52 104 52 104 52 117.5 c 128,-1,17
 52 131 52 131 44 134 c 1,18,-1
 52 136 l 1,19,20
 115 133 115 133 126 133 c 128,-1,21
 137 133 137 133 145 129.5 c 128,-1,22
 153 126 153 126 165 126 c 2,23,-1
 183 127 l 2,24,25
 194 127 194 127 199.5 122.5 c 128,-1,26
 205 118 205 118 205 104.5 c 128,-1,27
 205 91 205 91 200 91 c 1,0,-1
90 17 m 2,28,-1
 97 16 l 1,29,30
 127 16 127 16 151 27.5 c 128,-1,31
 175 39 175 39 175 65 c 1,32,-1
 160 59 l 2,33,34
 157 57 157 57 143.5 51 c 128,-1,35
 130 45 130 45 116 38 c 0,36,37
 78 18 78 18 78 13 c 1,38,39
 87 17 87 17 90 17 c 2,28,-1
166 78 m 1,40,-1
 160 79 l 2,41,42
 154 79 154 79 125 71 c 0,43,44
 76 57 76 57 66 47 c 1,45,46
 66 42 66 42 68 34.5 c 128,-1,47
 70 27 70 27 70 26 c 1,48,49
 73 27 73 27 80 31.5 c 128,-1,50
 87 36 87 36 95.5 41 c 128,-1,51
 104 46 104 46 111.5 50 c 128,-1,52
 119 54 119 54 122.5 56.5 c 128,-1,53
 126 59 126 59 133 60.5 c 128,-1,54
 140 62 140 62 148 64 c 1,55,56
 166 71 166 71 170 78 c 1,57,-1
 166 78 l 1,40,-1
156 108 m 1,58,59
 152 105 152 105 142 100.5 c 128,-1,60
 132 96 132 96 121 91 c 0,61,62
 94 79 94 79 92 71 c 1,63,64
 98 74 98 74 113.5 78 c 128,-1,65
 129 82 129 82 144 86 c 0,66,67
 184 96 184 96 184 102 c 0,68,69
 184 104 184 104 182 108 c 1,70,-1
 160 117 l 1,71,-1
 156 108 l 1,58,59
65 117 m 1,72,-1
 63 91 l 2,73,74
 63 83 63 83 66 73 c 1,75,76
 73 78 73 78 84.5 83 c 128,-1,77
 96 88 96 88 107 93 c 0,78,79
 135 106 135 106 139 112 c 1,80,-1
 139 117 l 1,81,-1
 65 117 l 1,72,-1
EndSplineSet
EndChar

StartChar: slash
Encoding: 47 47 18
Width: 531
Flags: W
LayerCount: 2
Fore
SplineSet
268 376 m 1,0,-1
 350 367 l 1,1,2
 355 370 355 370 367.5 397 c 128,-1,3
 380 424 380 424 384.5 433.5 c 128,-1,4
 389 443 389 443 390.5 455.5 c 128,-1,5
 392 468 392 468 398 481.5 c 128,-1,6
 404 495 404 495 416 522.5 c 128,-1,7
 428 550 428 550 441 577 c 0,8,9
 473 643 473 643 482 643 c 0,10,11
 496 643 496 643 496 638 c 1,12,-1
 419 466 l 1,13,14
 416 436 416 436 388 380 c 1,15,-1
 378 363 l 1,16,17
 315 253 315 253 259.5 148.5 c 128,-1,18
 204 44 204 44 173 -47 c 1,19,20
 171 -74 171 -74 154 -81 c 128,-1,21
 137 -88 137 -88 113.5 -88 c 128,-1,22
 90 -88 90 -88 75 -87.5 c 128,-1,23
 60 -87 60 -87 43 -87 c 1,24,25
 48 -75 48 -75 55.5 -65 c 128,-1,26
 63 -55 63 -55 65 -35 c 1,27,28
 70 -33 70 -33 81.5 -28 c 128,-1,29
 93 -23 93 -23 104 -18 c 0,30,31
 134 -5 134 -5 134 -3 c 0,32,33
 134 2 134 2 129 5 c 128,-1,34
 124 8 124 8 124 14 c 128,-1,35
 124 20 124 20 125 22 c 1,36,-1
 87 22 l 1,37,38
 73 6 73 6 68 -4.5 c 128,-1,39
 63 -15 63 -15 58 -22.5 c 128,-1,40
 53 -30 53 -30 50 -40 c 128,-1,41
 47 -50 47 -50 44 -60 c 0,42,43
 35 -87 35 -87 26.5 -87 c 128,-1,44
 18 -87 18 -87 18 -73 c 128,-1,45
 18 -59 18 -59 29 -33 c 128,-1,46
 40 -7 40 -7 56 20 c 0,47,48
 81 64 81 64 113 108 c 1,49,50
 123 124 123 124 128.5 143 c 128,-1,51
 134 162 134 162 151 173 c 1,52,53
 179 234 179 234 200 277.5 c 128,-1,54
 221 321 221 321 236 352 c 0,55,56
 266 418 266 418 272 453 c 1,57,58
 280 479 280 479 304 525.5 c 128,-1,59
 328 572 328 572 338.5 597.5 c 128,-1,60
 349 623 349 623 353 651 c 1,61,-1
 353 661 l 2,62,63
 353 673 353 673 358 673 c 2,64,-1
 449 673 l 1,65,66
 453 670 453 670 461 670 c 2,67,-1
 488 672 l 1,68,69
 506 672 506 672 509 656 c 1,70,71
 501 648 501 648 488 648 c 2,72,-1
 471 649 l 2,73,74
 456 649 456 649 450 646 c 0,75,76
 439 642 439 642 428 642 c 1,77,-1
 431 651 l 1,78,79
 402 651 402 651 376 642 c 1,80,-1
 398 637 l 1,81,-1
 410 642 l 1,82,83
 422 642 422 642 440 631 c 128,-1,84
 458 620 458 620 458 619 c 0,85,86
 458 609 458 609 380 590 c 0,87,88
 365 587 365 587 362 587 c 1,89,-1
 362 578 l 1,90,91
 364 575 364 575 374 575 c 128,-1,92
 384 575 384 575 395 574 c 0,93,94
 423 573 423 573 423 560 c 0,95,96
 423 543 423 543 358 543 c 1,97,98
 365 537 365 537 379 536 c 0,99,100
 402 534 402 534 407 524 c 1,101,102
 375 503 375 503 324 500 c 1,103,-1
 320 492 l 1,104,105
 322 488 322 488 344 485 c 0,106,107
 386 478 386 478 386 476 c 0,108,109
 386 470 386 470 355.5 461.5 c 128,-1,110
 325 453 325 453 311.5 449 c 128,-1,111
 298 445 298 445 298 440 c 2,112,-1
 298 432 l 1,113,114
 304 435 304 435 324 435 c 0,115,116
 367 435 367 435 367 422 c 0,117,118
 367 416 367 416 353.5 412 c 128,-1,119
 340 408 340 408 322 403 c 0,120,121
 276 390 276 390 268 376 c 1,0,-1
83 -61 m 2,122,-1
 91 -59 l 1,123,-1
 91 -71 l 1,124,125
 122 -71 122 -71 133 -65 c 0,126,127
 153 -54 153 -54 164 -18 c 1,128,129
 112 -18 112 -18 70 -49 c 1,130,131
 72 -52 72 -52 77 -56.5 c 128,-1,132
 82 -61 82 -61 83 -61 c 2,122,-1
138 13 m 1,133,134
 143 12 143 12 148.5 11 c 128,-1,135
 154 10 154 10 154 4 c 1,136,137
 160 4 160 4 168.5 9 c 128,-1,138
 177 14 177 14 177 22 c 1,139,-1
 138 13 l 1,133,134
164.5 99 m 128,-1,141
 154 103 154 103 149 103 c 128,-1,142
 144 103 144 103 136 94.5 c 128,-1,143
 128 86 128 86 120.5 75 c 128,-1,144
 113 64 113 64 107 54.5 c 128,-1,145
 101 45 101 45 99 44 c 1,146,-1
 99 39 l 1,147,148
 113 39 113 39 121 56 c 0,149,150
 124 62 124 62 127.5 68.5 c 128,-1,151
 131 75 131 75 137 77 c 128,-1,152
 143 79 143 79 149.5 81.5 c 128,-1,153
 156 84 156 84 163 87 c 128,-1,154
 170 90 170 90 176.5 92 c 128,-1,155
 183 94 183 94 186 95 c 1,156,140
 175 95 175 95 164.5 99 c 128,-1,141
207 82 m 1,157,-1
 201 83 l 1,158,159
 189 83 189 83 175 74 c 0,160,161
 148 57 148 57 144 45 c 1,162,-1
 181 39 l 1,163,164
 202 52 202 52 207 82 c 1,157,-1
216 103 m 1,165,-1
 225 134 l 1,166,167
 176 134 176 134 147 112 c 1,168,169
 166 112 166 112 186 108 c 2,170,-1
 216 103 l 1,165,-1
199 147 m 1,171,172
 194 156 194 156 181.5 156 c 128,-1,173
 169 156 169 156 163.5 148.5 c 128,-1,174
 158 141 158 141 158 134 c 1,175,176
 185 137 185 137 199 147 c 1,171,172
237 155 m 1,177,178
 244 155 244 155 244 171 c 0,179,180
 244 175 244 175 232 175 c 0,181,182
 217 175 217 175 181 169 c 1,183,-1
 237 155 l 1,177,178
251 194 m 1,184,185
 223 199 223 199 213 199 c 128,-1,186
 203 199 203 199 194.5 197 c 128,-1,187
 186 195 186 195 186 181 c 1,188,189
 189 181 189 181 197 182.5 c 128,-1,190
 205 184 205 184 214 185.5 c 128,-1,191
 223 187 223 187 231 188 c 128,-1,192
 239 189 239 189 241 189.5 c 128,-1,193
 243 190 243 190 246 192 c 128,-1,194
 249 194 249 194 251 194 c 1,184,185
263 211 m 1,195,196
 272 229 272 229 272 231 c 0,197,198
 272 236 272 236 264 236 c 0,199,200
 263 236 263 236 254 233 c 2,201,-1
 234 226 l 2,202,203
 224 223 224 223 207 216 c 1,204,205
 220 211 220 211 249 211 c 2,206,-1
 263 211 l 1,195,196
250 255 m 2,207,-1
 221 254 l 1,208,209
 211 249 211 249 211 232 c 1,210,211
 233 240 233 240 247.5 244.5 c 128,-1,212
 262 249 262 249 268 251 c 1,213,214
 263 255 263 255 250 255 c 2,207,-1
225 268 m 1,215,-1
 285 259 l 2,216,217
 286 259 286 259 290 264.5 c 128,-1,218
 294 270 294 270 298.5 276 c 128,-1,219
 303 282 303 282 311 293 c 1,220,-1
 311 298 l 1,221,222
 267 298 267 298 236 282 c 0,223,224
 225 276 225 276 225 268 c 1,215,-1
246 310 m 2,225,226
 243 310 243 310 241.5 305 c 128,-1,227
 240 300 240 300 237 293 c 1,228,-1
 289 306 l 1,229,-1
 246 310 l 2,225,226
263 324 m 1,230,231
 275 322 275 322 289 322 c 128,-1,232
 303 322 303 322 311 310 c 1,233,234
 337 336 337 336 337 350 c 1,235,236
 322 344 322 344 310 339 c 0,237,238
 287 329 287 329 263 324 c 1,230,231
320 362 m 1,239,-1
 263 367 l 1,240,241
 263 365 263 365 261 359 c 128,-1,242
 259 353 259 353 257 346 c 0,243,244
 251 325 251 325 251 328 c 1,245,246
 257 331 257 331 268 336 c 128,-1,247
 279 341 279 341 290 346 c 0,248,249
 318 359 318 359 320 362 c 1,239,-1
279 400 m 1,250,-1
 345 423 l 1,251,-1
 289 423 l 1,252,-1
 279 400 l 1,250,-1
325 479 m 1,253,254
 306 479 306 479 306 458 c 1,255,-1
 350 470 l 1,256,-1
 353 475 l 1,257,-1
 325 479 l 1,253,254
380 522 m 1,258,-1
 385 521 l 2,259,260
 388 521 388 521 393 526 c 1,261,-1
 358 526 l 1,262,-1
 358 531 l 1,263,-1
 341 531 l 1,264,-1
 350 526 l 1,265,266
 328 526 328 526 328 508 c 1,267,268
 336 510 336 510 352.5 516 c 128,-1,269
 369 522 369 522 380 522 c 1,258,-1
405 560 m 1,270,271
 381 569 381 569 370 569 c 128,-1,272
 359 569 359 569 356 566 c 128,-1,273
 353 563 353 563 353 552 c 1,274,275
 366 554 366 554 380 554.5 c 128,-1,276
 394 555 394 555 405 560 c 1,270,271
436 616 m 1,277,278
 429 630 429 630 405.5 630 c 128,-1,279
 382 630 382 630 376 626.5 c 128,-1,280
 370 623 370 623 368 618.5 c 128,-1,281
 366 614 366 614 365.5 609 c 128,-1,282
 365 604 365 604 362 601 c 1,283,284
 362 599 362 599 363.5 598 c 128,-1,285
 365 597 365 597 367 595 c 1,286,287
 383 606 383 606 400.5 607.5 c 128,-1,288
 418 609 418 609 436 616 c 1,277,278
EndSplineSet
EndChar

StartChar: zero
Encoding: 48 48 19
Width: 689
Flags: W
LayerCount: 2
Fore
SplineSet
633 420 m 1,0,1
 636 380 636 380 643 335 c 1,2,3
 643 246 643 246 629 200 c 0,4,5
 605 122 605 122 557 62 c 1,6,7
 487 -23 487 -23 346 -23 c 0,8,9
 294 -23 294 -23 237 -2 c 0,10,11
 226 2 226 2 222 5 c 1,12,13
 217 7 217 7 203 11 c 1,14,15
 121 74 121 74 83 150 c 128,-1,16
 45 226 45 226 45 330 c 2,17,-1
 45 342 l 1,18,-1
 46 376 l 1,19,-1
 46 387 l 1,20,21
 50 422 50 422 73.5 482 c 128,-1,22
 97 542 97 542 97 550 c 128,-1,23
 97 558 97 558 92.5 560.5 c 128,-1,24
 88 563 88 563 88 569 c 2,25,-1
 88 572 l 2,26,27
 88 573 88 573 89 574 c 1,28,29
 110 574 110 574 139 607 c 0,30,31
 148 617 148 617 170.5 636 c 128,-1,32
 193 655 193 655 206 664 c 0,33,34
 227 679 227 679 268 697 c 1,35,-1
 274 696 l 1,36,37
 291 696 291 696 306.5 706.5 c 128,-1,38
 322 717 322 717 340 719 c 1,39,-1
 410 721 l 1,40,41
 410 713 410 713 439.5 694 c 128,-1,42
 469 675 469 675 473 675 c 1,43,-1
 473 671 l 1,44,45
 487 671 487 671 508 649 c 0,46,47
 547 608 547 608 549 595 c 1,48,-1
 600 522 l 1,49,-1
 599 519 l 1,50,51
 599 512 599 512 609 502 c 0,52,53
 628 483 628 483 631 471.5 c 128,-1,54
 634 460 634 460 634 447 c 2,55,-1
 633 420 l 1,0,1
515 70 m 1,56,57
 435 25 435 25 344 3 c 1,58,-1
 344 -3 l 1,59,60
 435 -3 435 -3 501 42 c 0,61,62
 524 57 524 57 536 79 c 1,63,64
 524 70 524 70 515 70 c 1,56,57
259 19 m 1,65,66
 262 10 262 10 277 10 c 2,67,-1
 283 10 l 2,68,69
 289 10 289 10 327 23 c 0,70,71
 401 48 401 48 401 60 c 1,72,73
 377 60 377 60 347 51 c 128,-1,74
 317 42 317 42 307 39 c 128,-1,75
 297 36 297 36 287.5 32.5 c 128,-1,76
 278 29 278 29 271 26.5 c 128,-1,77
 264 24 264 24 259 19 c 1,65,66
392 32 m 2,78,79
 392 31 392 31 393 31 c 2,80,-1
 395 31 l 2,81,82
 417 31 417 31 442 53 c 1,83,-1
 438 53 l 1,84,-1
 392 32 l 2,78,79
203 43 m 1,85,-1
 216 44 l 1,86,-1
 216 35 l 1,87,88
 224 35 224 35 230.5 40 c 128,-1,89
 237 45 237 45 243 45 c 128,-1,90
 249 45 249 45 251 44 c 1,91,-1
 349 88 l 1,92,-1
 311 85 l 1,93,-1
 310 91 l 2,94,95
 310 93 310 93 314 96 c 1,96,-1
 311 96 l 2,97,98
 287 96 287 96 253.5 89 c 128,-1,99
 220 82 220 82 203 76 c 128,-1,100
 186 70 186 70 186 62 c 0,101,102
 186 43 186 43 203 43 c 1,85,-1
378 75 m 1,103,-1
 372 76 l 1,104,105
 358 75 358 75 346 66.5 c 128,-1,106
 334 58 334 58 319 58 c 1,107,108
 355 58 355 58 378 75 c 1,103,-1
468 79 m 1,109,110
 476 75 476 75 490 75 c 1,111,112
 492 77 492 77 504 81.5 c 128,-1,113
 516 86 516 86 519 88 c 1,114,-1
 513 88 l 2,115,116
 511 88 511 88 504.5 87.5 c 128,-1,117
 498 87 498 87 491.5 86.5 c 128,-1,118
 485 86 485 86 473 84 c 1,119,-1
 468 79 l 1,109,110
302 125 m 0,120,121
 294 125 294 125 294 121 c 1,122,-1
 207 101 l 1,123,124
 176 101 176 101 156 92 c 1,125,126
 162 84 162 84 170 84 c 1,127,128
 199 90 199 90 225.5 95.5 c 128,-1,129
 252 101 252 101 268 101 c 0,130,131
 310 101 310 101 323 121 c 1,132,133
 317 125 317 125 302 125 c 0,120,121
589 153 m 1,134,135
 574 142 574 142 559 142 c 1,136,-1
 530 134 l 1,137,-1
 447 96 l 1,138,-1
 471 96 l 2,139,140
 589 96 589 96 589 153 c 1,134,135
135 139 m 128,-1,142
 122 138 122 138 122 135.5 c 128,-1,143
 122 133 122 133 126 127.5 c 128,-1,144
 130 122 130 122 134.5 117 c 128,-1,145
 139 112 139 112 143 108 c 128,-1,146
 147 104 147 104 147 103 c 1,147,148
 149 103 149 103 172 114 c 0,149,150
 217 135 217 135 237 142 c 1,151,152
 217 142 217 142 199 142 c 128,-1,153
 181 142 181 142 164.5 141 c 128,-1,141
 148 140 148 140 135 139 c 128,-1,142
254 142 m 1,154,155
 242 128 242 128 229 121 c 1,156,157
 257 121 257 121 280 130 c 1,158,-1
 272 138 l 2,159,160
 267 143 267 143 265.5 142.5 c 128,-1,161
 264 142 264 142 260 142 c 2,162,-1
 254 142 l 1,154,155
455 127 m 0,163,164
 455 121 455 121 464 121 c 1,165,-1
 506 139 l 1,166,-1
 506 143 l 1,167,-1
 502 143 l 2,168,169
 498 143 498 143 496.5 142.5 c 128,-1,170
 495 142 495 142 487.5 140 c 128,-1,171
 480 138 480 138 473 136 c 0,172,173
 455 129 455 129 455 127 c 0,163,164
471 503 m 1,174,-1
 473 514 l 1,175,176
 463 539 463 539 418 564 c 0,177,178
 383 583 383 583 369 583 c 128,-1,179
 355 583 355 583 339.5 573 c 128,-1,180
 324 563 324 563 306 550 c 0,181,182
 267 521 267 521 254 505 c 1,183,-1
 242 463 l 1,184,185
 242 452 242 452 235.5 441 c 128,-1,186
 229 430 229 430 224 419.5 c 128,-1,187
 219 409 219 409 216 396 c 0,188,189
 212 373 212 373 212 338 c 128,-1,190
 212 303 212 303 220 288.5 c 128,-1,191
 228 274 228 274 231 263 c 128,-1,192
 234 252 234 252 235 245.5 c 128,-1,193
 236 239 236 239 237.5 232 c 128,-1,194
 239 225 239 225 240 218.5 c 128,-1,195
 241 212 241 212 242 211 c 0,196,197
 259 173 259 173 293 155.5 c 128,-1,198
 327 138 327 138 366 138 c 0,199,200
 391 138 391 138 416 152 c 0,201,202
 462 179 462 179 466 206 c 0,203,204
 468 221 468 221 476.5 233.5 c 128,-1,205
 485 246 485 246 490 270 c 0,206,207
 502 319 502 319 502 364.5 c 128,-1,208
 502 410 502 410 477 494 c 1,209,210
 471 494 471 494 471 503 c 1,174,-1
566 186 m 1,211,212
 566 180 566 180 571 177 c 1,213,214
 561 163 561 163 544.5 159 c 128,-1,215
 528 155 528 155 515 147 c 1,216,217
 536 147 536 147 558.5 158 c 128,-1,218
 581 169 581 169 600 177 c 1,219,220
 599 180 599 180 599 190 c 0,221,222
 599 211 599 211 611 237 c 1,223,-1
 611 215 l 1,224,225
 613 223 613 223 617.5 232 c 128,-1,226
 622 241 622 241 622 249 c 1,227,-1
 617 249 l 1,228,-1
 617 306 l 1,229,230
 610 306 610 306 578 291.5 c 128,-1,231
 546 277 546 277 545 275 c 1,232,-1
 596 275 l 1,233,-1
 604 267 l 1,234,235
 593 250 593 250 558 244 c 0,236,237
 519 237 519 237 506 228 c 1,238,239
 526 228 526 228 546.5 232.5 c 128,-1,240
 567 237 567 237 589 237 c 0,241,242
 596 237 596 237 596 229 c 128,-1,243
 596 221 596 221 583.5 212 c 128,-1,244
 571 203 571 203 554 196 c 0,245,246
 516 178 516 178 503 178 c 0,247,248
 477 178 477 178 464 160 c 1,249,250
 476 160 476 160 482.5 165.5 c 128,-1,251
 489 171 489 171 501.5 174.5 c 128,-1,252
 514 178 514 178 531.5 180.5 c 128,-1,253
 549 183 549 183 566 186 c 1,211,212
85 221 m 1,254,-1
 84 211 l 1,255,-1
 114 151 l 1,256,257
 119 162 119 162 135 166.5 c 128,-1,258
 151 171 151 171 156 173 c 2,259,-1
 203 186 l 1,260,-1
 199 191 l 1,261,262
 195 190 195 190 187 190 c 2,263,-1
 169 190 l 2,264,265
 92 190 92 190 92 220 c 2,266,-1
 92 222 l 2,267,268
 92 223 92 223 93 223 c 2,269,-1
 109 228 l 1,270,-1
 109 223 l 1,271,272
 118 229 118 229 135 234 c 0,273,274
 166 242 166 242 166 243 c 0,275,276
 166 252 166 252 132 252 c 2,277,-1
 122 252 l 1,278,-1
 122 258 l 1,279,280
 88 262 88 262 88 277 c 0,281,282
 88 286 88 286 98 290 c 128,-1,283
 108 294 108 294 121.5 296.5 c 128,-1,284
 135 299 135 299 148.5 301.5 c 128,-1,285
 162 304 162 304 170 309 c 1,286,-1
 165 313 l 1,287,-1
 118 322 l 1,288,-1
 109 326 l 1,289,-1
 75 326 l 1,290,-1
 75 317 l 1,291,-1
 80 317 l 1,292,293
 74 311 74 311 74 300 c 1,294,-1
 84 300 l 1,295,296
 84 284 84 284 75 280 c 1,297,298
 77 265 77 265 81 250 c 128,-1,299
 85 235 85 235 85 221 c 1,254,-1
227 178 m 1,300,-1
 223 177 l 1,301,-1
 220 177 l 1,302,-1
 152 156 l 1,303,-1
 152 151 l 1,304,-1
 216 151 l 1,305,306
 221 155 221 155 231.5 157 c 128,-1,307
 242 159 242 159 242 164 c 0,308,309
 242 178 242 178 227 178 c 1,300,-1
536 215 m 1,310,311
 522 214 522 214 508.5 211 c 128,-1,312
 495 208 495 208 490 194 c 1,313,314
 498 194 498 194 513.5 199.5 c 128,-1,315
 529 205 529 205 540 207 c 1,316,-1
 549 215 l 1,317,-1
 536 215 l 1,310,311
118 211 m 1,318,-1
 156 202 l 1,319,320
 164 202 164 202 181.5 205 c 128,-1,321
 199 208 199 208 216 208 c 1,322,-1
 191 292 l 1,323,324
 191 305 191 305 187 317 c 1,325,326
 185 303 185 303 173 298 c 128,-1,327
 161 293 161 293 147 290 c 128,-1,328
 133 287 133 287 120.5 284.5 c 128,-1,329
 108 282 108 282 105 275 c 1,330,331
 118 269 118 269 147 264 c 0,332,333
 199 254 199 254 199 245 c 2,334,-1
 199 241 l 1,335,-1
 122 215 l 1,336,-1
 118 211 l 1,318,-1
510 249 m 1,337,-1
 525 248 l 1,338,339
 542 248 542 248 549 258 c 1,340,341
 546 257 546 257 533 256 c 0,342,343
 512 254 512 254 510 249 c 1,337,-1
540 343 m 2,344,345
 523 343 523 343 523 347 c 0,346,347
 523 367 523 367 580 394 c 0,348,349
 592 400 592 400 600 403 c 1,350,351
 579 403 579 403 559 398 c 128,-1,352
 539 393 539 393 519 391 c 1,353,-1
 519 289 l 1,354,-1
 515 280 l 1,355,356
 522 284 522 284 529.5 286 c 128,-1,357
 537 288 537 288 545 292 c 1,358,359
 536 292 536 292 536 301 c 128,-1,360
 536 310 536 310 543 317 c 128,-1,361
 550 324 550 324 559.5 329.5 c 128,-1,362
 569 335 569 335 578 340 c 128,-1,363
 587 345 587 345 591 352 c 1,364,365
 572 343 572 343 549 343 c 2,366,-1
 540 343 l 2,344,345
617 326 m 0,367,368
 617 338 617 338 611 344 c 1,369,370
 597 344 597 344 581 330.5 c 128,-1,371
 565 317 565 317 562 313 c 1,372,-1
 568 313 l 1,373,374
 617 321 617 321 617 326 c 0,367,368
97 339 m 1,375,376
 118 337 118 337 139 330.5 c 128,-1,377
 160 324 160 324 182 324 c 1,378,-1
 183 348 l 1,379,-1
 173 346 l 1,380,381
 150 343 150 343 128 341.5 c 128,-1,382
 106 340 106 340 97 339 c 1,375,376
83 369 m 0,383,384
 75 369 75 369 75 361 c 1,385,-1
 72 373 l 1,386,-1
 72 352 l 1,387,388
 93 352 93 352 109 356 c 1,389,-1
 109 352 l 1,390,391
 117 357 117 357 139 361 c 1,392,393
 113 369 113 369 83 369 c 0,383,384
554 365 m 1,394,395
 543 361 543 361 543 351 c 1,396,397
 556 351 556 351 570.5 359.5 c 128,-1,398
 585 368 585 368 596 368 c 1,399,-1
 596 363 l 1,400,401
 613 363 613 363 613 369 c 1,402,-1
 608 391 l 1,403,-1
 554 365 l 1,394,395
100 382 m 1,404,405
 123 379 123 379 144.5 374 c 128,-1,406
 166 369 166 369 187 369 c 1,407,-1
 187 396 l 1,408,409
 169 393 169 393 156 391 c 0,410,411
 123 386 123 386 100 382 c 1,404,405
84 412 m 2,412,413
 90 412 90 412 90 409 c 0,414,415
 90 404 90 404 83.5 397.5 c 128,-1,416
 77 391 77 391 75 391 c 2,417,-1
 165 407 l 1,418,-1
 170 407 l 1,419,420
 187 411 187 411 187 415 c 1,421,422
 161 415 161 415 140 424 c 128,-1,423
 119 433 119 433 90 433 c 0,424,425
 84 433 84 433 84 424.5 c 128,-1,426
 84 416 84 416 80 412 c 1,427,-1
 84 412 l 2,412,413
515 454 m 1,428,-1
 578 459 l 1,429,430
 596 459 596 459 600 450 c 1,431,432
 582 427 582 427 545 416 c 1,433,-1
 540 407 l 1,434,435
 552 408 552 408 563 410 c 128,-1,436
 574 412 574 412 585 413 c 128,-1,437
 596 414 596 414 604 416 c 1,438,-1
 605 435 l 1,439,-1
 599 484 l 2,440,441
 599 491 599 491 600 494 c 1,442,-1
 591 489 l 1,443,444
 591 498 591 498 586 498 c 128,-1,445
 581 498 581 498 571 493 c 128,-1,446
 561 488 561 488 550 481 c 0,447,448
 521 463 521 463 515 454 c 1,428,-1
515 431 m 2,449,-1
 517 418 l 2,450,451
 517 414 517 414 519 412 c 1,452,453
 533 419 533 419 550.5 431.5 c 128,-1,454
 568 444 568 444 568 446 c 1,455,456
 542 446 542 446 528.5 440.5 c 128,-1,457
 515 435 515 435 515 431 c 2,449,-1
126 442 m 1,458,459
 134 440 134 440 150.5 434 c 128,-1,460
 167 428 167 428 172 428 c 0,461,462
 182 428 182 428 191 437 c 1,463,-1
 187 428 l 1,464,465
 200 428 200 428 200 451 c 1,466,467
 184 451 184 451 163.5 447.5 c 128,-1,468
 143 444 143 444 126 442 c 1,458,459
109 485 m 1,469,470
 109 480 109 480 103 473.5 c 128,-1,471
 97 467 97 467 96 454 c 1,472,-1
 105 454 l 1,473,474
 109 455 109 455 121 456.5 c 128,-1,475
 133 458 133 458 146 460.5 c 128,-1,476
 159 463 159 463 170.5 465 c 128,-1,477
 182 467 182 467 187 468 c 1,478,479
 176 468 176 468 167 472.5 c 128,-1,480
 158 477 158 477 149 482 c 0,481,482
 124 494 124 494 115.5 494 c 128,-1,483
 107 494 107 494 107 491.5 c 128,-1,484
 107 489 107 489 109 485 c 1,469,470
502 489 m 0,485,486
 502 479 502 479 506 471 c 1,487,488
 542 486 542 486 554 501 c 1,489,-1
 549 501 l 2,490,491
 528 501 528 501 515 496 c 128,-1,492
 502 491 502 491 502 489 c 0,485,486
144 502 m 0,493,494
 128 502 128 502 122 501 c 1,495,496
 142 496 142 496 162 486 c 128,-1,497
 182 476 182 476 203 476 c 1,498,499
 231 514 231 514 251 535 c 1,500,501
 234 548 234 548 193 548 c 2,502,-1
 178 548 l 1,503,-1
 178 552 l 1,504,-1
 148 552 l 1,505,-1
 152 548 l 1,506,507
 164 545 164 545 176.5 542 c 128,-1,508
 189 539 189 539 198 536 c 0,509,510
 220 528 220 528 220 515 c 128,-1,511
 220 502 220 502 144 502 c 0,493,494
556 540 m 0,512,513
 545 540 545 540 498 513 c 1,514,-1
 498 505 l 1,515,516
 536 514 536 514 573 514 c 1,517,518
 573 518 573 518 566 529 c 128,-1,519
 559 540 559 540 556 540 c 0,512,513
180.5 529 m 128,-1,521
 173 535 173 535 169 535 c 128,-1,522
 165 535 165 535 161 531 c 1,523,-1
 139 544 l 1,524,-1
 131 540 l 1,525,-1
 131 557 l 1,526,527
 114 523 114 523 114 522 c 2,528,-1
 113 518 l 1,529,-1
 114 514 l 1,530,-1
 126 531 l 2,531,532
 125 529 125 529 125 527 c 0,533,534
 125 518 125 518 135 518 c 2,535,-1
 188 518 l 1,536,520
 188 523 188 523 180.5 529 c 128,-1,521
515 535 m 1,537,-1
 506 535 l 2,538,539
 502 535 502 535 496 533.5 c 128,-1,540
 490 532 490 532 490 531 c 2,541,-1
 490 526 l 1,542,543
 500 526 500 526 515 535 c 1,537,-1
485 544 m 1,544,-1
 540 557 l 1,545,-1
 546 557 l 1,546,547
 546 565 546 565 540 570.5 c 128,-1,548
 534 576 534 576 532 583 c 1,549,550
 519 572 519 572 504 567 c 128,-1,551
 489 562 489 562 481 548 c 1,552,-1
 485 544 l 1,544,-1
203 599 m 1,553,-1
 268 552 l 1,554,555
 285 565 285 565 295 575 c 128,-1,556
 305 585 305 585 315 592 c 0,557,558
 334 607 334 607 375 612 c 0,559,560
 386 613 386 613 390.5 624 c 128,-1,561
 395 635 395 635 403 642 c 1,562,-1
 395 642 l 1,563,-1
 370 616 l 1,564,565
 344 616 344 616 328 633 c 0,566,567
 323 639 323 639 316.5 644.5 c 128,-1,568
 310 650 310 650 297 650 c 1,569,570
 298 649 298 649 314 638 c 1,571,-1
 314 603 l 1,572,-1
 272 603 l 1,573,574
 281 599 281 599 281 595 c 2,575,-1
 278 583 l 1,576,-1
 268 583 l 1,577,-1
 207 603 l 1,578,-1
 203 599 l 1,553,-1
144 569 m 1,579,580
 163 567 163 567 179 565 c 0,581,582
 211 561 211 561 229 561 c 1,583,-1
 174 608 l 1,584,-1
 144 574 l 1,585,-1
 144 569 l 1,579,580
519 595 m 1,586,587
 484 595 484 595 447 574 c 1,588,589
 447 572 447 572 454.5 566 c 128,-1,590
 462 560 462 560 466.5 560 c 128,-1,591
 471 560 471 560 478 564 c 128,-1,592
 485 568 485 568 492 573.5 c 128,-1,593
 499 579 499 579 506 585 c 128,-1,594
 513 591 513 591 519 595 c 1,586,587
495 625 m 0,595,596
 489 625 489 625 470.5 611.5 c 128,-1,597
 452 598 452 598 442 587 c 1,598,-1
 502 608 l 1,599,600
 506 608 506 608 506 612 c 0,601,602
 506 625 506 625 495 625 c 0,595,596
412 608 m 1,603,604
 416 601 416 601 425 599 c 1,605,606
 465 618 465 618 481 638 c 1,607,608
 463 638 463 638 439 626 c 128,-1,609
 415 614 415 614 412 608 c 1,603,604
195 624 m 1,610,611
 198 616 198 616 220 616 c 1,612,-1
 220 620 l 1,613,-1
 216 620 l 1,614,615
 214 622 214 622 207.5 624.5 c 128,-1,616
 201 627 201 627 199 629 c 1,617,-1
 195 624 l 1,610,611
220 646 m 1,618,-1
 224 647 l 2,619,620
 227 647 227 647 235.5 642 c 128,-1,621
 244 637 244 637 254 632 c 0,622,623
 284 616 284 616 289 616 c 2,624,-1
 294 616 l 1,625,626
 289 621 289 621 281 631 c 0,627,628
 267 650 267 650 263 650 c 2,629,-1
 254 650 l 1,630,-1
 254 660 l 1,631,632
 234 660 234 660 220 646 c 1,618,-1
469 647 m 1,633,634
 469 656 469 656 458 656 c 128,-1,635
 447 656 447 656 435.5 647 c 128,-1,636
 424 638 424 638 421 629 c 1,637,638
 451 647 451 647 469 647 c 1,633,634
392 694 m 1,639,640
 387 681 387 681 381 668 c 128,-1,641
 375 655 375 655 375 642 c 1,642,643
 400 665 400 665 408 685 c 1,644,-1
 392 694 l 1,639,640
280 664 m 1,645,646
 280 662 280 662 282 660.5 c 128,-1,647
 284 659 284 659 286 659 c 0,648,649
 292 659 292 659 294 664 c 1,650,-1
 274 671 l 1,651,-1
 280 664 l 1,645,646
329 665.5 m 128,-1,653
 331 673 331 673 331 677 c 128,-1,654
 331 681 331 681 327 685 c 1,655,656
 322 685 322 685 313 680.5 c 128,-1,657
 304 676 304 676 302 672 c 1,658,-1
 325 658 l 1,659,652
 327 658 327 658 329 665.5 c 128,-1,653
438 672 m 1,660,661
 438 674 438 674 431 677 c 0,662,663
 429 677 429 677 427 672 c 128,-1,664
 425 667 425 667 425 663 c 128,-1,665
 425 659 425 659 429 659 c 1,666,-1
 438 672 l 1,660,661
360 690 m 1,667,668
 356 690 356 690 351 682.5 c 128,-1,669
 346 675 346 675 346 671 c 1,670,-1
 361 680 l 1,671,-1
 360 690 l 1,667,668
EndSplineSet
EndChar

StartChar: one
Encoding: 49 49 20
Width: 366
Flags: W
LayerCount: 2
Fore
SplineSet
263 -12 m 1,0,-1
 251 -8 l 1,1,2
 215 -8 215 -8 176 -12.5 c 128,-1,3
 137 -17 137 -17 114.5 -17 c 128,-1,4
 92 -17 92 -17 89.5 -13.5 c 128,-1,5
 87 -10 87 -10 87 -4 c 2,6,-1
 87 4 l 2,7,8
 87 48 87 48 99 110.5 c 128,-1,9
 111 173 111 173 113 177 c 1,10,-1
 113 431 l 2,11,12
 113 450 113 450 117 470 c 1,13,-1
 116 486 l 1,14,15
 101 486 101 486 88 476 c 128,-1,16
 75 466 75 466 61 466 c 0,17,18
 43 466 43 466 43 542 c 1,19,-1
 44 599 l 1,20,21
 63 599 63 599 96 626 c 0,22,23
 160 677 160 677 178 711 c 1,24,25
 222 711 222 711 251 703.5 c 128,-1,26
 280 696 280 696 281 694 c 0,27,28
 285 674 285 674 285 651 c 128,-1,29
 285 628 285 628 280.5 604 c 128,-1,30
 276 580 276 580 276 550 c 128,-1,31
 276 520 276 520 281 484 c 128,-1,32
 286 448 286 448 286 411 c 1,33,-1
 281 295 l 1,34,-1
 286 211 l 1,35,36
 286 -12 286 -12 263 -12 c 1,0,-1
251 83 m 1,37,38
 195 56 195 56 121 56 c 1,39,-1
 113 13 l 1,40,-1
 121 4 l 1,41,-1
 169 35 l 1,42,-1
 169 21 l 1,43,-1
 190 30 l 1,44,45
 190 22 190 22 182 20 c 0,46,47
 168 15 168 15 164 9 c 1,48,-1
 175 9 l 2,49,50
 202 9 202 9 224 12.5 c 128,-1,51
 246 16 246 16 246 18 c 2,52,-1
 246 49 l 1,53,54
 241 41 241 41 233 38.5 c 128,-1,55
 225 36 225 36 216 30 c 1,56,-1
 212 35 l 1,57,58
 227 48 227 48 238 56 c 128,-1,59
 249 64 249 64 251 83 c 1,37,38
129 76 m 1,60,-1
 141 75 l 1,61,62
 190 75 190 75 238 94 c 0,63,64
 251 100 251 100 251 106 c 2,65,-1
 251 123 l 1,66,-1
 129 76 l 1,60,-1
190 147 m 1,67,68
 183 140 183 140 138 134 c 1,69,70
 129 120 129 120 129 99 c 1,71,72
 142 99 142 99 162.5 105 c 128,-1,73
 183 111 183 111 190 121 c 1,74,-1
 246 147 l 1,75,-1
 242 151 l 1,76,-1
 190 143 l 1,77,-1
 190 147 l 1,67,68
178 194 m 1,78,79
 211 206 211 206 229 206 c 0,80,81
 237 206 237 206 237 198 c 128,-1,82
 237 190 237 190 224 184 c 128,-1,83
 211 178 211 178 194 172 c 0,84,85
 144 155 144 155 138 151 c 1,86,-1
 147 151 l 2,87,88
 173 151 173 151 214 159.5 c 128,-1,89
 255 168 255 168 255 169 c 2,90,-1
 255 230 l 1,91,92
 238 230 238 230 209 213.5 c 128,-1,93
 180 197 180 197 178 194 c 1,78,79
190 186 m 1,94,-1
 143 177 l 2,95,96
 138 177 138 177 138 169 c 1,97,98
 150 173 150 173 164.5 176 c 128,-1,99
 179 179 179 179 190 186 c 1,94,-1
248 246 m 1,100,101
 154 230 154 230 143 225 c 1,102,-1
 143 194 l 1,103,-1
 233 233 l 1,104,105
 236 238 236 238 241 239.5 c 128,-1,106
 246 241 246 241 248 246 c 1,100,101
155 242 m 1,107,-1
 164 241 l 1,108,109
 179 241 179 241 239 256 c 2,110,-1
 251 259 l 1,111,-1
 251 285 l 1,112,113
 220 273 220 273 155 242 c 1,107,-1
143 250 m 1,114,115
 149 250 149 250 179 262 c 0,116,117
 232 285 232 285 237 293 c 1,118,119
 229 293 229 293 218 290.5 c 128,-1,120
 207 288 207 288 194 286 c 0,121,122
 155 278 155 278 143 278 c 1,123,-1
 143 250 l 1,114,115
147 288 m 1,124,125
 172 288 172 288 251 306 c 1,126,-1
 255 350 l 1,127,128
 252 344 252 344 224 331 c 0,129,130
 163 301 163 301 147 293 c 1,131,-1
 147 288 l 1,124,125
142 317 m 2,132,-1
 143 310 l 1,133,134
 175 313 175 313 216 338 c 0,135,136
 228 345 228 345 237 350 c 1,137,138
 217 350 217 350 191.5 340 c 128,-1,139
 166 330 166 330 154.5 328 c 128,-1,140
 143 326 143 326 142.5 323 c 128,-1,141
 142 320 142 320 142 317 c 2,132,-1
251 363 m 1,142,-1
 252 367 l 1,143,144
 252 377 252 377 241 377 c 0,145,146
 229 377 229 377 197 361 c 128,-1,147
 165 345 165 345 155 341 c 0,148,149
 155 340 155 340 157 338 c 128,-1,150
 159 336 159 336 160 336 c 2,151,-1
 172 340 l 2,152,153
 184 345 184 345 199 349.5 c 128,-1,154
 214 354 214 354 227 358 c 128,-1,155
 240 362 240 362 242 362 c 2,156,-1
 251 362 l 1,157,-1
 251 363 l 1,142,-1
138 409 m 0,158,159
 138 365 138 365 143 350 c 1,160,-1
 147 350 l 1,161,-1
 225 384 l 1,162,163
 227 388 227 388 233 391.5 c 128,-1,164
 239 395 239 395 242 397 c 1,165,166
 222 397 222 397 199.5 388 c 128,-1,167
 177 379 177 379 164.5 379 c 128,-1,168
 152 379 152 379 152 384 c 1,169,170
 173 420 173 420 246 444 c 1,171,-1
 251 449 l 1,172,173
 238 449 238 449 204 439 c 0,174,175
 138 419 138 419 138 409 c 0,158,159
251 435 m 1,176,177
 195 413 195 413 186 397 c 1,178,179
 198 397 198 397 224.5 405 c 128,-1,180
 251 413 251 413 251 414 c 2,181,-1
 251 435 l 1,176,177
181 496 m 1,182,-1
 237 500 l 2,183,184
 246 500 246 500 246 493.5 c 128,-1,185
 246 487 246 487 236 479.5 c 128,-1,186
 226 472 226 472 212 464 c 0,187,188
 193 452 193 452 164 440 c 1,189,190
 186 440 186 440 209.5 448.5 c 128,-1,191
 233 457 233 457 255 461 c 1,192,-1
 250 551 l 2,193,194
 250 555 250 555 250.5 558 c 128,-1,195
 251 561 251 561 251 565 c 1,196,197
 242 560 242 560 231 555 c 128,-1,198
 220 550 220 550 212 543 c 1,199,-1
 242 539 l 1,200,-1
 242 526 l 1,201,202
 222 519 222 519 211 511.5 c 128,-1,203
 200 504 200 504 181 496 c 1,182,-1
225 489 m 1,204,-1
 153 483 l 1,205,206
 153 503 153 503 182 513 c 0,207,208
 194 517 194 517 203 520.5 c 128,-1,209
 212 524 212 524 212 531 c 1,210,211
 187 531 187 531 156 514 c 0,212,213
 147 510 147 510 147 505 c 2,214,-1
 147 444 l 1,215,216
 150 447 150 447 163 452.5 c 128,-1,217
 176 458 176 458 190 465 c 0,218,219
 225 483 225 483 225 489 c 1,204,-1
253 583 m 1,220,221
 209 583 209 583 162 566 c 128,-1,222
 115 549 115 549 92.5 533.5 c 128,-1,223
 70 518 70 518 70 500 c 1,224,225
 82 500 82 500 117 516 c 0,226,227
 184 548 184 548 191.5 549 c 128,-1,228
 199 550 199 550 210 554.5 c 128,-1,229
 221 559 221 559 230 564 c 0,230,231
 253 578 253 578 253 583 c 1,220,221
74 539 m 1,232,233
 75 540 75 540 79.5 541.5 c 128,-1,234
 84 543 84 543 90 546 c 0,235,236
 118 556 118 556 126.5 564.5 c 128,-1,237
 135 573 135 573 144 582 c 1,238,239
 170 604 170 604 179 604 c 128,-1,240
 188 604 188 604 197.5 607.5 c 128,-1,241
 207 611 207 611 216 616 c 0,242,243
 238 628 238 628 238 634 c 1,244,245
 229 634 229 634 189.5 619 c 128,-1,246
 150 604 150 604 74 557 c 1,247,-1
 74 539 l 1,232,233
155 621 m 1,248,249
 146 621 146 621 134 617 c 1,250,-1
 129 626 l 1,251,252
 120 620 120 620 109.5 616 c 128,-1,253
 99 612 99 612 90 607 c 0,254,255
 67 595 67 595 67 574 c 1,256,-1
 78 574 l 1,257,-1
 155 621 l 1,248,249
261 623 m 1,258,259
 243 623 243 623 205.5 601.5 c 128,-1,260
 168 580 168 580 164 575 c 1,261,262
 176 579 176 579 192 582 c 128,-1,263
 208 585 208 585 223 590 c 0,264,265
 257 600 257 600 261 623 c 1,258,259
251 673 m 2,266,-1
 253 688 l 1,267,268
 246 688 246 688 241.5 678 c 128,-1,269
 237 668 237 668 224.5 662 c 128,-1,270
 212 656 212 656 194.5 647 c 128,-1,271
 177 638 177 638 160 630 c 1,272,-1
 164 629 l 1,273,274
 187 629 187 629 209.5 637.5 c 128,-1,275
 232 646 232 646 255 646 c 1,276,-1
 259 642 l 1,277,-1
 259 664 l 1,278,279
 257 664 257 664 254 666.5 c 128,-1,280
 251 669 251 669 251 673 c 2,266,-1
198 690 m 0,281,282
 191 690 191 690 186.5 674 c 128,-1,283
 182 658 182 658 182 656 c 1,284,285
 184 657 184 657 191 659.5 c 128,-1,286
 198 662 198 662 206 666 c 0,287,288
 224 674 224 674 234 685 c 1,289,290
 217 690 217 690 198 690 c 0,281,282
EndSplineSet
EndChar

StartChar: two
Encoding: 50 50 21
Width: 508
Flags: W
LayerCount: 2
Fore
SplineSet
112 -1 m 2,0,-1
 172 -1 l 2,1,2
 223 -1 223 -1 286 6 c 1,3,-1
 286 12 l 1,4,5
 303 29 303 29 312 47 c 1,6,7
 285 29 285 29 260.5 20.5 c 128,-1,8
 236 12 236 12 230 12 c 128,-1,9
 224 12 224 12 222 13.5 c 128,-1,10
 220 15 220 15 217 21 c 1,11,-1
 273 78 l 1,12,13
 278 78 278 78 282 82 c 1,14,15
 280 84 280 84 280 86 c 1,16,17
 253 86 253 86 229 74 c 128,-1,18
 205 62 205 62 181 47 c 128,-1,19
 157 32 157 32 132.5 20 c 128,-1,20
 108 8 108 8 90 8 c 128,-1,21
 72 8 72 8 65 2.5 c 128,-1,22
 58 -3 58 -3 46.5 -15 c 128,-1,23
 35 -27 35 -27 34 -27 c 2,24,-1
 32 -27 l 2,25,26
 30 -27 30 -27 26.5 -25 c 128,-1,27
 23 -23 23 -23 23 -20.5 c 128,-1,28
 23 -18 23 -18 38 1 c 0,29,30
 99 75 99 75 122 121 c 128,-1,31
 145 167 145 167 164.5 201 c 128,-1,32
 184 235 184 235 204 270 c 0,33,34
 252 353 252 353 273 401 c 1,35,36
 282 408 282 408 282 421.5 c 128,-1,37
 282 435 282 435 278.5 459.5 c 128,-1,38
 275 484 275 484 267 510 c 0,39,40
 247 574 247 574 216 574 c 0,41,42
 181 574 181 574 135 538 c 0,43,44
 123 528 123 528 114 521 c 1,45,46
 98 514 98 514 88 495 c 0,47,48
 80 478 80 478 66 478 c 1,49,50
 59 496 59 496 55 522 c 0,51,52
 48 568 48 568 36 586 c 1,53,54
 36 597 36 597 45.5 603 c 128,-1,55
 55 609 55 609 66 620 c 1,56,57
 91 662 91 662 148 685 c 0,58,59
 194 703 194 703 236 703 c 128,-1,60
 278 703 278 703 302.5 692.5 c 128,-1,61
 327 682 327 682 350 666 c 1,62,63
 393 633 393 633 424 591 c 1,64,65
 426 579 426 579 428 566 c 128,-1,66
 430 553 430 553 436 539 c 128,-1,67
 442 525 442 525 442 518 c 2,68,-1
 442 507 l 2,69,70
 442 483 442 483 437.5 463 c 128,-1,71
 433 443 433 443 428 417 c 1,72,-1
 381 276 l 1,73,74
 316 160 316 160 278 112 c 1,75,-1
 425 117 l 2,76,77
 452 117 452 117 459 108 c 1,78,79
 458 103 458 103 458 100 c 2,80,-1
 458 91 l 1,81,-1
 463 12 l 2,82,83
 463 1 463 1 461 -8.5 c 128,-1,84
 459 -18 459 -18 445 -18 c 1,85,-1
 370 -12 l 1,86,87
 344 -12 344 -12 333 -18 c 1,88,-1
 130 -22 l 1,89,-1
 114 -22 l 1,90,-1
 65 -21 l 1,91,-1
 49 -21 l 1,92,93
 58 -8 58 -8 68.5 -6.5 c 128,-1,94
 79 -5 79 -5 92 0 c 1,95,96
 102 -1 102 -1 112 -1 c 2,0,-1
438 4 m 1,97,-1
 432 46 l 2,98,99
 432 52 432 52 433 56 c 1,100,101
 431 54 431 54 423 48 c 2,102,-1
 405 34 l 2,103,104
 381 16 381 16 372 12 c 1,105,106
 405 12 405 12 419 8.5 c 128,-1,107
 433 5 433 5 438 4 c 1,97,-1
363.5 74 m 128,-1,109
 344 53 344 53 312 21 c 1,110,-1
 320 21 l 1,111,112
 353 40 353 40 386.5 53.5 c 128,-1,113
 420 67 420 67 426.5 71 c 128,-1,114
 433 75 433 75 433 80.5 c 128,-1,115
 433 86 433 86 429 88.5 c 128,-1,116
 425 91 425 91 420 92 c 0,117,118
 410 95 410 95 396.5 95 c 128,-1,108
 383 95 383 95 363.5 74 c 128,-1,109
275 202 m 0,119,120
 287 202 287 202 287 194 c 128,-1,121
 287 186 287 186 270 173.5 c 128,-1,122
 253 161 253 161 230 150 c 0,123,124
 175 121 175 121 160 121 c 128,-1,125
 145 121 145 121 135 108 c 1,126,127
 144 117 144 117 194 124.5 c 128,-1,128
 244 132 244 132 247 132 c 1,129,130
 247 113 247 113 172 77 c 0,131,132
 131 57 131 57 119.5 45.5 c 128,-1,133
 108 34 108 34 101 26 c 1,134,135
 132 33 132 33 160 48 c 128,-1,136
 188 63 188 63 204.5 72.5 c 128,-1,137
 221 82 221 82 238 90 c 1,138,139
 238 102 238 102 243 108 c 2,140,-1
 346 254 l 1,141,-1
 346 260 l 1,142,143
 334 260 334 260 275.5 228.5 c 128,-1,144
 217 197 217 197 213 194 c 1,145,-1
 213 189 l 1,146,147
 217 189 217 189 234 194 c 0,148,149
 266 202 266 202 275 202 c 0,119,120
338 79 m 1,150,151
 338 87 338 87 323 86.5 c 128,-1,152
 308 86 308 86 300.5 86 c 128,-1,153
 293 86 293 86 243 30 c 1,154,-1
 243 26 l 1,155,156
 269 35 269 35 295 52 c 1,157,158
 305 57 305 57 316 68 c 128,-1,159
 327 79 327 79 338 79 c 1,150,151
208 116 m 1,160,-1
 202 117 l 1,161,162
 185 117 185 117 162.5 107.5 c 128,-1,163
 140 98 140 98 122 95 c 1,164,-1
 127 86 l 1,165,-1
 118 86 l 1,166,-1
 105 60 l 1,167,-1
 109 60 l 2,168,169
 131 60 131 60 189 100 c 0,170,171
 203 109 203 109 208 116 c 1,160,-1
269 254 m 1,172,-1
 230 259 l 1,173,174
 218 259 218 259 208 254 c 0,175,176
 206 253 206 253 188 213 c 0,177,178
 154 140 154 140 148 129 c 1,179,-1
 200 151 l 1,180,181
 203 158 203 158 216.5 163.5 c 128,-1,182
 230 169 230 169 236.5 172 c 128,-1,183
 243 175 243 175 247 181 c 1,184,185
 225 177 225 177 204 177 c 1,186,-1
 193 183 l 2,187,188
 191 185 191 185 191 188 c 0,189,190
 191 207 191 207 293 250 c 0,191,192
 313 259 313 259 316 263 c 1,193,-1
 269 254 l 1,172,-1
256 263 m 0,194,195
 297 263 297 263 363 285 c 1,196,197
 363 311 363 311 369 320 c 0,198,199
 383 341 383 341 389 358 c 1,200,201
 367 327 367 327 346 318 c 2,202,-1
 234 267 l 1,203,204
 246 263 246 263 256 263 c 0,194,195
270 326 m 2,205,-1
 256 327 l 1,206,207
 251 316 251 316 244.5 303 c 128,-1,208
 238 290 238 290 238 285 c 1,209,-1
 243 285 l 2,210,211
 260 285 260 285 306 311 c 128,-1,212
 352 337 352 337 355 340 c 1,213,214
 351 342 351 342 344.5 342 c 128,-1,215
 338 342 338 342 326 339.5 c 128,-1,216
 314 337 314 337 302.5 334 c 128,-1,217
 291 331 291 331 282 328.5 c 128,-1,218
 273 326 273 326 270 326 c 2,205,-1
273 340 m 1,219,220
 340 345 340 345 394 370 c 1,221,-1
 394 401 l 1,222,223
 379 393 379 393 358 384 c 128,-1,224
 337 375 337 375 318 366 c 0,225,226
 273 344 273 344 273 340 c 1,219,220
424 474 m 1,227,228
 418 466 418 466 386 452 c 0,229,230
 321 424 321 424 304 409 c 1,231,-1
 286 362 l 1,232,233
 361 398 361 398 389 417 c 1,234,235
 377 415 377 415 363 414 c 128,-1,236
 349 413 349 413 332 411 c 1,237,238
 367 422 367 422 390 435 c 128,-1,239
 413 448 413 448 424 474 c 1,227,228
304 426 m 1,240,241
 319 426 319 426 357.5 449.5 c 128,-1,242
 396 473 396 473 411 481 c 1,243,244
 383 475 383 475 354 470.5 c 128,-1,245
 325 466 325 466 299 457 c 1,246,-1
 304 426 l 1,240,241
415 517 m 1,247,248
 382 501 382 501 350 490 c 128,-1,249
 318 479 318 479 308 474 c 1,250,251
 353 474 353 474 401 493 c 0,252,253
 416 499 416 499 416 508 c 0,254,255
 416 509 416 509 415.5 512.5 c 128,-1,256
 415 516 415 516 415 517 c 1,247,248
356 513 m 1,257,258
 298 513 298 513 295 498 c 1,259,260
 295 487 295 487 299 483 c 1,261,262
 333 499 333 499 372 512 c 1,263,-1
 356 513 l 1,257,258
290 513 m 1,264,265
 306 517 306 517 327 517 c 128,-1,266
 348 517 348 517 369 524.5 c 128,-1,267
 390 532 390 532 412 532 c 1,268,269
 412 553 412 553 404 573 c 0,270,271
 387 612 387 612 372 612 c 1,272,-1
 299 582 l 1,273,274
 316 582 316 582 335.5 586.5 c 128,-1,275
 355 591 355 591 368 591 c 128,-1,276
 381 591 381 591 381 583 c 0,277,278
 381 571 381 571 366.5 562 c 128,-1,279
 352 553 352 553 335 546 c 128,-1,280
 318 539 318 539 303.5 532 c 128,-1,281
 289 525 289 525 289 517 c 0,282,283
 289 514 289 514 290 513 c 1,264,265
79 521 m 1,284,285
 105 557 105 557 158 576 c 0,286,287
 181 584 181 584 204 591 c 128,-1,288
 227 598 227 598 247 607 c 1,289,290
 242 612 242 612 234 612 c 0,291,292
 207 612 207 612 114 574 c 0,293,294
 92 565 92 565 85.5 561.5 c 128,-1,295
 79 558 79 558 78.5 554 c 128,-1,296
 78 550 78 550 78 545 c 2,297,-1
 78 533 l 2,298,299
 78 526 78 526 79 521 c 1,284,285
351 573 m 1,300,-1
 336 574 l 1,301,302
 309 574 309 574 293.5 568.5 c 128,-1,303
 278 563 278 563 278 560 c 2,304,-1
 282 533 l 1,305,306
 284 533 284 533 306.5 545 c 128,-1,307
 329 557 329 557 351 573 c 1,300,-1
302 659 m 1,308,309
 297 659 297 659 273 676 c 1,310,311
 268 676 268 676 264 672 c 1,312,313
 213 652 213 652 170.5 632.5 c 128,-1,314
 128 613 128 613 79 603 c 1,315,-1
 97 582 l 1,316,317
 113 582 113 582 132 600 c 1,318,319
 144 613 144 613 252 629 c 0,320,321
 270 631 270 631 287 638 c 128,-1,322
 304 645 304 645 323 645 c 1,323,-1
 324 637 l 2,324,325
 324 634 324 634 320 633 c 2,326,-1
 269 612 l 1,327,-1
 264 607 l 1,328,329
 269 607 269 607 280.5 610 c 128,-1,330
 292 613 292 613 305 616 c 0,331,332
 344 625 344 625 352.5 625 c 128,-1,333
 361 625 361 625 363 624 c 1,334,335
 356 637 356 637 337 637 c 1,336,337
 337 643 337 643 327.5 653.5 c 128,-1,338
 318 664 318 664 312 664 c 1,339,-1
 302 659 l 1,308,309
312 599 m 1,340,341
 271 599 271 599 252 591 c 1,342,343
 252 584 252 584 254.5 583 c 128,-1,344
 257 582 257 582 266 582 c 0,345,346
 281 582 281 582 312 599 c 1,340,341
252 681 m 1,347,-1
 245 682 l 1,348,349
 176 682 176 682 130 652 c 0,350,351
 112 640 112 640 101 624 c 1,352,353
 121 624 121 624 141.5 637.5 c 128,-1,354
 162 651 162 651 173 657 c 128,-1,355
 184 663 184 663 196 663 c 1,356,-1
 196 659 l 1,357,358
 203 666 203 666 217 669 c 0,359,360
 245 675 245 675 252 681 c 1,347,-1
EndSplineSet
EndChar

StartChar: three
Encoding: 51 51 22
Width: 528
Flags: W
LayerCount: 2
Fore
SplineSet
83 602 m 1,0,1
 73 602 73 602 68 607 c 1,2,3
 68 653 68 653 128 676 c 0,4,5
 144 682 144 682 159 689 c 1,6,7
 189 686 189 686 229 684 c 128,-1,8
 269 682 269 682 309 671.5 c 128,-1,9
 349 661 349 661 383 637.5 c 128,-1,10
 417 614 417 614 435 568 c 0,11,12
 440 554 440 554 444 544 c 128,-1,13
 448 534 448 534 448 521.5 c 128,-1,14
 448 509 448 509 443.5 488.5 c 128,-1,15
 439 468 439 468 432 446 c 0,16,17
 413 385 413 385 405 370 c 1,18,-1
 405 366 l 1,19,20
 453 318 453 318 474 272 c 0,21,22
 483 253 483 253 483 228 c 128,-1,23
 483 203 483 203 474.5 169.5 c 128,-1,24
 466 136 466 136 450 106 c 0,25,26
 415 41 415 41 357 8 c 0,27,28
 320 -12 320 -12 231 -20 c 0,29,30
 209 -22 209 -22 183.5 -22 c 128,-1,31
 158 -22 158 -22 117 -12 c 128,-1,32
 76 -2 76 -2 38 4 c 1,33,-1
 33 4 l 1,34,-1
 30 34 l 2,35,36
 30 41 30 41 32.5 46.5 c 128,-1,37
 35 52 35 52 38 60 c 2,38,-1
 64 137 l 1,39,40
 105 137 105 137 142.5 128 c 128,-1,41
 180 119 180 119 207 119 c 128,-1,42
 234 119 234 119 254 120 c 128,-1,43
 274 121 274 121 293 126 c 0,44,45
 339 140 339 140 339 173 c 0,46,47
 339 239 339 239 301 288 c 0,48,49
 287 306 287 306 258 310.5 c 128,-1,50
 229 315 229 315 199 316.5 c 128,-1,51
 169 318 169 318 146.5 321 c 128,-1,52
 124 324 124 324 124 339 c 2,53,-1
 124 344 l 1,54,55
 127 348 127 348 129.5 361.5 c 128,-1,56
 132 375 132 375 136 390 c 0,57,58
 144 426 144 426 155 426 c 0,59,60
 162 426 162 426 169 421 c 128,-1,61
 176 416 176 416 193 416 c 128,-1,62
 210 416 210 416 232 420.5 c 128,-1,63
 254 425 254 425 272 434 c 0,64,65
 314 455 314 455 314 490 c 0,66,67
 314 520 314 520 264 560 c 0,68,69
 255 567 255 567 250 570 c 1,70,71
 242 573 242 573 210 573 c 128,-1,72
 178 573 178 573 164.5 572 c 128,-1,73
 151 571 151 571 136 566 c 128,-1,74
 121 561 121 561 111 555.5 c 128,-1,75
 101 550 101 550 92 550 c 128,-1,76
 83 550 83 550 83 555 c 2,77,-1
 83 602 l 1,0,1
159 8 m 1,78,-1
 249 8 l 1,79,80
 249 23 249 23 268 35 c 128,-1,81
 287 47 287 47 313.5 59 c 128,-1,82
 340 71 340 71 367 85.5 c 128,-1,83
 394 100 394 100 409 120 c 1,84,-1
 326 84 l 1,85,86
 300 70 300 70 279 58 c 128,-1,87
 258 46 258 46 238 36 c 0,88,89
 200 18 200 18 155 12 c 1,90,-1
 159 8 l 1,78,-1
163 98 m 1,91,92
 51 61 51 61 51 38 c 0,93,94
 51 26 51 26 56 21 c 1,95,-1
 107 12 l 1,96,97
 141 12 141 12 174 32 c 0,98,99
 184 38 184 38 189 46 c 1,100,101
 166 42 166 42 144 36 c 0,102,103
 107 25 107 25 89.5 25 c 128,-1,104
 72 25 72 25 72 31 c 0,105,106
 72 34 72 34 80 38 c 0,107,108
 97 46 97 46 97 51 c 0,109,110
 97 59 97 59 118 64 c 0,111,112
 158 74 158 74 166.5 76.5 c 128,-1,113
 175 79 175 79 183 84.5 c 128,-1,114
 191 90 191 90 196.5 90 c 128,-1,115
 202 90 202 90 206 86 c 1,116,117
 206 74 206 74 193 70.5 c 128,-1,118
 180 67 180 67 165 64.5 c 128,-1,119
 150 62 150 62 137 58 c 128,-1,120
 124 54 124 54 124 42 c 1,121,122
 143 55 143 55 167 55.5 c 128,-1,123
 191 56 191 56 206.5 62.5 c 128,-1,124
 222 69 222 69 232 77.5 c 128,-1,125
 242 86 242 86 258 86 c 1,126,-1
 245 72 l 1,127,128
 265 72 265 72 288.5 81.5 c 128,-1,129
 312 91 312 91 324 102 c 1,130,131
 320 98 320 98 294 98 c 2,132,-1
 163 98 l 1,91,92
413 133 m 1,133,134
 422 133 422 133 422 122.5 c 128,-1,135
 422 112 422 112 408.5 101.5 c 128,-1,136
 395 91 395 91 377.5 81.5 c 128,-1,137
 360 72 360 72 343 64 c 128,-1,138
 326 56 326 56 320 52.5 c 128,-1,139
 314 49 314 49 308.5 45 c 128,-1,140
 303 41 303 41 297.5 36.5 c 128,-1,141
 292 32 292 32 288 29 c 128,-1,142
 284 26 284 26 284 25 c 2,143,-1
 280 12 l 1,144,145
 359 12 359 12 412 88 c 0,146,147
 458 154 458 154 465 236 c 1,148,149
 456 273 456 273 434.5 301 c 128,-1,150
 413 329 413 329 396 340 c 1,151,152
 389 340 389 340 370 324 c 0,153,154
 334 292 334 292 334 286 c 1,155,156
 353 286 353 286 369 295 c 128,-1,157
 385 304 385 304 405 304 c 1,158,-1
 409 295 l 1,159,-1
 344 275 l 1,160,-1
 370 269 l 2,161,162
 370 270 370 270 365 262.5 c 128,-1,163
 360 255 360 255 360 252 c 128,-1,164
 360 249 360 249 362 249 c 2,165,-1
 426 271 l 1,166,167
 439 271 439 271 439 262 c 0,168,169
 439 256 439 256 407.5 231 c 128,-1,170
 376 206 376 206 370 197 c 1,171,172
 382 201 382 201 391.5 205.5 c 128,-1,173
 401 210 401 210 410 214 c 0,174,175
 428 222 428 222 454 222 c 1,176,177
 454 206 454 206 436 196 c 0,178,179
 429 192 429 192 422.5 187.5 c 128,-1,180
 416 183 416 183 413 174 c 1,181,-1
 438 174 l 1,182,-1
 438 172 l 1,183,-1
 439 169 l 1,184,185
 439 149 439 149 354 120 c 0,186,187
 339 114 339 114 339 112 c 1,188,-1
 344 112 l 1,189,-1
 413 133 l 1,133,134
137 107 m 1,190,191
 117 115 117 115 85 120 c 1,192,193
 76 111 76 111 70 99 c 128,-1,194
 64 87 64 87 64 86 c 2,195,-1
 68 81 l 1,196,-1
 133 103 l 1,197,-1
 137 107 l 1,190,191
406 159 m 1,198,199
 386 159 386 159 364 144 c 0,200,201
 357 139 357 139 357 133 c 1,202,203
 370 133 370 133 385.5 140 c 128,-1,204
 401 147 401 147 406 159 c 1,198,199
365 163 m 1,205,206
 371 173 371 173 393 183 c 128,-1,207
 415 193 415 193 426 199 c 128,-1,208
 437 205 437 205 443 215 c 1,209,210
 427 215 427 215 411 206 c 0,211,212
 377 187 377 187 365 185 c 1,213,-1
 365 163 l 1,205,206
430 262 m 1,214,215
 357 242 357 242 357 236 c 1,216,217
 356 235 356 235 356 232 c 0,218,219
 356 222 356 222 362 219 c 1,220,221
 408 232 408 232 430 262 c 1,214,215
333 385.5 m 128,-1,223
 348 392 348 392 361.5 392 c 128,-1,224
 375 392 375 392 375 385 c 128,-1,225
 375 378 375 378 364.5 371.5 c 128,-1,226
 354 365 354 365 340 359 c 0,227,228
 304 343 304 343 300 333 c 1,229,230
 314 340 314 340 331 344 c 1,231,-1
 331 335 l 1,232,-1
 306 318 l 1,233,-1
 306 314 l 2,234,235
 306 313 306 313 312 308 c 128,-1,236
 318 303 318 303 322 301 c 1,237,238
 337 307 337 307 352 320 c 0,239,240
 379 343 379 343 383 344 c 1,241,242
 381 349 381 349 373.5 349 c 128,-1,243
 366 349 366 349 359 345.5 c 128,-1,244
 352 342 352 342 342 342 c 1,245,246
 375 361 375 361 400 410 c 0,247,248
 406 423 406 423 409 434 c 1,249,250
 398 434 398 434 347 408 c 0,251,252
 252 361 252 361 245 352 c 1,253,254
 264 352 264 352 291 365.5 c 128,-1,222
 318 379 318 379 333 385.5 c 128,-1,223
249 335 m 1,255,256
 253 331 253 331 264.5 331 c 128,-1,257
 276 331 276 331 278.5 332.5 c 128,-1,258
 281 334 281 334 284 340 c 1,259,-1
 353 378 l 1,260,-1
 249 340 l 1,261,-1
 249 335 l 1,255,256
391 439 m 1,262,263
 308 413 308 413 279 401 c 0,264,265
 225 378 225 378 172 344 c 1,266,-1
 206 344 l 1,267,268
 239 368 239 368 280 386 c 2,269,-1
 344 414 l 2,270,271
 367 424 367 424 391 439 c 1,262,263
238 401 m 1,272,273
 158 401 158 401 149 351 c 1,274,275
 169 353 169 353 191 365 c 0,276,277
 228 384 228 384 238 401 c 1,272,273
365.5 489.5 m 128,-1,279
 379 495 379 495 394.5 495 c 128,-1,280
 410 495 410 495 410 486 c 0,281,282
 410 479 410 479 368.5 456 c 128,-1,283
 327 433 327 433 322 430 c 1,284,285
 338 430 338 430 358 439.5 c 128,-1,286
 378 449 378 449 390.5 449 c 128,-1,287
 403 449 403 449 409 443 c 1,288,289
 430 485 430 485 430 514 c 0,290,291
 430 529 430 529 408 566 c 0,292,293
 403 576 403 576 397 576 c 128,-1,294
 391 576 391 576 381.5 571 c 128,-1,295
 372 566 372 566 362 559 c 0,296,297
 346 547 346 547 331 529 c 1,298,299
 370 547 370 547 391.5 547 c 128,-1,300
 413 547 413 547 413 542 c 0,301,302
 413 533 413 533 401.5 525.5 c 128,-1,303
 390 518 390 518 376 510.5 c 128,-1,304
 362 503 362 503 350.5 496 c 128,-1,305
 339 489 339 489 339 482 c 1,306,278
 352 484 352 484 365.5 489.5 c 128,-1,279
388 482 m 2,307,308
 378 482 378 482 364 477 c 0,309,310
 337 467 337 467 337 457 c 0,311,312
 337 453 337 453 339 451 c 1,313,314
 362 470 362 470 391 482 c 1,315,-1
 388 482 l 2,307,308
388 529 m 1,316,-1
 383 530 l 1,317,318
 361 530 361 530 350 522 c 128,-1,319
 339 514 339 514 339 511 c 128,-1,320
 339 508 339 508 344 503 c 1,321,322
 354 512 354 512 365.5 516.5 c 128,-1,323
 377 521 377 521 388 529 c 1,316,-1
313 555 m 1,324,325
 315 552 315 552 315.5 549 c 128,-1,326
 316 546 316 546 323 546 c 128,-1,327
 330 546 330 546 345 558 c 128,-1,328
 360 570 360 570 369 581 c 1,329,-1
 313 555 l 1,324,325
383.5 606.5 m 128,-1,331
 381 612 381 612 376 612 c 128,-1,332
 371 612 371 612 362.5 607.5 c 128,-1,333
 354 603 354 603 345 596 c 0,334,335
 325 582 325 582 318 573 c 1,336,337
 344 579 344 579 388 599 c 1,338,330
 386 601 386 601 383.5 606.5 c 128,-1,331
299 576 m 1,339,340
 299 577 299 577 353 611 c 1,341,-1
 344 611 l 2,342,343
 335 611 335 611 306.5 597.5 c 128,-1,344
 278 584 278 584 278 582 c 1,345,346
 285 582 285 582 289 579 c 128,-1,347
 293 576 293 576 299 576 c 1,339,340
120 607 m 0,348,349
 120 615 120 615 189 663 c 1,350,351
 177 663 177 663 151 649 c 0,352,353
 103 623 103 623 103 614 c 0,354,355
 103 609 103 609 106.5 599 c 128,-1,356
 110 589 110 589 111 585 c 1,357,358
 129 589 129 589 145.5 591.5 c 128,-1,359
 162 594 162 594 178 600 c 0,360,361
 210 613 210 613 237 650 c 1,362,-1
 126 598 l 1,363,364
 120 598 120 598 120 607 c 0,348,349
219 599 m 1,365,366
 224 594 224 594 240 594 c 128,-1,367
 256 594 256 594 264.5 599 c 128,-1,368
 273 604 273 604 281 610.5 c 128,-1,369
 289 617 289 617 295.5 624.5 c 128,-1,370
 302 632 302 632 307 637 c 1,371,372
 287 627 287 627 261.5 621 c 128,-1,373
 236 615 236 615 219 599 c 1,365,366
337 638 m 1,374,375
 303 627 303 627 280 599 c 1,376,-1
 284 599 l 1,377,-1
 353 627 l 1,378,379
 354 629 354 629 354 632 c 0,380,381
 354 638 354 638 337 638 c 1,374,375
284 641 m 1,382,383
 281 655 281 655 276 655 c 0,384,385
 272 655 272 655 258 645 c 0,386,387
 230 626 230 626 228 620 c 1,388,-1
 232 620 l 1,389,-1
 284 641 l 1,382,383
157 673 m 1,390,391
 144 673 144 673 121.5 656 c 128,-1,392
 99 639 99 639 99 636 c 1,393,394
 100 634 100 634 104.5 634 c 128,-1,395
 109 634 109 634 117.5 638.5 c 128,-1,396
 126 643 126 643 134 650 c 1,397,398
 155 665 155 665 157 673 c 1,390,391
232 658 m 1,399,400
 217 663 217 663 209 663 c 128,-1,401
 201 663 201 663 189.5 651.5 c 128,-1,402
 178 640 178 640 167 632 c 1,403,-1
 172 632 l 1,404,405
 185 638 185 638 194.5 642 c 128,-1,406
 204 646 204 646 214 650.5 c 128,-1,407
 224 655 224 655 232 658 c 1,399,400
EndSplineSet
EndChar

StartChar: four
Encoding: 52 52 23
Width: 575
Flags: W
LayerCount: 2
Fore
SplineSet
354 1 m 128,-1,1
 332 -4 332 -4 308 -4 c 128,-1,2
 284 -4 284 -4 268 9 c 1,3,-1
 272 177 l 1,4,5
 263 178 263 178 254 178 c 2,6,7
 254 178 254 178 237 178 c 0,8,9
 197 178 197 178 160 173.5 c 128,-1,10
 123 169 123 169 85 169 c 0,11,12
 4 169 4 169 4 188 c 2,13,-1
 4 192 l 2,14,15
 4 193 4 193 32 230 c 0,16,17
 126 359 126 359 215 499 c 0,18,19
 229 522 229 522 239.5 547 c 128,-1,20
 250 572 250 572 264 596 c 1,21,22
 284 616 284 616 296 641 c 128,-1,23
 308 666 308 666 314 673 c 128,-1,24
 320 680 320 680 333 680 c 1,25,-1
 377 674 l 1,26,-1
 418 678 l 1,27,28
 431 678 431 678 431 610 c 0,29,30
 431 592 431 592 427 579 c 1,31,32
 435 507 435 507 436 436 c 128,-1,33
 437 365 437 365 443 293 c 1,34,35
 446 285 446 285 466 285 c 128,-1,36
 486 285 486 285 500 289 c 128,-1,37
 514 293 514 293 528 293 c 0,38,39
 540 293 540 293 540 260 c 2,40,-1
 540 247 l 1,41,42
 539 245 539 245 537 236.5 c 128,-1,43
 535 228 535 228 532 218 c 0,44,45
 524 194 524 194 520 194 c 2,46,-1
 438 194 l 1,47,48
 438 159 438 159 432.5 127.5 c 128,-1,49
 427 96 427 96 427 76 c 2,50,-1
 427 49 l 2,51,52
 427 42 427 42 428 32 c 0,53,54
 429 5 429 5 415 5 c 1,55,56
 410 6 410 6 406 6 c 2,57,-1
 397 6 l 2,58,0
 376 6 376 6 354 1 c 128,-1,1
297 26 m 1,59,60
 303 18 303 18 322 18 c 128,-1,61
 341 18 341 18 356 21.5 c 128,-1,62
 371 25 371 25 394 29 c 1,63,64
 403 36 403 36 403 56 c 1,65,66
 382 56 382 56 364 47 c 128,-1,67
 346 38 346 38 330 38 c 0,68,69
 309 38 309 38 297 26 c 1,59,60
305 104 m 1,70,-1
 338 108 l 2,71,72
 343 108 343 108 349 106 c 1,73,-1
 357 100 l 1,74,75
 349 97 349 97 338 96 c 128,-1,76
 327 95 327 95 317 93 c 0,77,78
 293 88 293 88 293 74 c 2,79,-1
 293 66 l 2,80,81
 293 53 293 53 297 46 c 1,82,83
 310 50 310 50 323 59 c 1,84,85
 329 72 329 72 358.5 89.5 c 128,-1,86
 388 107 388 107 394 113 c 1,87,88
 406 113 406 113 406 109 c 0,89,90
 404 97 404 97 360 70 c 0,91,92
 351 64 351 64 347 63 c 2,93,-1
 374 64 l 2,94,95
 398 64 398 64 410 91 c 0,96,97
 418 109 418 109 418 136 c 1,98,99
 412 136 412 136 398 134 c 128,-1,100
 384 132 384 132 368 130 c 0,101,102
 330 125 330 125 317 125 c 1,103,104
 326 134 326 134 363 146.5 c 128,-1,105
 400 159 400 159 416 163 c 1,106,107
 430 207 430 207 437 221 c 0,108,109
 451 246 451 246 474 269 c 1,110,111
 436 239 436 239 405 226 c 128,-1,112
 374 213 374 213 356 206 c 128,-1,113
 338 199 338 199 322 192 c 1,114,115
 322 185 322 185 327 185 c 1,116,117
 330 193 330 193 367.5 198.5 c 128,-1,118
 405 204 405 204 410 204 c 1,119,120
 410 181 410 181 402 178 c 2,121,-1
 318 147 l 1,122,123
 316 143 316 143 301 139 c 1,124,-1
 294 109 l 1,125,126
 296 104 296 104 305 104 c 1,70,-1
280 168 m 1,127,128
 285 165 285 165 291.5 161.5 c 128,-1,129
 298 158 298 158 298 154 c 128,-1,130
 298 150 298 150 297.5 149 c 128,-1,131
 297 148 297 148 297 147 c 1,132,133
 318 158 318 158 336 165.5 c 128,-1,134
 354 173 354 173 373 187 c 1,135,-1
 368 188 l 1,136,-1
 280 168 l 1,127,128
181 273 m 1,137,138
 174 273 174 273 142 255 c 1,139,140
 142 269 142 269 174 286 c 0,141,142
 181 290 181 290 185 293 c 1,143,144
 140 293 140 293 118 283 c 0,145,146
 76 265 76 265 50 222 c 0,147,148
 44 213 44 213 44 207 c 0,149,150
 44 188 44 188 76 188 c 0,151,152
 90 188 90 188 101 196 c 0,153,154
 128 218 128 218 163 231 c 1,155,156
 173 231 173 231 181 227 c 1,157,158
 171 220 171 220 152 212.5 c 128,-1,159
 133 205 133 205 130 205 c 1,160,-1
 130 201 l 1,161,162
 166 201 166 201 176 211 c 1,163,164
 176 207 176 207 173.5 201.5 c 128,-1,165
 171 196 171 196 171 194 c 1,166,-1
 198 218 l 1,167,168
 200 216 200 216 203 216 c 128,-1,169
 206 216 206 216 212.5 221.5 c 128,-1,170
 219 227 219 227 224.5 227 c 128,-1,171
 230 227 230 227 235 222 c 1,172,173
 238 222 238 222 238 221 c 0,174,175
 238 219 238 219 221 213.5 c 128,-1,176
 204 208 204 208 189 202 c 1,177,178
 196 196 196 196 212 196 c 2,179,-1
 219 196 l 2,180,181
 271 196 271 196 294 211 c 1,182,183
 294 205 294 205 286 197 c 1,184,185
 289 194 289 194 296.5 194 c 128,-1,186
 304 194 304 194 319.5 204 c 128,-1,187
 335 214 335 214 352 226 c 0,188,189
 399 258 399 258 405.5 258 c 128,-1,190
 412 258 412 258 423 255 c 1,191,192
 435 261 435 261 439 265 c 1,193,194
 421 265 421 265 418 284 c 0,195,196
 416 292 416 292 415 300.5 c 128,-1,197
 414 309 414 309 410 315 c 1,198,199
 408 315 408 315 398 308 c 1,200,201
 380 293 380 293 379 293 c 1,202,203
 399 293 399 293 399 287 c 0,204,205
 399 282 399 282 389.5 274 c 128,-1,206
 380 266 380 266 374 265 c 1,207,208
 374 276 374 276 368 276 c 0,209,210
 344 276 344 276 322.5 262.5 c 128,-1,211
 301 249 301 249 287 242.5 c 128,-1,212
 273 236 273 236 251 235 c 1,213,214
 256 238 256 238 262 241.5 c 128,-1,215
 268 245 268 245 273.5 248.5 c 128,-1,216
 279 252 279 252 286 255 c 1,217,-1
 268 256 l 1,218,219
 244 256 244 256 224 247 c 128,-1,220
 204 238 204 238 181 238 c 1,221,-1
 215 256 l 1,222,223
 194 256 194 256 165 244 c 0,224,225
 108 221 108 221 85 221 c 0,226,227
 84 221 84 221 82 225 c 128,-1,228
 80 229 80 229 80 231 c 1,229,-1
 88 236 l 2,230,231
 101 245 101 245 117.5 254.5 c 128,-1,232
 134 264 134 264 134 265 c 2,233,-1
 135 257 l 1,234,235
 135 247 135 247 127 244 c 1,236,237
 130 245 130 245 137 246.5 c 128,-1,238
 144 248 144 248 152 250 c 0,239,240
 170 255 170 255 176 255 c 1,241,-1
 181 256 l 1,242,-1
 181 273 l 1,137,138
510 224 m 2,243,-1
 504 224 l 2,244,245
 459 224 459 224 453 210 c 1,246,-1
 512 210 l 1,247,-1
 515 223 l 1,248,249
 513 224 513 224 510 224 c 2,243,-1
356 255 m 1,250,251
 356 243 356 243 316 224 c 0,252,253
 307 220 307 220 298 220 c 128,-1,254
 289 220 289 220 289 224 c 128,-1,255
 289 228 289 228 298 233.5 c 128,-1,256
 307 239 307 239 318 244 c 0,257,258
 348 255 348 255 350 255 c 2,259,-1
 356 255 l 1,250,251
512 278 m 1,260,261
 508 273 508 273 502 269 c 128,-1,262
 496 265 496 265 490 260 c 0,263,264
 477 249 477 249 477 240 c 1,265,266
 490 240 490 240 503.5 246 c 128,-1,267
 517 252 517 252 517 265 c 2,268,-1
 517 269 l 2,269,270
 517 277 517 277 512 278 c 1,260,261
277 276 m 1,271,272
 286 312 286 312 286 395 c 1,273,-1
 280 406 l 1,274,275
 280 400 280 400 260 362 c 0,276,277
 239 321 239 321 215 282 c 1,278,279
 229 277 229 277 240 277 c 0,280,281
 255 277 255 277 265 277 c 128,-1,282
 275 277 275 277 277 276 c 1,271,272
389 423 m 1,283,-1
 314 406 l 1,284,-1
 310 403 l 1,285,-1
 327 403 l 1,286,287
 325 398 325 398 318 396 c 128,-1,288
 311 394 311 394 308.5 391.5 c 128,-1,289
 306 389 306 389 306 381 c 2,290,-1
 306 276 l 1,291,292
 331 281 331 281 350 292.5 c 128,-1,293
 369 304 369 304 398 315 c 1,294,-1
 371 315 l 2,295,296
 327 315 327 315 327 319 c 2,297,-1
 327 323 l 2,298,299
 327 326 327 326 338 330.5 c 128,-1,300
 349 335 349 335 362 341 c 0,301,302
 399 357 399 357 399 367 c 1,303,304
 384 367 384 367 374 361 c 128,-1,305
 364 355 364 355 356.5 355 c 128,-1,306
 349 355 349 355 345.5 357 c 128,-1,307
 342 359 342 359 341 359 c 1,308,309
 347 368 347 368 369.5 370 c 128,-1,310
 392 372 392 372 401 373 c 128,-1,311
 410 374 410 374 410 378 c 0,312,313
 410 398 410 398 406 406 c 1,314,315
 385 406 385 406 337 363 c 0,316,317
 328 355 328 355 327 355 c 2,318,-1
 318 354 l 2,319,320
 312 354 312 354 310 361 c 1,321,322
 319 371 319 371 346 386 c 0,323,324
 394 414 394 414 394 420 c 0,325,326
 394 423 394 423 389 423 c 1,283,-1
147 310 m 1,327,328
 142 315 142 315 138.5 315 c 128,-1,329
 135 315 135 315 129.5 313.5 c 128,-1,330
 124 312 124 312 118 310 c 0,331,332
 103 303 103 303 103 293 c 1,333,334
 124 293 124 293 147 310 c 1,327,328
146 322 m 1,335,336
 165 336 165 336 201 336 c 0,337,338
 203 336 203 336 205.5 335.5 c 128,-1,339
 208 335 208 335 209 335 c 1,340,341
 206 327 206 327 199 324 c 0,342,343
 185 316 185 316 181 310 c 0,344,345
 181 309 181 309 184 309 c 2,346,-1
 189 309 l 2,347,348
 204 309 204 309 215 324 c 0,349,350
 235 349 235 349 235 364 c 1,351,352
 239 364 239 364 247 384 c 0,353,354
 261 420 261 420 261 430 c 1,355,356
 238 430 238 430 235 420 c 1,357,-1
 181 394 l 1,358,359
 207 394 207 394 216.5 388 c 128,-1,360
 226 382 226 382 226 377 c 128,-1,361
 226 372 226 372 214 367 c 2,362,-1
 186 356 l 2,363,364
 171 350 171 350 158.5 342 c 128,-1,365
 146 334 146 334 146 322 c 1,335,336
418 342 m 1,366,367
 414 350 414 350 410 352 c 1,368,369
 393 352 393 352 376.5 341.5 c 128,-1,370
 360 331 360 331 347 323 c 1,371,-1
 347 318 l 1,372,373
 364 318 364 318 377.5 325 c 128,-1,374
 391 332 391 332 403 332 c 128,-1,375
 415 332 415 332 416.5 334.5 c 128,-1,376
 418 337 418 337 418 342 c 1,366,367
198 381 m 1,377,378
 194 382 194 382 187 382 c 0,379,380
 163 382 163 382 163 363 c 1,381,382
 172 363 172 363 184 371 c 128,-1,383
 196 379 196 379 198 381 c 1,377,378
218 423 m 1,384,-1
 207 424 l 1,385,386
 186 424 186 424 185 411 c 1,387,-1
 218 423 l 1,384,-1
310 423 m 1,388,389
 315 425 315 425 326.5 428 c 128,-1,390
 338 431 338 431 350 435 c 0,391,392
 382 445 382 445 385 452 c 1,393,394
 354 441 354 441 318 441 c 1,395,-1
 318 448 l 1,396,-1
 310 444 l 1,397,-1
 310 423 l 1,388,389
352 457 m 1,398,-1
 401 461 l 1,399,400
 401 449 401 449 392.5 440 c 128,-1,401
 384 431 384 431 368 431 c 1,402,-1
 379 430 l 1,403,404
 406 430 406 430 406 435 c 2,405,-1
 410 494 l 1,406,407
 407 494 407 494 402 495 c 0,408,409
 392 497 392 497 366 497 c 0,410,411
 305 497 305 497 305 479 c 0,412,413
 305 467 305 467 310 457 c 1,414,415
 324 469 324 469 343.5 475 c 128,-1,416
 363 481 363 481 377 491 c 1,417,-1
 377 482 l 1,418,-1
 327 457 l 1,419,420
 327 455 327 455 330 451.5 c 128,-1,421
 333 448 333 448 335 448 c 2,422,-1
 352 457 l 1,398,-1
222 443 m 1,423,424
 227 442 227 442 234.5 441 c 128,-1,425
 242 440 242 440 242 435 c 1,426,427
 249 442 249 442 256 443 c 128,-1,428
 263 444 263 444 268 446 c 0,429,430
 280 449 280 449 280 474 c 1,431,432
 275 472 275 472 267.5 466.5 c 128,-1,433
 260 461 260 461 252 456 c 0,434,435
 229 443 229 443 222 443 c 1,423,424
251 478 m 2,436,437
 237 478 237 478 226 471 c 128,-1,438
 215 464 215 464 215 448 c 1,439,440
 217 450 217 450 223 453 c 128,-1,441
 229 456 229 456 236 460 c 0,442,443
 255 471 255 471 259 478 c 1,444,-1
 251 478 l 2,436,437
230 482 m 1,445,446
 245 491 245 491 297 491 c 1,447,-1
 301 499 l 1,448,-1
 355 527 l 1,449,450
 352 528 352 528 342 528 c 128,-1,451
 332 528 332 528 315.5 524.5 c 128,-1,452
 299 521 299 521 282 514 c 0,453,454
 243 499 243 499 230 482 c 1,445,446
347 508 m 1,455,456
 358 508 358 508 368 505 c 128,-1,457
 378 502 378 502 385 502 c 1,458,-1
 382 508 l 1,459,-1
 407 508 l 1,460,461
 407 523 407 523 402 540 c 1,462,463
 394 531 394 531 387 525 c 128,-1,464
 380 519 380 519 368 519 c 1,465,-1
 368 532 l 1,466,467
 358 520 358 520 352.5 515 c 128,-1,468
 347 510 347 510 347 508 c 1,455,456
272 560 m 0,469,470
 268 552 268 552 268 546 c 128,-1,471
 268 540 268 540 259.5 530 c 128,-1,472
 251 520 251 520 247 511 c 1,473,474
 250 511 250 511 289.5 535 c 128,-1,475
 329 559 329 559 346 570 c 2,476,-1
 364 582 l 1,477,478
 350 582 350 582 331.5 577.5 c 128,-1,479
 313 573 313 573 306 573 c 1,480,-1
 310 579 l 1,481,-1
 301 582 l 1,482,483
 339 597 339 597 353.5 609 c 128,-1,484
 368 621 368 621 368 628 c 1,485,486
 356 620 356 620 342 619 c 0,487,488
 315 617 315 617 306 611 c 1,489,490
 287 595 287 595 272 560 c 0,469,470
394 596 m 1,491,492
 383 566 383 566 358 566 c 0,493,494
 347 566 347 566 328 551 c 2,495,-1
 310 536 l 1,496,497
 311 531 311 531 321.5 531 c 128,-1,498
 332 531 332 531 354 540 c 128,-1,499
 376 549 376 549 395 549 c 0,500,501
 408 549 408 549 408 597.5 c 128,-1,502
 408 646 408 646 398 650 c 1,503,-1
 327 658 l 1,504,505
 324 649 324 649 318 640 c 1,506,507
 318 635 318 635 327 635 c 2,508,-1
 377 633 l 2,509,510
 385 633 385 633 384.5 637.5 c 128,-1,511
 384 642 384 642 389 645 c 1,512,-1
 402 633 l 1,513,514
 401 623 401 623 382 614.5 c 128,-1,515
 363 606 363 606 355 602.5 c 128,-1,516
 347 599 347 599 347 596 c 2,517,-1
 347 589 l 1,518,519
 361 589 361 589 371.5 592.5 c 128,-1,520
 382 596 382 596 394 596 c 1,491,492
EndSplineSet
EndChar

